<svg width="337.49999999578125" height="120.93749999848829" viewBox="0 0 600.0 215.0" xmlns="http://www.w3.org/2000/svg" id="464898ab-270b-4941-b783-0ae533d111d1" preserveAspectRatio="xMidYMid meet"><defs><linearGradient id="condensedLite" x1="0%" y1="0%" x2="100%" y2="0%"><stop class="stop1" offset="0%" stop-color="#ffffff"></stop><stop class="stop2" offset="50%" stop-color="#F8FAFC"></stop><stop class="stop3" offset="100%" stop-color="#e2e8f0"></stop></linearGradient><linearGradient id="condensedDark" x1="0%" y1="0%" x2="100%" y2="0%"><stop class="stop1" offset="0%" stop-color="#1e293b"></stop><stop class="stop2" offset="50%" stop-color="#334155"></stop><stop class="stop3" offset="100%" stop-color="#475569"></stop></linearGradient><linearGradient id="Q1" x2="0%" y2="100%"><stop offset="0%" style="stop-color:#ff0057"></stop><stop offset="50%" style="stop-color:#e60049"></stop><stop offset="100%" style="stop-color:#b8003a"></stop></linearGradient><linearGradient id="Q2" x2="0%" y2="100%"><stop offset="0%" style="stop-color:#0dd8ff"></stop><stop offset="50%" style="stop-color:#0bb4ff"></stop><stop offset="100%" style="stop-color:#0890cc"></stop></linearGradient><linearGradient id="Q3" x2="0%" y2="100%"><stop offset="0%" style="stop-color:#60ffae"></stop><stop offset="50%" style="stop-color:#50e991"></stop><stop offset="100%" style="stop-color:#40ba74"></stop></linearGradient><linearGradient id="Q4" x2="0%" y2="100%"><stop offset="0%" style="stop-color:#ffff00"></stop><stop offset="50%" style="stop-color:#e6d800"></stop><stop offset="100%" style="stop-color:#b8ac00"></stop></linearGradient><style type="text/css">.shadowed { -webkit-filter: drop-shadow(2px 2px 3px rgba(0, 0, 0, .25)); filter: drop-shadow(2px 2px 3px rgba(0, 0, 0, .25)); transition: all 0.3s ease; } .bar:hover { filter: brightness(1.1) saturate(1.1); transform: translateY(-1px); -webkit-filter: drop-shadow(3px 3px 5px rgba(0, 0, 0, .35)); filter: drop-shadow(3px 3px 5px rgba(0, 0, 0, .35)); } text { font-family: 'Arial', sans-serif; transition: all 0.3s ease; } .bar-label { opacity: 0.9; } .bar:hover + .bar-label { opacity: 1; font-weight: bold; }</style></defs><g transform="scale(1.0)"><rect width="100%" height="100%" fill="url(#condensedDark)"></rect><text x="300.0" text-anchor="middle" y="16" style="font-size: 16px; fill: #f8fafc; font-family: Arial, Helvetica, sans-serif;">Annual Product Sales Report</text> <g><rect x="20" y="18" width="85" height="16" rx="3" ry="3" fill="#94a3b8" fill-opacity="0.1"></rect><text x="107" y="28" text-anchor="end" style="fill: #e2e8f0; font-family: Arial; Helvetica; sans-serif; font-size:10px; font-weight: bold;">Quarters</text><rect x="112" y="18" width="85" height="16" rx="3" ry="3" fill="#94a3b8" fill-opacity="0.1"></rect><text x="115" y="28" text-anchor="start" style="fill: #e2e8f0; font-family: Arial; Helvetica; sans-serif; font-size:10px; font-weight: bold;">Sales (USD)</text></g><line x1="109" x2="109" y1="30" y2="135.0" class="light-shadow" stroke-width="2" stroke="#94a3b8" stroke-opacity="0.8"></line><line x1="145.5" x2="145.5" y1="30" y2="135.0" class="light-shadow" stroke-width="1" stroke="#94a3b8" stroke-opacity="0.6" stroke-dasharray="1,1"></line><text x="145.5" y="145.0" text-anchor="middle" style="font-size: 8px; fill: #f8fafc; font-family: Arial, Helvetica, sans-serif;">750</text><line x1="183.0" x2="183.0" y1="30" y2="135.0" class="light-shadow" stroke-width="1" stroke="#94a3b8" stroke-opacity="0.4" stroke-dasharray="1,1"></line><text x="183.0" y="145.0" text-anchor="middle" style="font-size: 8px; fill: #f8fafc; font-family: Arial, Helvetica, sans-serif;">1.5k</text><line x1="220.5" x2="220.5" y1="30" y2="135.0" class="light-shadow" stroke-width="1" stroke="#94a3b8" stroke-opacity="0.6" stroke-dasharray="1,1"></line><text x="220.5" y="145.0" text-anchor="middle" style="font-size: 8px; fill: #f8fafc; font-family: Arial, Helvetica, sans-serif;">2.3k</text><line x1="258.0" x2="258.0" y1="30" y2="135.0" class="light-shadow" stroke-width="1" stroke="#94a3b8" stroke-opacity="0.4" stroke-dasharray="none"></line><text x="258.0" y="145.0" text-anchor="middle" style="font-size: 8px; fill: #f8fafc; font-family: Arial, Helvetica, sans-serif;">3.0k</text><line x1="295.5" x2="295.5" y1="30" y2="135.0" class="light-shadow" stroke-width="1" stroke="#94a3b8" stroke-opacity="0.6" stroke-dasharray="1,1"></line><text x="295.5" y="145.0" text-anchor="middle" style="font-size: 8px; fill: #f8fafc; font-family: Arial, Helvetica, sans-serif;">3.8k</text><line x1="333.0" x2="333.0" y1="30" y2="135.0" class="light-shadow" stroke-width="1" stroke="#94a3b8" stroke-opacity="0.4" stroke-dasharray="1,1"></line><text x="333.0" y="145.0" text-anchor="middle" style="font-size: 8px; fill: #f8fafc; font-family: Arial, Helvetica, sans-serif;">4.5k</text><line x1="370.5" x2="370.5" y1="30" y2="135.0" class="light-shadow" stroke-width="1" stroke="#94a3b8" stroke-opacity="0.6" stroke-dasharray="1,1"></line><text x="370.5" y="145.0" text-anchor="middle" style="font-size: 8px; fill: #f8fafc; font-family: Arial, Helvetica, sans-serif;">5.3k</text><line x1="408.0" x2="408.0" y1="30" y2="135.0" class="light-shadow" stroke-width="1" stroke="#94a3b8" stroke-opacity="0.4" stroke-dasharray="none"></line><text x="408.0" y="145.0" text-anchor="middle" style="font-size: 8px; fill: #f8fafc; font-family: Arial, Helvetica, sans-serif;">6.0k</text><line x1="0" x2="600.0" y1="135.0" y2="135.0" class="light-shadow" stroke-width="1.5" stroke="#94a3b8" stroke-opacity="0.8"></line><g transform="translate(100,20)"><g transform="translate(0,0)"><text x="0" y="34" text-anchor="end" style="fill: #e2e8f0; font-family: Arial; Helvetica; sans-serif; font-size:8px;">Product A</text><g transform="translate(10, 10)"><path d="M 0 0.0  A 0.0 0.0 0 0 1 0.0 0 L 245.0 0 A 5.0 5.0 0 0 1 250.0 5.0 L 250.0 5.0 A 5.0 5.0 0 0 1 245.0 10.0 L 0.0 10.0 A 0.0 0.0 0 0 1 0 10.0 Z" fill="url(#Q1)" class="bar shadowed"></path><text x="255.0" y="8" class="bar-label" style="font-size: 8px; fill: #f8fafc; font-family: Arial, Helvetica, sans-serif;">5.0k</text></g><g transform="translate(10, 20)"><path d="M 0 0.0  A 0.0 0.0 0 0 1 0.0 0 L 345.0 0 A 5.0 5.0 0 0 1 350.0 5.0 L 350.0 5.0 A 5.0 5.0 0 0 1 345.0 10.0 L 0.0 10.0 A 0.0 0.0 0 0 1 0 10.0 Z" fill="url(#Q2)" class="bar shadowed"></path><text x="355.0" y="8" class="bar-label" style="font-size: 8px; fill: #f8fafc; font-family: Arial, Helvetica, sans-serif;">7.0k</text></g><g transform="translate(10, 30)"><path d="M 0 0.0  A 0.0 0.0 0 0 1 0.0 0 L 395.0 0 A 5.0 5.0 0 0 1 400.0 5.0 L 400.0 5.0 A 5.0 5.0 0 0 1 395.0 10.0 L 0.0 10.0 A 0.0 0.0 0 0 1 0 10.0 Z" fill="url(#Q3)" class="bar shadowed"></path><text x="405.0" y="8" class="bar-label" style="font-size: 8px; fill: #f8fafc; font-family: Arial, Helvetica, sans-serif;">8.0k</text></g><g transform="translate(10, 40)"><path d="M 0 0.0  A 0.0 0.0 0 0 1 0.0 0 L 295.0 0 A 5.0 5.0 0 0 1 300.0 5.0 L 300.0 5.0 A 5.0 5.0 0 0 1 295.0 10.0 L 0.0 10.0 A 0.0 0.0 0 0 1 0 10.0 Z" fill="url(#Q4)" class="bar shadowed"></path><text x="305.0" y="8" class="bar-label" style="font-size: 8px; fill: #f8fafc; font-family: Arial, Helvetica, sans-serif;">6.0k</text></g></g><g transform="translate(0,45)"><text x="0" y="34" text-anchor="end" style="fill: #e2e8f0; font-family: Arial; Helvetica; sans-serif; font-size:8px;">Product B</text><g transform="translate(10, 10)"><path d="M 0 0.0  A 0.0 0.0 0 0 1 0.0 0 L 295.0 0 A 5.0 5.0 0 0 1 300.0 5.0 L 300.0 5.0 A 5.0 5.0 0 0 1 295.0 10.0 L 0.0 10.0 A 0.0 0.0 0 0 1 0 10.0 Z" fill="url(#Q1)" class="bar shadowed"></path><text x="305.0" y="8" class="bar-label" style="font-size: 8px; fill: #f8fafc; font-family: Arial, Helvetica, sans-serif;">6.0k</text></g><g transform="translate(10, 20)"><path d="M 0 0.0  A 0.0 0.0 0 0 1 0.0 0 L 395.0 0 A 5.0 5.0 0 0 1 400.0 5.0 L 400.0 5.0 A 5.0 5.0 0 0 1 395.0 10.0 L 0.0 10.0 A 0.0 0.0 0 0 1 0 10.0 Z" fill="url(#Q2)" class="bar shadowed"></path><text x="405.0" y="8" class="bar-label" style="font-size: 8px; fill: #f8fafc; font-family: Arial, Helvetica, sans-serif;">8.0k</text></g><g transform="translate(10, 30)"><path d="M 0 0.0  A 0.0 0.0 0 0 1 0.0 0 L 345.0 0 A 5.0 5.0 0 0 1 350.0 5.0 L 350.0 5.0 A 5.0 5.0 0 0 1 345.0 10.0 L 0.0 10.0 A 0.0 0.0 0 0 1 0 10.0 Z" fill="url(#Q3)" class="bar shadowed"></path><text x="355.0" y="8" class="bar-label" style="font-size: 8px; fill: #f8fafc; font-family: Arial, Helvetica, sans-serif;">7.0k</text></g><g transform="translate(10, 40)"><path d="M 0 0.0  A 0.0 0.0 0 0 1 0.0 0 L 445.0 0 A 5.0 5.0 0 0 1 450.0 5.0 L 450.0 5.0 A 5.0 5.0 0 0 1 445.0 10.0 L 0.0 10.0 A 0.0 0.0 0 0 1 0 10.0 Z" fill="url(#Q4)" class="bar shadowed"></path><text x="455.0" y="8" class="bar-label" style="font-size: 8px; fill: #f8fafc; font-family: Arial, Helvetica, sans-serif;">9.0k</text></g></g></g><g transform="translate(0, 145.0)"><rect x="176.0" y="2" width="248.0" height="38" rx="5" ry="5" fill="#94a3b8" fill-opacity="0.05" stroke="#94a3b8" stroke-opacity="0.2" stroke-width="1"></rect><text x="300.0" y="16" text-anchor="middle" style="font-family: Arial,Helvetica, sans-serif; fill: #f8fafc; font-size:12px; font-weight: 500;">Legend</text> <g class="legend-item"><rect x="196.0" y="22" width="10" height="10" rx="2" ry="2" fill="url(#Q1)" class="shadowed"></rect><text x="210.0" y="30" style="font-family: Arial,Helvetica, sans-serif; fill: #f8fafc; font-size:10px; dominant-baseline: central;"><tspan x="210.0" dy="0">Q1</tspan></text></g><g class="legend-item"><rect x="248.0" y="22" width="10" height="10" rx="2" ry="2" fill="url(#Q2)" class="shadowed"></rect><text x="262.0" y="30" style="font-family: Arial,Helvetica, sans-serif; fill: #f8fafc; font-size:10px; dominant-baseline: central;"><tspan x="262.0" dy="0">Q2</tspan></text></g><g class="legend-item"><rect x="300.0" y="22" width="10" height="10" rx="2" ry="2" fill="url(#Q3)" class="shadowed"></rect><text x="314.0" y="30" style="font-family: Arial,Helvetica, sans-serif; fill: #f8fafc; font-size:10px; dominant-baseline: central;"><tspan x="314.0" dy="0">Q3</tspan></text></g><g class="legend-item"><rect x="352.0" y="22" width="10" height="10" rx="2" ry="2" fill="url(#Q4)" class="shadowed"></rect><text x="366.0" y="30" style="font-family: Arial,Helvetica, sans-serif; fill: #f8fafc; font-size:10px; dominant-baseline: central;"><tspan x="366.0" dy="0">Q4</tspan></text></g></g></g></svg>