<svg width="287.9999999964" height="303.74999999620314" viewBox="0 0 512.0 540.0" xmlns="http://www.w3.org/2000/svg">
    <rect width="100%" height="100%" fill="#f8f9fa" rx="15" ry="15"></rect><defs>
    <linearGradient id="backGrad_7432b824-dc69-4cad-a275-2bcb6d9e34c3" x2="0%" y2="100%">
        <stop offset="0%" style="stop-color:#ff2c9f"></stop>
        <stop offset="50%" style="stop-color:#f72585"></stop>
        <stop offset="100%" style="stop-color:#c51d6a"></stop>
    </linearGradient>
    <linearGradient id="grad1" x2="0%" y2="100%">
        <stop class="stop1" offset="0%" stop-color="#f6f6f5"></stop>
        <stop class="stop2" offset="50%" stop-color="#f2f1f0"></stop>
        <stop class="stop3" offset="100%" stop-color="#EEEDEB"></stop>
    </linearGradient>
    <linearGradient id="linearGradient_7432b824-dc69-4cad-a275-2bcb6d9e34c3" x2="0%" y2="100%">
        <stop class="stop1" offset="0%" stop-color="#f8509d"></stop>
        <stop class="stop2" offset="50%" stop-color="#f72585"></stop>
        <stop class="stop3" offset="100%" stop-color="#f5006c"></stop>
    </linearGradient><linearGradient id="linearGradient_7432b824-dc69-4cad-a275-2bcb6d9e34c3" x2="0%" y2="100%">
    <stop class="stop1" offset="0%" stop-color="#f8509d"></stop>
    <stop class="stop2" offset="50%" stop-color="#f72585"></stop>
    <stop class="stop3" offset="100%" stop-color="#f5006c"></stop>
</linearGradient><linearGradient id="linearGradient_7432b824-dc69-4cad-a275-2bcb6d9e34c3" x2="0%" y2="100%">
    <stop class="stop1" offset="0%" stop-color="#f8509d"></stop>
    <stop class="stop2" offset="50%" stop-color="#f72585"></stop>
    <stop class="stop3" offset="100%" stop-color="#f5006c"></stop>
</linearGradient><linearGradient id="linearGradient_7432b824-dc69-4cad-a275-2bcb6d9e34c3" x2="0%" y2="100%">
    <stop class="stop1" offset="0%" stop-color="#f8509d"></stop>
    <stop class="stop2" offset="50%" stop-color="#f72585"></stop>
    <stop class="stop3" offset="100%" stop-color="#f5006c"></stop>
</linearGradient>

    <!-- Drop shadow filter for bars -->
    <filter id="dropShadow" x="-20%" y="-20%" width="140%" height="140%">
        <feGaussianBlur in="SourceAlpha" stdDeviation="3" result="blur"></feGaussianBlur>
        <feOffset in="blur" dx="3" dy="3" result="offsetBlur"></feOffset>
        <feComponentTransfer in="offsetBlur" result="shadow">
            <feFuncA type="linear" slope="0.3"></feFuncA>
        </feComponentTransfer>
        <feMerge>
            <feMergeNode in="shadow"></feMergeNode>
            <feMergeNode in="SourceGraphic"></feMergeNode>
        </feMerge>
    </filter>

    <!-- Glow filter for hover effect -->
    <filter id="glow" x="-20%" y="-20%" width="140%" height="140%">
        <feGaussianBlur in="SourceGraphic" stdDeviation="5" result="blur"></feGaussianBlur>
        <feColorMatrix in="blur" type="matrix" values="
                            1 0 0 0 0
                            0 1 0 0 0
                            0 0 1 0 0
                            0 0 0 18 -7
                        " result="glow"></feColorMatrix>
        <feMerge>
            <feMergeNode in="glow"></feMergeNode>
            <feMergeNode in="SourceGraphic"></feMergeNode>
        </feMerge>
    </filter>

    <style>
        .bar {
            transition: all 0.3s ease;
        }
        .bar:hover {
            filter: url(#glow);
            transform: scale(1.05);
            cursor: pointer;
        }
        .chart-title {
            font-family: Arial, sans-serif;
            font-size: 24px;
            font-weight: bold;
        }
        .axis-label {
            font-family: Arial, sans-serif;
            font-size: 14px;
            fill: #666;
        }
        .tick-label {
            font-family: Arial, sans-serif;
            font-size: 12px;
            fill: #666;
        }
    </style>
</defs><line x1="30" y1="108" x2="512" y2="108" stroke="#eee" stroke-width="1" stroke-dasharray="5,5"></line><line x1="30" y1="216" x2="512" y2="216" stroke="#eee" stroke-width="1" stroke-dasharray="5,5"></line><line x1="30" y1="324" x2="512" y2="324" stroke="#eee" stroke-width="1" stroke-dasharray="5,5"></line><line x1="30" y1="432" x2="512" y2="432" stroke="#eee" stroke-width="1" stroke-dasharray="5,5"></line><line x1="102" y1="12" x2="102" y2="500" stroke="#eee" stroke-width="1" stroke-dasharray="5,5"></line><line x1="204" y1="12" x2="204" y2="500" stroke="#eee" stroke-width="1" stroke-dasharray="5,5"></line><line x1="306" y1="12" x2="306" y2="500" stroke="#eee" stroke-width="1" stroke-dasharray="5,5"></line><line x1="408" y1="12" x2="408" y2="500" stroke="#eee" stroke-width="1" stroke-dasharray="5,5"></line><line x1="30" x2="512" y1="500" y2="500" stroke="#666" stroke-width="2"></line>
    <line x1="30" x2="30" y1="12" y2="501" stroke="#666" stroke-width="2"></line><g transform="translate(0,0)">
    <g transform="translate(20,500) rotate(-90) "><g transform="translate(1,162)">
        <path class="bar" d="M 0,6 a 20,6 0,0,0 40 0 a 20,6 0,0,0 -40 0 l 0,300.0 a 20,6 0,0,0 40 0 l 0,-300.0" fill="url(#linearGradient_7432b824-dc69-4cad-a275-2bcb6d9e34c3)" transform="translate(0,35) rotate(-90)" style="background: conic-gradient(#655 40%, yellowgreen 0);">
            <animate attributeName="height" from="0" to="300.0" dur="1s" fill="freeze"></animate>
        </path>

        <text x="296.0" y="18" style="font-family: Arial,Helvetica, sans-serif; fill: #FCFCFC; font-size:11px; font-weight: bold;" text-anchor="end">320</text>
        <text x="10" y="19" style="font-family: Arial,Helvetica, sans-serif; fill: #FCFCFC; font-size:12px; text-anchor: start;">Q1</text>
    </g><g transform="translate(1,206)">
        <path class="bar" d="M 0,6 a 20,6 0,0,0 40 0 a 20,6 0,0,0 -40 0 l 0,450.0 a 20,6 0,0,0 40 0 l 0,-450.0" fill="url(#linearGradient_7432b824-dc69-4cad-a275-2bcb6d9e34c3)" transform="translate(0,35) rotate(-90)" style="background: conic-gradient(#655 40%, yellowgreen 0);">
            <animate attributeName="height" from="0" to="450.0" dur="1s" fill="freeze"></animate>
        </path>

        <text x="446.0" y="18" style="font-family: Arial,Helvetica, sans-serif; fill: #FCFCFC; font-size:11px; font-weight: bold;" text-anchor="end">480</text>
        <text x="10" y="19" style="font-family: Arial,Helvetica, sans-serif; fill: #FCFCFC; font-size:12px; text-anchor: start;">Q2</text>
    </g><g transform="translate(1,250)">
        <path class="bar" d="M 0,6 a 20,6 0,0,0 40 0 a 20,6 0,0,0 -40 0 l 0,271.875 a 20,6 0,0,0 40 0 l 0,-271.875" fill="url(#linearGradient_7432b824-dc69-4cad-a275-2bcb6d9e34c3)" transform="translate(0,35) rotate(-90)" style="background: conic-gradient(#655 40%, yellowgreen 0);">
            <animate attributeName="height" from="0" to="271.875" dur="1s" fill="freeze"></animate>
        </path>

        <text x="267.875" y="18" style="font-family: Arial,Helvetica, sans-serif; fill: #FCFCFC; font-size:11px; font-weight: bold;" text-anchor="end">290</text>
        <text x="10" y="19" style="font-family: Arial,Helvetica, sans-serif; fill: #FCFCFC; font-size:12px; text-anchor: start;">Q3</text>
    </g><g transform="translate(1,294)">
        <path class="bar" d="M 0,6 a 20,6 0,0,0 40 0 a 20,6 0,0,0 -40 0 l 0,384.375 a 20,6 0,0,0 40 0 l 0,-384.375" fill="url(#linearGradient_7432b824-dc69-4cad-a275-2bcb6d9e34c3)" transform="translate(0,35) rotate(-90)" style="background: conic-gradient(#655 40%, yellowgreen 0);">
            <animate attributeName="height" from="0" to="384.375" dur="1s" fill="freeze"></animate>
        </path>

        <text x="380.375" y="18" style="font-family: Arial,Helvetica, sans-serif; fill: #FCFCFC; font-size:11px; font-weight: bold;" text-anchor="end">410</text>
        <text x="10" y="19" style="font-family: Arial,Helvetica, sans-serif; fill: #FCFCFC; font-size:12px; text-anchor: start;">Q4</text>
    </g>
    </g>
</g>
    <text x="250" y="-10" style="font-family: Arial,Helvetica, sans-serif; font-size:10px; fill:#FCFCFC;text-anchor: middle;" transform="rotate(90)">Revenue ($)</text>
    <text x="256" y="520" style="font-family: Arial,Helvetica, sans-serif; font-size:10px; fill: #FCFCFC;text-anchor: middle;">Quarter</text>

    <g>
        <rect x="106" y="10" width="300" height="40" rx="10" ry="10" fill="#f0f0f0" opacity="0.7"></rect>
        <text x="256" y="38" style="font-family: Arial,Helvetica, sans-serif; fill: #333; text-anchor: middle; font-size: 24px; font-weight: bold; -webkit-filter: drop-shadow(2px 2px 1px rgba(0, 0, 0, .2)); filter: drop-shadow(2px 2px 1px rgba(0, 0, 0, .2));">Quarterly Performance</text>
    </g>
    <text x="15" y="250" text-anchor="middle" transform="rotate(-90, 15, 250)" style="font-family: Arial, sans-serif; fill: #666; font-size: 14px; font-weight: bold;">Revenue ($)</text><line x1="24" x2="30" y1="256.25" y2="256.25" stroke="#666" stroke-width="2"></line>
    <text x="20" y="260.25" text-anchor="end" style="font-family: Arial, sans-serif; fill: #666; font-size: 12px; font-weight: 500;">260</text><line x1="24" x2="30" y1="237.5" y2="237.5" stroke="#666" stroke-width="2"></line>
    <text x="20" y="241.5" text-anchor="end" style="font-family: Arial, sans-serif; fill: #666; font-size: 12px; font-weight: 500;">280</text><line x1="24" x2="30" y1="218.75" y2="218.75" stroke="#666" stroke-width="2"></line>
    <text x="20" y="222.75" text-anchor="end" style="font-family: Arial, sans-serif; fill: #666; font-size: 12px; font-weight: 500;">300</text><line x1="24" x2="30" y1="200.0" y2="200.0" stroke="#666" stroke-width="2"></line>
    <text x="20" y="204.0" text-anchor="end" style="font-family: Arial, sans-serif; fill: #666; font-size: 12px; font-weight: 500;">320</text><line x1="24" x2="30" y1="181.25" y2="181.25" stroke="#666" stroke-width="2"></line>
    <text x="20" y="185.25" text-anchor="end" style="font-family: Arial, sans-serif; fill: #666; font-size: 12px; font-weight: 500;">340</text><line x1="24" x2="30" y1="162.5" y2="162.5" stroke="#666" stroke-width="2"></line>
    <text x="20" y="166.5" text-anchor="end" style="font-family: Arial, sans-serif; fill: #666; font-size: 12px; font-weight: 500;">360</text><line x1="24" x2="30" y1="143.75" y2="143.75" stroke="#666" stroke-width="2"></line>
    <text x="20" y="147.75" text-anchor="end" style="font-family: Arial, sans-serif; fill: #666; font-size: 12px; font-weight: 500;">380</text><line x1="24" x2="30" y1="125.0" y2="125.0" stroke="#666" stroke-width="2"></line>
    <text x="20" y="129.0" text-anchor="end" style="font-family: Arial, sans-serif; fill: #666; font-size: 12px; font-weight: 500;">400</text><line x1="24" x2="30" y1="106.25" y2="106.25" stroke="#666" stroke-width="2"></line>
    <text x="20" y="110.25" text-anchor="end" style="font-family: Arial, sans-serif; fill: #666; font-size: 12px; font-weight: 500;">420</text><line x1="24" x2="30" y1="87.5" y2="87.5" stroke="#666" stroke-width="2"></line>
    <text x="20" y="91.5" text-anchor="end" style="font-family: Arial, sans-serif; fill: #666; font-size: 12px; font-weight: 500;">440</text><text x="256" y="530" text-anchor="middle" style="font-family: Arial, sans-serif; fill: #666; font-size: 14px; font-weight: bold;">Quarter</text></svg>