<?xml version="1.0" encoding="UTF-8"?>
<!-- Generated by Pixelmator Pro 3.4.3 -->
<svg xmlns="http://www.w3.org/2000/svg" width="850" height="350" id="087b6d92-3faa-45af-82af-a3e51dc31510">

    <defs>
        <filter id="shadow">
            <feOffset result="offOut" in="SourceAlpha" dx="2" dy="2" />
            <feColorMatrix result="matrixOut" in="offOut" type="matrix"
                           values="
    0.49 0 0 0 0
    0 0.49 0 0 0
    0 0 0.49 0 0
    0 0 0 0.5 0" />
            <feGaussianBlur result="blurOut" in="matrixOut" stdDeviation="0" />
            <feBlend in="SourceGraphic" in2="blurOut" mode="normal" />
        </filter>
    </defs>
    <g transform="translate(0,0)">

        <g transform="translate(10,10)">
            <path d="M 0 12.0 A 12.0 12.0 0 0 1 12.0 0 L 188.0 0 A 12.0 12.0 0 0 1 200.0 12.0 L 200.0 300.0 A 0.0 0.0 0 0 1 200.0 300.0 L 0.0 300.0 A 0.0 0.0 0 0 1 0 300.0 Z"
                  fill="#fcfcfc" stroke="#912BBC" stroke-width="3" style="fill: #fcfcfc; "/>
        </g>
        <g transform="translate(0,30)">
            <path d="M10 10 H 150 Q 190 10 190 50 Q 190 90 150 90 H 10 Z" fill="#912BBC" />
            <text x="50" y="60" style="font-family: Arial, Helvetica, sans-serif; fill: #fcfcfc; font-size:24px;">
                Finance
            </text>
        </g>
        <text x="100" y="155" text-anchor="middle" style="font-family: Arial, Helvetica, sans-serif; fill: #912BBC; font-size:14px;">
            <tspan x="100" dy="14">Evaluating</tspan>
            <tspan x="100" dy="14">financial</tspan>
            <tspan x="100" dy="14">performance</tspan>
            <tspan x="100" dy="14">and outcome.</tspan>
        </text>
    </g>
    <g>
        <rect height="20" width="200" x="10" y="315" style="fill: #912BBC; filter:url(#shadow);"/>
    </g>
    <g transform="translate(210,0)">
        <g transform="translate(10,10)">
            <path d="M 0 12.0 A 12.0 12.0 0 0 1 12.0 0 L 188.0 0 A 12.0 12.0 0 0 1 200.0 12.0 L 200.0 300.0 A 0.0 0.0 0 0 1 200.0 300.0 L 0.0 300.0 A 0.0 0.0 0 0 1 0 300.0 Z"
                  fill="#fcfcfc" stroke="#FF5BAE" stroke-width="3" style="fill: #fcfcfc; "/>
        </g>
         <g transform="translate(0,30)">
            <path d="M10 10 H 150 Q 190 10 190 50 Q 190 90 150 90 H 10 Z" fill="#FF5BAE"/>
            <text x="50" y="60" style="font-family: Arial, Helvetica, sans-serif; fill: #fcfcfc; font-size:24px;">
                Customers
            </text>
        </g>
        <text x="100" y="155" text-anchor="middle" style="font-family: Arial, Helvetica, sans-serif; fill: #FF5BAE; font-size:14px;">
            <tspan x="100" dy="14">Assessing</tspan>
            <tspan x="100" dy="14">customer</tspan>
            <tspan x="100" dy="14">satisfaction,</tspan>
            <tspan x="100" dy="14">loyalty, and value</tspan>
            <tspan x="100" dy="14">creation</tspan>
        </text>
    </g>
    <g>
        <rect height="20" width="200" x="220" y="315" style="fill: #FF5BAE; filter:url(#shadow);"/>
    </g>
    <g transform="translate(420,0)">
        <g transform="translate(10,10)">
            <path d="M 0 12.0 A 12.0 12.0 0 0 1 12.0 0 L 188.0 0 A 12.0 12.0 0 0 1 200.0 12.0 L 200.0 300.0 A 0.0 0.0 0 0 1 200.0 300.0 L 0.0 300.0 A 0.0 0.0 0 0 1 0 300.0 Z"
                  fill="#fcfcfc" stroke="#2C7865" stroke-width="3" style="fill: #fcfcfc; "/>
        </g>

        <g transform="translate(0,30)">
            <path d="M10 10 H 150 Q 190 10 190 50 Q 190 90 150 90 H 10 Z" fill="#2C7865"/>
            <text x="50" y="60" style="font-family: Arial, Helvetica, sans-serif; fill: #fcfcfc; font-size:24px;">
                Processes
            </text>
        </g>
        <text x="100" y="155" text-anchor="middle" style="font-family: Arial, Helvetica, sans-serif; fill: #2C7865; font-size:14px;">
            <tspan x="100" dy="14">Focusing on key</tspan>
            <tspan x="100" dy="14">internal</tspan>
            <tspan x="100" dy="14">processes, and</tspan>
            <tspan x="100" dy="14">operational</tspan>
            <tspan x="100" dy="14">efficiency.</tspan>
        </text>
    </g>
    <g>
        <rect height="20" width="200" x="430" y="315" style="fill: #2C7865; filter:url(#shadow);"/>
    </g>
    <g transform="translate(630,0)">
        <g transform="translate(10,10)">
            <path d="M 0 12.0 A 12.0 12.0 0 0 1 12.0 0 L 188.0 0 A 12.0 12.0 0 0 1 200.0 12.0 L 200.0 300.0 A 0.0 0.0 0 0 1 200.0 300.0 L 0.0 300.0 A 0.0 0.0 0 0 1 0 300.0 Z"
                  fill="#fcfcfc" stroke="#E72929" stroke-width="3" style="fill: #fcfcfc; "/>
        </g>
        <g transform="translate(0,30)">
            <path d="M10 10 H 150 Q 190 10 190 50 Q 190 90 150 90 H 10 Z" fill="#E72929"/>
            <text x="50" y="60" style="font-family: Arial, Helvetica, sans-serif; fill: #fcfcfc; font-size:24px;">
                Potential
            </text>
        </g>
        <text x="100" y="155" text-anchor="middle" style="font-family: Arial, Helvetica, sans-serif; fill: #E72929; font-size:14px;">
            <tspan x="100" dy="14">Monitoring</tspan>
            <tspan x="100" dy="14">employee</tspan>
            <tspan x="100" dy="14">skills,</tspan>
            <tspan x="100" dy="14">knowledge, and </tspan>
            <tspan x="100" dy="14">organizational</tspan>
            <tspan x="100" dy="14">capabilities.</tspan>
        </text>
    </g>
    <g>
        <rect height="20" width="200" x="640" y="315" style="fill: #E72929; filter:url(#shadow);"/>
    </g>
</svg>