<svg width="512" height="540" viewBox="0 0 512 540" xmlns="http://www.w3.org/2000/svg">
    <defs>
        <linearGradient id="linearGradient_9c35099e-e6c9-481d-ba82-0c10665522f1" x2="0%" y2="100%">
            <stop class="stop1" offset="0%" stop-color="#afdeff"></stop>
            <stop class="stop2" offset="50%" stop-color="#87cdff"></stop>
            <stop class="stop3" offset="100%" stop-color="#5FBDFF"></stop>
        </linearGradient>
        <linearGradient id="linearGradient_a33a68a2-eb55-4c5b-a3d0-938f1f0fb8df" x2="0%" y2="100%">
            <stop class="stop1" offset="0%" stop-color="#e088c8"></stop>
            <stop class="stop2" offset="50%" stop-color="#d14dad"></stop>
            <stop class="stop3" offset="100%" stop-color="#C21292"></stop>
        </linearGradient>
        <linearGradient id="linearGradient_a33a68a2-eb55-4c5b-a3d0-938f1f0fb8df" x2="0%" y2="100%">
            <stop class="stop1" offset="0%" stop-color="#e088c8"></stop>
            <stop class="stop2" offset="50%" stop-color="#d14dad"></stop>
            <stop class="stop3" offset="100%" stop-color="#C21292"></stop>
        </linearGradient>
        <linearGradient id="linearGradient_a33a68a2-eb55-4c5b-a3d0-938f1f0fb8df" x2="0%" y2="100%">
            <stop class="stop1" offset="0%" stop-color="#e088c8"></stop>
            <stop class="stop2" offset="50%" stop-color="#d14dad"></stop>
            <stop class="stop3" offset="100%" stop-color="#C21292"></stop>
        </linearGradient>
        <linearGradient id="linearGradient_a33a68a2-eb55-4c5b-a3d0-938f1f0fb8df" x2="0%" y2="100%">
            <stop class="stop1" offset="0%" stop-color="#e088c8"></stop>
            <stop class="stop2" offset="50%" stop-color="#d14dad"></stop>
            <stop class="stop3" offset="100%" stop-color="#C21292"></stop>
        </linearGradient>
        <pattern id="tenthGrid" width="10" height="10" patternUnits="userSpaceOnUse">
            <path d="M 10 0 L 0 0 0 10" fill="none" stroke="silver" stroke-width="0.5"></path>
        </pattern>
        <pattern id="grid" width="100" height="100" patternUnits="userSpaceOnUse">
            <rect width="100" height="100" fill="url(#tenthGrid)"></rect>
            <path d="M 100 0 L 0 0 0 100" fill="none" stroke="gray" stroke-width="1"></path>
        </pattern>
        <filter id="Bevel" filterUnits="objectBoundingBox" x="-10%" y="-10%" width="150%" height="150%">
            <feGaussianBlur in="SourceAlpha" stdDeviation="3" result="blur"></feGaussianBlur>
            <feSpecularLighting in="blur" surfaceScale="5" specularConstant="0.5" specularExponent="10" result="specOut"
                                lighting-color="white">
                <fePointLight x="-5000" y="-10000" z="20000"></fePointLight>
            </feSpecularLighting>
            <feComposite in="specOut" in2="SourceAlpha" operator="in" result="specOut2"></feComposite>
            <feComposite in="SourceGraphic" in2="specOut2" operator="arithmetic" k1="0" k2="1" k3="1" k4="0"
                         result="litPaint"></feComposite>
        </filter>
        <filter id="Bevel3" filterUnits="objectBoundingBox" x="-10%" y="-10%" width="150%" height="150%">
            <feGaussianBlur in="SourceAlpha" stdDeviation="0.2" result="blur"></feGaussianBlur>
            <feSpecularLighting in="blur" surfaceScale="10" specularConstant="3.5" specularExponent="10"
                                result="specOut" lighting-color="#ffffff">
                <fePointLight x="-5000" y="-10000" z="0000"></fePointLight>
            </feSpecularLighting>
            <feComposite in="specOut" in2="SourceAlpha" operator="in" result="specOut2"></feComposite>
            <feComposite in="SourceGraphic" in2="specOut2" operator="arithmetic" k1="0" k2="1" k3="1" k4="0"
                         result="litPaint"></feComposite>
        </filter>
        <style>
            .bar:hover {
                filter: grayscale(100%) sepia(100%);
            }
        </style>
    </defs>
    <rect width="512" height="540" fill="url(#grid)"></rect>
    <g transform="translate(0,0)">
        <g transform="translate(20,500) rotate(-90) ">
            <g transform="translate(20,106)">
                <path class="bar"
                      d="M 0,6 a 20,6 0,0,0 40 0 a 20,6 0,0,0 -40 0 l 0,107.789474 a 20,6 0,0,0 40 0 l 0,-107.789474"
                      fill="url(#linearGradient_a33a68a2-eb55-4c5b-a3d0-938f1f0fb8df)"
                      transform="translate(0,35) rotate(-90)"
                      style="background: conic-gradient(#655 40%, yellowgreen 0);"></path>
                <text x="107.789474" y="18"
                      style="font-family: Arial,Helvetica, sans-serif; fill: #fcfcfc; font-size:9px;" text-anchor="end">
                    4
                </text>
                <text x="15" y="12" transform="rotate(90)"
                      style="font-family: Arial,Helvetica, sans-serif; fill: #111111; font-size:10px; text-anchor: middle;">
                    Comedy
                </text>
            </g>
            <g transform="translate(20,166)">
                <path class="bar"
                      d="M 0,6 a 20,6 0,0,0 40 0 a 20,6 0,0,0 -40 0 l 0,107.789474 a 20,6 0,0,0 40 0 l 0,-107.789474"
                      fill="url(#linearGradient_a33a68a2-eb55-4c5b-a3d0-938f1f0fb8df)"
                      transform="translate(0,35) rotate(-90)"
                      style="background: conic-gradient(#655 40%, yellowgreen 0);"></path>
                <text x="107.789474" y="18"
                      style="font-family: Arial,Helvetica, sans-serif; fill: #fcfcfc; font-size:9px;" text-anchor="end">
                    4
                </text>
                <text x="15" y="12" transform="rotate(90)"
                      style="font-family: Arial,Helvetica, sans-serif; fill: #111111; font-size:10px; text-anchor: middle;">
                    Action
                </text>
            </g>
            <g transform="translate(20,226)">
                <path class="bar"
                      d="M 0,6 a 20,6 0,0,0 40 0 a 20,6 0,0,0 -40 0 l 0,161.6842 a 20,6 0,0,0 40 0 l 0,-161.6842"
                      fill="url(#linearGradient_a33a68a2-eb55-4c5b-a3d0-938f1f0fb8df)"
                      transform="translate(0,35) rotate(-90)"
                      style="background: conic-gradient(#655 40%, yellowgreen 0);"></path>
                <text x="161.6842" y="18"
                      style="font-family: Arial,Helvetica, sans-serif; fill: #fcfcfc; font-size:9px;" text-anchor="end">
                    6
                </text>
                <text x="15" y="12" transform="rotate(90)"
                      style="font-family: Arial,Helvetica, sans-serif; fill: #111111; font-size:10px; text-anchor: middle;">
                    Romance
                </text>
            </g>
            <g transform="translate(20,286)">
                <path class="bar"
                      d="M 0,6 a 20,6 0,0,0 40 0 a 20,6 0,0,0 -40 0 l 0,26.947369 a 20,6 0,0,0 40 0 l 0,-26.947369"
                      fill="url(#linearGradient_a33a68a2-eb55-4c5b-a3d0-938f1f0fb8df)"
                      transform="translate(0,35) rotate(-90)"
                      style="background: conic-gradient(#655 40%, yellowgreen 0);"></path>
                <text x="26.947369" y="18"
                      style="font-family: Arial,Helvetica, sans-serif; fill: #fcfcfc; font-size:9px;" text-anchor="end">
                    1
                </text>
                <text x="15" y="12" transform="rotate(90)"
                      style="font-family: Arial,Helvetica, sans-serif; fill: #111111; font-size:10px; text-anchor: middle;">
                    Drama
                </text>
            </g>
            <g transform="translate(20,346)">
                <path class="bar"
                      d="M 0,6 a 20,6 0,0,0 40 0 a 20,6 0,0,0 -40 0 l 0,107.789474 a 20,6 0,0,0 40 0 l 0,-107.789474"
                      fill="url(#linearGradient_a33a68a2-eb55-4c5b-a3d0-938f1f0fb8df)"
                      transform="translate(0,35) rotate(-90)"
                      style="background: conic-gradient(#655 40%, yellowgreen 0);"></path>
                <text x="107.789474" y="18"
                      style="font-family: Arial,Helvetica, sans-serif; fill: #fcfcfc; font-size:9px;" text-anchor="end">
                    4
                </text>
                <text x="15" y="12" transform="rotate(90)"
                      style="font-family: Arial,Helvetica, sans-serif; fill: #111111; font-size:10px; text-anchor: middle;">
                    SciFi
                </text>
            </g>
        </g>
        <text x="-300" y="10" style="font-family: Arial,Helvetica, sans-serif; fill: #111111;text-anchor: middle;"
              transform="translate(91, 10) rotate(-90)">People
        </text>
        <text x="220" y="520" style="font-family: Arial,Helvetica, sans-serif; fill: #111111;text-anchor: middle;">Movie
            Type
        </text>
    </g>
    <text x="256" y="24"
          style="font-family: Arial,Helvetica, sans-serif; fill: #111111;text-anchor: middle; font-size: 24px;">Favortie
        Type of Movies
    </text>
</svg>