<?xml version="1.0" encoding="UTF-8"?>
<svg width="512" height="540" viewBox="0 0 512 540" xmlns="http://www.w3.org/2000/svg">
    <defs>

        <linearGradient id="linearGradient6" x2="0%" y2="100%">
            <stop class="stop1" offset="0%" stop-color="#febc9a"/>
            <stop class="stop2" offset="50%" stop-color="#fe9b68"/>
            <stop class="stop3" offset="100%" stop-color="#FE7A36"/>
        </linearGradient>
        <pattern id="tenthGrid" width="10" height="10" patternUnits="userSpaceOnUse">
            <path d="M 10 0 L 0 0 0 10" fill="none" stroke="silver" stroke-width="0.5"/>
        </pattern>
        <pattern id="grid" width="100" height="100" patternUnits="userSpaceOnUse">
            <rect width="100" height="100" fill="url(#tenthGrid)"/>
            <path d="M 100 0 L 0 0 0 100" fill="none" stroke="gray" stroke-width="1"/>
        </pattern>
        <filter id="Bevel" filterUnits="objectBoundingBox" x="-10%" y="-10%" width="150%" height="150%">
            <feGaussianBlur in="SourceAlpha" stdDeviation="3" result="blur"/>
            <feSpecularLighting in="blur" surfaceScale="5" specularConstant="0.5" specularExponent="10"
                                result="specOut" lighting-color="white">
                <fePointLight x="-5000" y="-10000" z="20000"/>
            </feSpecularLighting>
            <feComposite in="specOut" in2="SourceAlpha" operator="in" result="specOut2"/>
            <feComposite in="SourceGraphic" in2="specOut2" operator="arithmetic" k1="0" k2="1" k3="1" k4="0"
                         result="litPaint"/>
        </filter>
        <filter id="Bevel3" filterUnits="objectBoundingBox" x="-10%" y="-10%" width="150%" height="150%">
            <feGaussianBlur in="SourceAlpha" stdDeviation="0.2" result="blur"/>
            <feSpecularLighting in="blur" surfaceScale="10" specularConstant="3.5" specularExponent="10"
                                result="specOut" lighting-color="#ffffff">
                <fePointLight x="-5000" y="-10000" z="0000"/>
            </feSpecularLighting>
            <feComposite in="specOut" in2="SourceAlpha" operator="in" result="specOut2"/>
            <feComposite in="SourceGraphic" in2="specOut2" operator="arithmetic" k1="0" k2="1" k3="1" k4="0"
                         result="litPaint"/>
        </filter>
        <style>
            .bar:hover {
                filter: grayscale(100%) sepia(100%);
            }
        </style>
    </defs>
    <rect width="100%" height="100%" fill="url(#grid)"/>
    <g transform="translate(56,0) ">
        <g transform="translate(20,500) rotate(-90) ">
            <g transform="translate(20,20)">

                <path class="bar" d="M 0,6 a 20,6 0,0,0 40 0 a 20,6 0,0,0 -40 0 l 0,247.90169943749474 a 20,6 0,0,0 40 0 l 0,-247.90169943749474"
                      fill="url(#linearGradient6)" transform="translate(0,35) rotate(-90)"
                      style="background: conic-gradient(#655 40%, yellowgreen 0); hover: fill:red; cursor: pointer;" />
                <text x="247" y="22" style="font-family: Arial,Helvetica, sans-serif; fill: #111111;" text-anchor="end">
                    200
                </text>
                <text x="15" y="12" transform="rotate(90)"
                      style="font-family: Arial,Helvetica, sans-serif; fill: #111111; font-size:10px; text-anchor: middle;">
                    January
                </text>
            </g>
            <g transform="translate(20,80)">
                <path class="bar" d="M 0,6 a 20,6 0,0,0 40 0 a 20,6 0,0,0 -40 0 l 0,111.10065241883679 a 20,6 0,0,0 40 0 l 0,-111.10065241883679"
                      fill="url(#linearGradient6)" transform="translate(0,35) rotate(-90)" stroke-width="3"/>
                <text x="111" y="22" style="font-family: Arial,Helvetica, sans-serif; fill: #111111;" text-anchor="end">
                    90
                </text>
                <text x="15" y="12" transform="rotate(90)"
                      style="font-family: Arial,Helvetica, sans-serif; fill: #111111; font-size:10px;text-anchor: middle;">
                    February
                </text>
            </g>
            <g transform="translate(20,140)">
                <path d="M 0,6 a 20,6 0,0,0 40 0 a 20,6 0,0,0 -40 0 l 0,148.10065241883679 a 20,6 0,0,0 40 0 l 0,-148.10065241883679"
                      fill="url(#linearGradient6)" transform="translate(0,35) rotate(-90)" stroke-width="3"/>
                <text x="148" y="22" style="font-family: Arial,Helvetica, sans-serif; fill: #111111; text-anchor: end;">
                    120
                </text>
                <text x="15" y="12" transform="rotate(90)"
                      style="font-family: Arial,Helvetica, sans-serif; fill: #111111; font-size:10px;text-anchor: middle;">
                    March
                </text>
            </g>
            <g transform="translate(20,200)">
                <path d="M 0,6 a 20,6 0,0,0 40 0 a 20,6 0,0,0 -40 0 l 0,385.10065241883679 a 20,6 0,0,0 40 0 l 0,-385.10065241883679"
                      fill="url(#linearGradient6)" transform="translate(0,35) rotate(-90)" stroke-width="3"/>
                <text x="385" y="22" style="font-family: Arial,Helvetica, sans-serif; fill: #111111;text-anchor: end;">
                    311
                </text>
                <text x="15" y="12" transform="rotate(90)"
                      style="font-family: Arial,Helvetica, sans-serif; fill: #111111; font-size:10px;text-anchor: middle;">
                    April
                </text>
            </g>

            <g transform="translate(20,260)">
                <path d="M 0,6 a 20,6 0,0,0 40 0 a 20,6 0,0,0 -40 0 l 0,107.10065241883679 a 20,6 0,0,0 40 0 l 0,-107.10065241883679"
                      fill="url(#linearGradient6)" transform="translate(0,35) rotate(-90)" stroke-width="3"/>
                <text x="107" y="22" style="font-family: Arial,Helvetica, sans-serif; fill: #111111;text-anchor: end;">
                    87
                </text>
                <text x="15" y="12" transform="rotate(90)"
                      style="font-family: Arial,Helvetica, sans-serif; fill: #111111; font-size:10px;text-anchor: middle;">
                    May
                </text>
            </g>
            <g transform="translate(20,320)">
                <path d="M 0,6 a 20,6 0,0,0 40 0 a 20,6 0,0,0 -40 0 l 0,367.10065241883679 a 20,6 0,0,0 40 0 l 0,-367.10065241883679"
                      fill="url(#linearGradient6)" transform="translate(0,35) rotate(-90)" stroke-width="3"
                      filter="url(#Bevel3)"/>
                <text x="367" y="22" style="font-family: Arial,Helvetica, sans-serif; fill: #111111;text-anchor: end;">
                    412
                </text>
                <text x="15" y="12" transform="rotate(90)"
                      style="font-family: Arial,Helvetica, sans-serif; fill: #111111; font-size:10px;text-anchor: middle;">
                    June
                </text>
            </g>
        </g>
        <text x="-300" y="10" style="font-family: Arial,Helvetica, sans-serif; fill: #111111;text-anchor: middle;"
              transform="translate(10,35) rotate(-90)">Number Of Berries
        </text>
        <text x="220" y="520" style="font-family: Arial,Helvetica, sans-serif; fill: #111111;text-anchor: middle;">
            Months
        </text>
    </g>
    <text x="256" y="24"
          style="font-family: Arial,Helvetica, sans-serif; fill: #111111;text-anchor: middle; font-size: 24px;">Berry
        Picking by Month 2024
    </text>

</svg>