<svg xmlns="http://www.w3.org/2000/svg" width="1068.7499999866407" height="525.3749999934329" viewBox="0 0 1900.0 934.0" xmlns:xlink="http://www.w3.org/1999/xlink" id="diag_a0b46ac6-9cff-4369-b50a-00ce6cf96a98" preserveAspectRatio="xMidYMid meet"><defs>
 <polygon id="ppoint" points="0,5 1.6666666666666667,2.5 0,0 5,2.5" stroke-width="2" />
 <rect id="bbox" class="shadowed"  width="250" height="90" ry="16" rx="16"  />
 <path id="hconnector" d="M260,50.0 h34" stroke-width="2" stroke-linecap="round" stroke-linejoin="round"/>
 <path id="vconnector" d="M135,100 v34" stroke-width="2" stroke-linecap="round" stroke-linejoin="round"/>
</defs><rect width="100%" height="100%" fill="none"/><rect width="100%" height="100%" fill="#111827"/><rect width="100%" height="100%" fill="url(#dotPattern)" /><g transform="translate(100,40)"><g transform="translate(0,0)"><g class="module-card" style="animation: slideIn 0.5s ease-out 0.0s both;">
    <!-- The "Module" Base with hard shadow -->
    <rect x="0" y="0" width="260" height="100" fill="white" stroke="#000000" stroke-width="3" filter="url(#brutalistShadow)" />

    <!-- Color Header/Accent Area -->
    <rect x="0" y="0" width="260" height="12" fill="#E14D2A" stroke="#000000" stroke-width="3" />

    <!-- Decorative corner notch -->
    <path d="M 240 100 L 260 80 L 260 100 Z" fill="#000000" />

    <!-- Identifier Tab -->
    <rect x="220" y="12" width="40" height="25" fill="#000000" />
    <text x="240" y="30" fill="white" text-anchor="middle" style="font-family: 'Outfit', sans-serif; font-size: 14px; font-weight: 800;">A</text>

    <text x="25" y="48" fill="#111827" style="font-family: 'Outfit', sans-serif; font-size: 16px; font-weight: 800; text-transform: uppercase; letter-spacing: 0.02em;"><tspan x="25" dy="0">Developer</tspan></text>

    <!-- Interactive Hover Accent Bar -->
    <rect x="0" y="94" width="0" height="6" fill="#000000" class="accent-bar" /><line x1="260" y1="50" x2="337" y2="50" stroke="#64748B" stroke-width="3" />
<g transform="translate(332,47.5)">
    <use xlink:href="#ppoint" fill="#64748B" stroke="#64748B"/>
</g></g></g><g transform="translate(340,0)"><g class="module-card" style="animation: slideIn 0.5s ease-out 0.08s both;">
    <!-- The "Module" Base with hard shadow -->
    <rect x="0" y="0" width="260" height="100" fill="white" stroke="#000000" stroke-width="3" filter="url(#brutalistShadow)" />

    <!-- Color Header/Accent Area -->
    <rect x="0" y="0" width="260" height="12" fill="#E14D2A" stroke="#000000" stroke-width="3" />

    <!-- Decorative corner notch -->
    <path d="M 240 100 L 260 80 L 260 100 Z" fill="#000000" />

    <!-- Identifier Tab -->
    <rect x="220" y="12" width="40" height="25" fill="#000000" />
    <text x="240" y="30" fill="white" text-anchor="middle" style="font-family: 'Outfit', sans-serif; font-size: 14px; font-weight: 800;">B</text>

    <text x="25" y="48" fill="#111827" style="font-family: 'Outfit', sans-serif; font-size: 16px; font-weight: 800; text-transform: uppercase; letter-spacing: 0.02em;"><tspan x="25" dy="0">Unit</tspan><tspan x="25" dy="20">Tests</tspan></text>

    <!-- Interactive Hover Accent Bar -->
    <rect x="0" y="94" width="0" height="6" fill="#000000" class="accent-bar" /><line x1="260" y1="50" x2="337" y2="50" stroke="#64748B" stroke-width="3" />
<g transform="translate(332,47.5)">
    <use xlink:href="#ppoint" fill="#64748B" stroke="#64748B"/>
</g></g></g><g transform="translate(680,0)"><g class="module-card" style="animation: slideIn 0.5s ease-out 0.16s both;">
    <!-- The "Module" Base with hard shadow -->
    <rect x="0" y="0" width="260" height="100" fill="white" stroke="#000000" stroke-width="3" filter="url(#brutalistShadow)" />

    <!-- Color Header/Accent Area -->
    <rect x="0" y="0" width="260" height="12" fill="#E14D2A" stroke="#000000" stroke-width="3" />

    <!-- Decorative corner notch -->
    <path d="M 240 100 L 260 80 L 260 100 Z" fill="#000000" />

    <!-- Identifier Tab -->
    <rect x="220" y="12" width="40" height="25" fill="#000000" />
    <text x="240" y="30" fill="white" text-anchor="middle" style="font-family: 'Outfit', sans-serif; font-size: 14px; font-weight: 800;">C</text>

    <text x="25" y="48" fill="#111827" style="font-family: 'Outfit', sans-serif; font-size: 16px; font-weight: 800; text-transform: uppercase; letter-spacing: 0.02em;"><tspan x="25" dy="0">Microsoft</tspan><tspan x="25" dy="20">Excel</tspan></text>

    <!-- Interactive Hover Accent Bar -->
    <rect x="0" y="94" width="0" height="6" fill="#000000" class="accent-bar" /><line x1="260" y1="50" x2="337" y2="50" stroke="#64748B" stroke-width="3" />
<g transform="translate(332,47.5)">
    <use xlink:href="#ppoint" fill="#64748B" stroke="#64748B"/>
</g></g></g><g transform="translate(1020,0)"><g class="module-card" style="animation: slideIn 0.5s ease-out 0.24s both;">
    <!-- The "Module" Base with hard shadow -->
    <rect x="0" y="0" width="260" height="100" fill="white" stroke="#000000" stroke-width="3" filter="url(#brutalistShadow)" />

    <!-- Color Header/Accent Area -->
    <rect x="0" y="0" width="260" height="12" fill="#E14D2A" stroke="#000000" stroke-width="3" />

    <!-- Decorative corner notch -->
    <path d="M 240 100 L 260 80 L 260 100 Z" fill="#000000" />

    <!-- Identifier Tab -->
    <rect x="220" y="12" width="40" height="25" fill="#000000" />
    <text x="240" y="30" fill="white" text-anchor="middle" style="font-family: 'Outfit', sans-serif; font-size: 14px; font-weight: 800;">D</text>

    <text x="25" y="48" fill="#111827" style="font-family: 'Outfit', sans-serif; font-size: 16px; font-weight: 800; text-transform: uppercase; letter-spacing: 0.02em;"><tspan x="25" dy="0">Test</tspan><tspan x="25" dy="20">Engine</tspan></text>

    <!-- Interactive Hover Accent Bar -->
    <rect x="0" y="94" width="0" height="6" fill="#000000" class="accent-bar" /><line x1="260" y1="50" x2="337" y2="50" stroke="#64748B" stroke-width="3" />
<g transform="translate(332,47.5)">
    <use xlink:href="#ppoint" fill="#64748B" stroke="#64748B"/>
</g></g></g><g transform="translate(1360,0)"><g class="module-card" style="animation: slideIn 0.5s ease-out 0.32s both;">
    <!-- The "Module" Base with hard shadow -->
    <rect x="0" y="0" width="260" height="100" fill="white" stroke="#000000" stroke-width="3" filter="url(#brutalistShadow)" />

    <!-- Color Header/Accent Area -->
    <rect x="0" y="0" width="260" height="12" fill="#E14D2A" stroke="#000000" stroke-width="3" />

    <!-- Decorative corner notch -->
    <path d="M 240 100 L 260 80 L 260 100 Z" fill="#000000" />

    <!-- Identifier Tab -->
    <rect x="220" y="12" width="40" height="25" fill="#000000" />
    <text x="240" y="30" fill="white" text-anchor="middle" style="font-family: 'Outfit', sans-serif; font-size: 14px; font-weight: 800;">E</text>

    <text x="25" y="48" fill="#111827" style="font-family: 'Outfit', sans-serif; font-size: 16px; font-weight: 800; text-transform: uppercase; letter-spacing: 0.02em;"><tspan x="25" dy="0">API</tspan><tspan x="25" dy="20">Documentation</tspan><tspan x="25" dy="20">Output</tspan></text>

    <!-- Interactive Hover Accent Bar -->
    <rect x="0" y="94" width="0" height="6" fill="#000000" class="accent-bar" /><g transform="translate(260,50)">
       <path d="M0,0 L60,0" stroke-width="3" stroke="#64748B" fill="none"/>
       <line x1="60" x2="60" y1="0" y2="80" stroke-width="3" stroke="#64748B" stroke-linecap="square"/>
       <line x1="60" x2="-1540" y1="80" y2="80" stroke-width="3" stroke="#64748B" stroke-linecap="square"/>
       <line x1="-1540" x2="-1540" y1="150" y2="80" stroke-width="3" stroke="#64748B" stroke-linecap="square"/>
       <line x1="-1540" x2="-1535" y1="150" y2="150" stroke-width="3" stroke="#64748B" stroke-linecap="square"/>
       <g transform="translate(-1535,147.5)">
           <use xlink:href="#ppoint" fill="#64748B" stroke="#64748B"/>
       </g>
   </g></g></g><g transform="translate(0,150)"><g class="module-card" style="animation: slideIn 0.5s ease-out 0.4s both;">
    <!-- The "Module" Base with hard shadow -->
    <rect x="0" y="0" width="260" height="100" fill="white" stroke="#000000" stroke-width="3" filter="url(#brutalistShadow)" />

    <!-- Color Header/Accent Area -->
    <rect x="0" y="0" width="260" height="12" fill="#E14D2A" stroke="#000000" stroke-width="3" />

    <!-- Decorative corner notch -->
    <path d="M 240 100 L 260 80 L 260 100 Z" fill="#000000" />

    <!-- Identifier Tab -->
    <rect x="220" y="12" width="40" height="25" fill="#000000" />
    <text x="240" y="30" fill="white" text-anchor="middle" style="font-family: 'Outfit', sans-serif; font-size: 14px; font-weight: 800;">F</text>

    <text x="25" y="48" fill="#111827" style="font-family: 'Outfit', sans-serif; font-size: 16px; font-weight: 800; text-transform: uppercase; letter-spacing: 0.02em;"><tspan x="25" dy="0">GitHub</tspan></text>

    <!-- Interactive Hover Accent Bar -->
    <rect x="0" y="94" width="0" height="6" fill="#000000" class="accent-bar" /><line x1="260" y1="50" x2="337" y2="50" stroke="#64748B" stroke-width="3" />
<g transform="translate(332,47.5)">
    <use xlink:href="#ppoint" fill="#64748B" stroke="#64748B"/>
</g></g></g><g transform="translate(340,150)"><g class="module-card" style="animation: slideIn 0.5s ease-out 0.48s both;">
    <!-- The "Module" Base with hard shadow -->
    <rect x="0" y="0" width="260" height="100" fill="white" stroke="#000000" stroke-width="3" filter="url(#brutalistShadow)" />

    <!-- Color Header/Accent Area -->
    <rect x="0" y="0" width="260" height="12" fill="#E14D2A" stroke="#000000" stroke-width="3" />

    <!-- Decorative corner notch -->
    <path d="M 240 100 L 260 80 L 260 100 Z" fill="#000000" />

    <!-- Identifier Tab -->
    <rect x="220" y="12" width="40" height="25" fill="#000000" />
    <text x="240" y="30" fill="white" text-anchor="middle" style="font-family: 'Outfit', sans-serif; font-size: 14px; font-weight: 800;">G</text>

    <text x="25" y="48" fill="#111827" style="font-family: 'Outfit', sans-serif; font-size: 16px; font-weight: 800; text-transform: uppercase; letter-spacing: 0.02em;"><tspan x="25" dy="0">Developer</tspan></text>

    <!-- Interactive Hover Accent Bar -->
    <rect x="0" y="94" width="0" height="6" fill="#000000" class="accent-bar" /><line x1="260" y1="50" x2="337" y2="50" stroke="#64748B" stroke-width="3" />
<g transform="translate(332,47.5)">
    <use xlink:href="#ppoint" fill="#64748B" stroke="#64748B"/>
</g></g></g><g transform="translate(680,150)"><g class="module-card" style="animation: slideIn 0.5s ease-out 0.56s both;">
    <!-- The "Module" Base with hard shadow -->
    <rect x="0" y="0" width="260" height="100" fill="white" stroke="#000000" stroke-width="3" filter="url(#brutalistShadow)" />

    <!-- Color Header/Accent Area -->
    <rect x="0" y="0" width="260" height="12" fill="#E14D2A" stroke="#000000" stroke-width="3" />

    <!-- Decorative corner notch -->
    <path d="M 240 100 L 260 80 L 260 100 Z" fill="#000000" />

    <!-- Identifier Tab -->
    <rect x="220" y="12" width="40" height="25" fill="#000000" />
    <text x="240" y="30" fill="white" text-anchor="middle" style="font-family: 'Outfit', sans-serif; font-size: 14px; font-weight: 800;">H</text>

    <text x="25" y="48" fill="#111827" style="font-family: 'Outfit', sans-serif; font-size: 16px; font-weight: 800; text-transform: uppercase; letter-spacing: 0.02em;"><tspan x="25" dy="0">Unit</tspan><tspan x="25" dy="20">Tests</tspan></text>

    <!-- Interactive Hover Accent Bar -->
    <rect x="0" y="94" width="0" height="6" fill="#000000" class="accent-bar" /><line x1="260" y1="50" x2="337" y2="50" stroke="#64748B" stroke-width="3" />
<g transform="translate(332,47.5)">
    <use xlink:href="#ppoint" fill="#64748B" stroke="#64748B"/>
</g></g></g><g transform="translate(1020,150)"><g class="module-card" style="animation: slideIn 0.5s ease-out 0.64s both;">
    <!-- The "Module" Base with hard shadow -->
    <rect x="0" y="0" width="260" height="100" fill="white" stroke="#000000" stroke-width="3" filter="url(#brutalistShadow)" />

    <!-- Color Header/Accent Area -->
    <rect x="0" y="0" width="260" height="12" fill="#E14D2A" stroke="#000000" stroke-width="3" />

    <!-- Decorative corner notch -->
    <path d="M 240 100 L 260 80 L 260 100 Z" fill="#000000" />

    <!-- Identifier Tab -->
    <rect x="220" y="12" width="40" height="25" fill="#000000" />
    <text x="240" y="30" fill="white" text-anchor="middle" style="font-family: 'Outfit', sans-serif; font-size: 14px; font-weight: 800;">I</text>

    <text x="25" y="48" fill="#111827" style="font-family: 'Outfit', sans-serif; font-size: 16px; font-weight: 800; text-transform: uppercase; letter-spacing: 0.02em;"><tspan x="25" dy="0">Microsoft</tspan><tspan x="25" dy="20">Excel</tspan></text>

    <!-- Interactive Hover Accent Bar -->
    <rect x="0" y="94" width="0" height="6" fill="#000000" class="accent-bar" /><line x1="260" y1="50" x2="337" y2="50" stroke="#64748B" stroke-width="3" />
<g transform="translate(332,47.5)">
    <use xlink:href="#ppoint" fill="#64748B" stroke="#64748B"/>
</g></g></g><g transform="translate(1360,150)"><g class="module-card" style="animation: slideIn 0.5s ease-out 0.72s both;">
    <!-- The "Module" Base with hard shadow -->
    <rect x="0" y="0" width="260" height="100" fill="white" stroke="#000000" stroke-width="3" filter="url(#brutalistShadow)" />

    <!-- Color Header/Accent Area -->
    <rect x="0" y="0" width="260" height="12" fill="#E14D2A" stroke="#000000" stroke-width="3" />

    <!-- Decorative corner notch -->
    <path d="M 240 100 L 260 80 L 260 100 Z" fill="#000000" />

    <!-- Identifier Tab -->
    <rect x="220" y="12" width="40" height="25" fill="#000000" />
    <text x="240" y="30" fill="white" text-anchor="middle" style="font-family: 'Outfit', sans-serif; font-size: 14px; font-weight: 800;">J</text>

    <text x="25" y="48" fill="#111827" style="font-family: 'Outfit', sans-serif; font-size: 16px; font-weight: 800; text-transform: uppercase; letter-spacing: 0.02em;"><tspan x="25" dy="0">Test</tspan><tspan x="25" dy="20">Engine</tspan></text>

    <!-- Interactive Hover Accent Bar -->
    <rect x="0" y="94" width="0" height="6" fill="#000000" class="accent-bar" /><g transform="translate(260,50)">
       <path d="M0,0 L60,0" stroke-width="3" stroke="#64748B" fill="none"/>
       <line x1="60" x2="60" y1="0" y2="80" stroke-width="3" stroke="#64748B" stroke-linecap="square"/>
       <line x1="60" x2="-1540" y1="80" y2="80" stroke-width="3" stroke="#64748B" stroke-linecap="square"/>
       <line x1="-1540" x2="-1540" y1="150" y2="80" stroke-width="3" stroke="#64748B" stroke-linecap="square"/>
       <line x1="-1540" x2="-1535" y1="150" y2="150" stroke-width="3" stroke="#64748B" stroke-linecap="square"/>
       <g transform="translate(-1535,147.5)">
           <use xlink:href="#ppoint" fill="#64748B" stroke="#64748B"/>
       </g>
   </g></g></g><g transform="translate(0,300)"><g class="module-card" style="animation: slideIn 0.5s ease-out 0.8s both;">
    <!-- The "Module" Base with hard shadow -->
    <rect x="0" y="0" width="260" height="100" fill="white" stroke="#000000" stroke-width="3" filter="url(#brutalistShadow)" />

    <!-- Color Header/Accent Area -->
    <rect x="0" y="0" width="260" height="12" fill="#E14D2A" stroke="#000000" stroke-width="3" />

    <!-- Decorative corner notch -->
    <path d="M 240 100 L 260 80 L 260 100 Z" fill="#000000" />

    <!-- Identifier Tab -->
    <rect x="220" y="12" width="40" height="25" fill="#000000" />
    <text x="240" y="30" fill="white" text-anchor="middle" style="font-family: 'Outfit', sans-serif; font-size: 14px; font-weight: 800;">K</text>

    <text x="25" y="48" fill="#111827" style="font-family: 'Outfit', sans-serif; font-size: 16px; font-weight: 800; text-transform: uppercase; letter-spacing: 0.02em;"><tspan x="25" dy="0">API</tspan><tspan x="25" dy="20">Documentation</tspan><tspan x="25" dy="20">Output</tspan></text>

    <!-- Interactive Hover Accent Bar -->
    <rect x="0" y="94" width="0" height="6" fill="#000000" class="accent-bar" /><line x1="260" y1="50" x2="337" y2="50" stroke="#64748B" stroke-width="3" />
<g transform="translate(332,47.5)">
    <use xlink:href="#ppoint" fill="#64748B" stroke="#64748B"/>
</g></g></g><g transform="translate(340,300)"><g class="module-card" style="animation: slideIn 0.5s ease-out 0.88s both;">
    <!-- The "Module" Base with hard shadow -->
    <rect x="0" y="0" width="260" height="100" fill="white" stroke="#000000" stroke-width="3" filter="url(#brutalistShadow)" />

    <!-- Color Header/Accent Area -->
    <rect x="0" y="0" width="260" height="12" fill="#252287" stroke="#000000" stroke-width="3" />

    <!-- Decorative corner notch -->
    <path d="M 240 100 L 260 80 L 260 100 Z" fill="#000000" />

    <!-- Identifier Tab -->
    <rect x="220" y="12" width="40" height="25" fill="#000000" />
    <text x="240" y="30" fill="white" text-anchor="middle" style="font-family: 'Outfit', sans-serif; font-size: 14px; font-weight: 800;">L</text>

    <text x="25" y="48" fill="#111827" style="font-family: 'Outfit', sans-serif; font-size: 16px; font-weight: 800; text-transform: uppercase; letter-spacing: 0.02em;"><tspan x="25" dy="0">GitHub</tspan></text>

    <!-- Interactive Hover Accent Bar -->
    <rect x="0" y="94" width="0" height="6" fill="#000000" class="accent-bar" /></g></g></g><g transform='translate(100,510.0)'><g transform="translate(0, 0)"><g style="animation: slideIn 0.4s ease-out 0.6000000000000001s both;">
    <rect x="0" y="0" width="24" height="24" fill="#000000" />
    <rect x="2" y="2" width="20" height="20" fill="#E14D2A" />
    <text x="12" y="17" fill="white" text-anchor="middle" style="font-family: 'Outfit', sans-serif; font-size: 12px; font-weight: 800;">A</text>
    <text x="36" y="17" fill="#F3F4F6" style="font-family: 'Outfit', sans-serif; font-size: 14px; font-weight: 600; text-transform: uppercase; letter-spacing: 0.03em;">Writes unit tests</text>
    <line x1="0" y1="28" x2="400" y2="28" stroke="#F3F4F6" stroke-width="1" stroke-opacity="0.1" />
</g></g><g transform="translate(0, 36)"><g style="animation: slideIn 0.4s ease-out 0.65s both;">
    <rect x="0" y="0" width="24" height="24" fill="#000000" />
    <rect x="2" y="2" width="20" height="20" fill="#E14D2A" />
    <text x="12" y="17" fill="white" text-anchor="middle" style="font-family: 'Outfit', sans-serif; font-size: 12px; font-weight: 800;">B</text>
    <text x="36" y="17" fill="#F3F4F6" style="font-family: 'Outfit', sans-serif; font-size: 14px; font-weight: 600; text-transform: uppercase; letter-spacing: 0.03em;">Unit tests produces excel</text>
    <line x1="0" y1="28" x2="400" y2="28" stroke="#F3F4F6" stroke-width="1" stroke-opacity="0.1" />
</g></g><g transform="translate(0, 72)"><g style="animation: slideIn 0.4s ease-out 0.7000000000000001s both;">
    <rect x="0" y="0" width="24" height="24" fill="#000000" />
    <rect x="2" y="2" width="20" height="20" fill="#E14D2A" />
    <text x="12" y="17" fill="white" text-anchor="middle" style="font-family: 'Outfit', sans-serif; font-size: 12px; font-weight: 800;">C</text>
    <text x="36" y="17" fill="#F3F4F6" style="font-family: 'Outfit', sans-serif; font-size: 14px; font-weight: 600; text-transform: uppercase; letter-spacing: 0.03em;">Excel is stored in test engine</text>
    <line x1="0" y1="28" x2="400" y2="28" stroke="#F3F4F6" stroke-width="1" stroke-opacity="0.1" />
</g></g><g transform="translate(0, 108)"><g style="animation: slideIn 0.4s ease-out 0.75s both;">
    <rect x="0" y="0" width="24" height="24" fill="#000000" />
    <rect x="2" y="2" width="20" height="20" fill="#E14D2A" />
    <text x="12" y="17" fill="white" text-anchor="middle" style="font-family: 'Outfit', sans-serif; font-size: 12px; font-weight: 800;">D</text>
    <text x="36" y="17" fill="#F3F4F6" style="font-family: 'Outfit', sans-serif; font-size: 14px; font-weight: 600; text-transform: uppercase; letter-spacing: 0.03em;">Test Engine write documentation</text>
    <line x1="0" y1="28" x2="400" y2="28" stroke="#F3F4F6" stroke-width="1" stroke-opacity="0.1" />
</g></g><g transform="translate(0, 144)"><g style="animation: slideIn 0.4s ease-out 0.8s both;">
    <rect x="0" y="0" width="24" height="24" fill="#000000" />
    <rect x="2" y="2" width="20" height="20" fill="#E14D2A" />
    <text x="12" y="17" fill="white" text-anchor="middle" style="font-family: 'Outfit', sans-serif; font-size: 12px; font-weight: 800;">E</text>
    <text x="36" y="17" fill="#F3F4F6" style="font-family: 'Outfit', sans-serif; font-size: 14px; font-weight: 600; text-transform: uppercase; letter-spacing: 0.03em;">Documentation is committed</text>
    <line x1="0" y1="28" x2="400" y2="28" stroke="#F3F4F6" stroke-width="1" stroke-opacity="0.1" />
</g></g><g transform="translate(0, 180)"><g style="animation: slideIn 0.4s ease-out 0.8500000000000001s both;">
    <rect x="0" y="0" width="24" height="24" fill="#000000" />
    <rect x="2" y="2" width="20" height="20" fill="#E14D2A" />
    <text x="12" y="17" fill="white" text-anchor="middle" style="font-family: 'Outfit', sans-serif; font-size: 12px; font-weight: 800;">F</text>
    <text x="36" y="17" fill="#F3F4F6" style="font-family: 'Outfit', sans-serif; font-size: 14px; font-weight: 600; text-transform: uppercase; letter-spacing: 0.03em;">Triggers a webhook</text>
    <line x1="0" y1="28" x2="400" y2="28" stroke="#F3F4F6" stroke-width="1" stroke-opacity="0.1" />
</g></g><g transform="translate(0, 216)"><g style="animation: slideIn 0.4s ease-out 0.9s both;">
    <rect x="0" y="0" width="24" height="24" fill="#000000" />
    <rect x="2" y="2" width="20" height="20" fill="#E14D2A" />
    <text x="12" y="17" fill="white" text-anchor="middle" style="font-family: 'Outfit', sans-serif; font-size: 12px; font-weight: 800;">G</text>
    <text x="36" y="17" fill="#F3F4F6" style="font-family: 'Outfit', sans-serif; font-size: 14px; font-weight: 600; text-transform: uppercase; letter-spacing: 0.03em;">Developer consumes git content</text>
    <line x1="0" y1="28" x2="400" y2="28" stroke="#F3F4F6" stroke-width="1" stroke-opacity="0.1" />
</g></g><g transform="translate(0, 252)"><g style="animation: slideIn 0.4s ease-out 0.9500000000000001s both;">
    <rect x="0" y="0" width="24" height="24" fill="#000000" />
    <rect x="2" y="2" width="20" height="20" fill="#E14D2A" />
    <text x="12" y="17" fill="white" text-anchor="middle" style="font-family: 'Outfit', sans-serif; font-size: 12px; font-weight: 800;">H</text>
    <text x="36" y="17" fill="#F3F4F6" style="font-family: 'Outfit', sans-serif; font-size: 14px; font-weight: 600; text-transform: uppercase; letter-spacing: 0.03em;">Unit tests produces excel</text>
    <line x1="0" y1="28" x2="400" y2="28" stroke="#F3F4F6" stroke-width="1" stroke-opacity="0.1" />
</g></g><g transform="translate(0, 288)"><g style="animation: slideIn 0.4s ease-out 1.0s both;">
    <rect x="0" y="0" width="24" height="24" fill="#000000" />
    <rect x="2" y="2" width="20" height="20" fill="#E14D2A" />
    <text x="12" y="17" fill="white" text-anchor="middle" style="font-family: 'Outfit', sans-serif; font-size: 12px; font-weight: 800;">I</text>
    <text x="36" y="17" fill="#F3F4F6" style="font-family: 'Outfit', sans-serif; font-size: 14px; font-weight: 600; text-transform: uppercase; letter-spacing: 0.03em;">Excel is stored in test engine</text>
    <line x1="0" y1="28" x2="400" y2="28" stroke="#F3F4F6" stroke-width="1" stroke-opacity="0.1" />
</g></g><g transform="translate(0, 324)"><g style="animation: slideIn 0.4s ease-out 1.05s both;">
    <rect x="0" y="0" width="24" height="24" fill="#000000" />
    <rect x="2" y="2" width="20" height="20" fill="#E14D2A" />
    <text x="12" y="17" fill="white" text-anchor="middle" style="font-family: 'Outfit', sans-serif; font-size: 12px; font-weight: 800;">J</text>
    <text x="36" y="17" fill="#F3F4F6" style="font-family: 'Outfit', sans-serif; font-size: 14px; font-weight: 600; text-transform: uppercase; letter-spacing: 0.03em;">Test Engine write documentation</text>
    <line x1="0" y1="28" x2="400" y2="28" stroke="#F3F4F6" stroke-width="1" stroke-opacity="0.1" />
</g></g><g transform="translate(0, 360)"><g style="animation: slideIn 0.4s ease-out 1.1s both;">
    <rect x="0" y="0" width="24" height="24" fill="#000000" />
    <rect x="2" y="2" width="20" height="20" fill="#E14D2A" />
    <text x="12" y="17" fill="white" text-anchor="middle" style="font-family: 'Outfit', sans-serif; font-size: 12px; font-weight: 800;">K</text>
    <text x="36" y="17" fill="#F3F4F6" style="font-family: 'Outfit', sans-serif; font-size: 14px; font-weight: 600; text-transform: uppercase; letter-spacing: 0.03em;">Documentation is committed</text>
    <line x1="0" y1="28" x2="400" y2="28" stroke="#F3F4F6" stroke-width="1" stroke-opacity="0.1" />
</g></g></g></svg>