<svg xmlns="http://www.w3.org/2000/svg" viewBox="0 0 280 285" style="enable-background:new 0 0 280 285"
     xml:space="preserve" xmlns:xlink="http://www.w3.org/1999/xlink">
    <defs>
        <g id="greens">
            <g transform="translate(10,74)">
                <rect x="0" y="0" width="20" height="10" fill="#50C878" rx="2" ry="2" filter="url(#Bevel2)"/>
            </g>
            <g transform="translate(10,86)">
                <rect x="0" y="0" width="20" height="10" fill="#50C878" rx="2" ry="2" filter="url(#Bevel2)"/>
            </g>
            <g transform="translate(10,98)">
                <rect x="0" y="0" width="20" height="10" fill="#50C878" rx="2" ry="2" filter="url(#Bevel2)"/>
            </g>
            <g transform="translate(10,110)">
                <rect x="0" y="0" width="20" height="10" fill="#50C878" rx="2" ry="2" filter="url(#Bevel2)"/>
            </g>
            <g transform="translate(10,122)">
                <rect x="0" y="0" width="20" height="10" fill="#50C878" rx="2" ry="2" filter="url(#Bevel2)"/>
            </g>
            <g transform="translate(10,134)">
                <rect x="0" y="0" width="20" height="10" fill="#50C878" rx="2" ry="2" filter="url(#Bevel2)"/>
            </g>
            <g transform="translate(10,146)">
                <rect x="0" y="0" width="20" height="10" fill="#50C878" rx="2" ry="2" filter="url(#Bevel2)"/>
            </g>
            <g transform="translate(10,158)">
                <rect x="0" y="0" width="20" height="10" fill="#50C878" rx="2" ry="2" filter="url(#Bevel2)"/>
            </g>
            <g transform="translate(10,170)">
                <rect x="0" y="0" width="20" height="10" fill="#50C878" rx="2" ry="2" filter="url(#Bevel2)"/>
            </g>
            <g transform="translate(10,182)">
                <rect x="0" y="0" width="20" height="10" fill="#50C878" rx="2" ry="2" filter="url(#Bevel2)"/>
            </g>
        </g>
        <g id="yellows">
            <g transform="translate(10,62)">
                <rect x="0" y="0" width="20" height="10" fill="#F4C430" rx="2" ry="2" filter="url(#Bevel2)"/>
            </g>
            <g transform="translate(10,74)">
                <rect x="0" y="0" width="20" height="10" fill="#F4C430" rx="2" ry="2" filter="url(#Bevel2)"/>
            </g>
            <g transform="translate(10,86)">
                <rect x="0" y="0" width="20" height="10" fill="#F4C430" rx="2" ry="2" filter="url(#Bevel2)"/>
            </g>
            <g transform="translate(10,98)">
                <rect x="0" y="0" width="20" height="10" fill="#F4C430" rx="2" ry="2" filter="url(#Bevel2)"/>
            </g>
            <g transform="translate(10,110)">
                <rect x="0" y="0" width="20" height="10" fill="#F4C430" rx="2" ry="2" filter="url(#Bevel2)"/>
            </g>
        </g>
        <g id="reds">
            <g transform="translate(10,26)">
                <rect x="0" y="0" width="20" height="10" fill="#C70039" rx="2" ry="2" filter="url(#Bevel2)"/>
            </g>
            <g transform="translate(10,38)">
                <rect x="0" y="0" width="20" height="10" fill="#C70039" rx="2" ry="2" filter="url(#Bevel2)"/>
            </g>
            <g transform="translate(10,50)">
                <rect x="0" y="0" width="20" height="10" fill="#C70039" rx="2" ry="2" filter="url(#Bevel2)"/>
            </g>
        </g>
        <filter id="Bevel2" filterUnits="objectBoundingBox" x="-10%" y="-10%" width="150%" height="150%">
            <feGaussianBlur in="SourceAlpha" stdDeviation="0.5" result="blur"/>
            <feSpecularLighting in="blur" surfaceScale="5" specularConstant="0.5" specularExponent="10" result="specOut"
                                lighting-color="white">
                <fePointLight x="-5000" y="-10000" z="0000"/>
            </feSpecularLighting>
            <feComposite in="specOut" in2="SourceAlpha" operator="in" result="specOut2"/>
            <feComposite in="SourceGraphic" in2="specOut2" operator="arithmetic" k1="0" k2="1" k3="1" k4="0"
                         result="litPaint"/>
        </filter>
        <style>
            .shadowed {
                -webkit-filter: drop-shadow( 3px 3px 2px rgba(0, 0, 0, .3));
                filter: drop-shadow( 3px 3px 2px rgba(0, 0, 0, .3));
            }
            .glass:after,.glass:before{content:"";display:block;position:absolute}.glass{overflow:hidden;color:#fff;text-shadow:0
            1px 2px rgba(0,0,0,.7);background-image:radial-gradient(circle at
            center,rgba(0,167,225,.25),rgba(0,110,149,.5));box-shadow:0 5px 10px rgba(0,0,0,.75),inset 0 0 0 2px
            rgba(0,0,0,.3),inset 0 -6px 6px -3px
            rgba(0,129,174,.2);position:relative}.glass:after{background:rgba(0,167,225,.2);z-index:0;height:100%;width:100%;top:0;left:0;backdrop-filter:blur(3px)
            saturate(400%);-webkit-backdrop-filter:blur(3px) saturate(400%)}.glass:before{width:calc(100% -
            4px);height:35px;background-image:linear-gradient(rgba(255,255,255,.7),rgba(255,255,255,0));top:2px;left:2px;border-radius:30px
            30px 200px 200px;opacity:.7}.glass:hover{text-shadow:0 1px 2px
            rgba(0,0,0,.9)}.glass:hover:before{opacity:1}.glass:active{text-shadow:0 0 2px rgba(0,0,0,.9);box-shadow:0
            3px 8px rgba(0,0,0,.75),inset 0 0 0 2px rgba(0,0,0,.3),inset 0 -6px 6px -3px
            rgba(0,129,174,.2)}.glass:active:before{height:25px}

        </style>
    </defs>
    <g transform="translate(0,50)" class="shadowed glass">
        <use xlink:href="#greens" x="0"/>
        <use xlink:href="#greens" x="24"/>
        <use xlink:href="#greens" x="48"/>
        <use xlink:href="#greens" x="72"/>
        <use xlink:href="#greens" x="96"/>
        <use xlink:href="#greens" x="120"/>
        <use xlink:href="#greens" x="144"/>
        <use xlink:href="#greens" x="168"/>
        <use xlink:href="#greens" x="192"/>
        <use xlink:href="#greens" x="216"/>
        <use xlink:href="#greens" x="240"/>
    </g>
   <g  class="shadowed glass">
       <use xlink:href="#yellows" x="0"/>
       <use xlink:href="#yellows" x="24"/>
       <use xlink:href="#yellows" x="48"/>
       <use xlink:href="#yellows" x="72"/>
       <use xlink:href="#yellows" x="96"/>
       <use xlink:href="#yellows" x="120"/>
       <use xlink:href="#yellows" x="144"/>
       <use xlink:href="#yellows" x="168"/>
       <use xlink:href="#yellows" x="192"/>
       <use xlink:href="#yellows" x="216"/>
       <use xlink:href="#yellows" x="240"/>
   </g>
    <g  class="shadowed glass">
        <use xlink:href="#reds" x="0"/>
        <use xlink:href="#reds" x="24"/>
        <use xlink:href="#reds" x="48"/>
        <use xlink:href="#reds" x="72"/>
        <use xlink:href="#reds" x="96"/>
        <use xlink:href="#reds" x="120"/>
        <use xlink:href="#reds" x="144"/>
        <use xlink:href="#reds" x="168"/>
        <use xlink:href="#reds" x="192"/>
        <use xlink:href="#reds" x="216"/>
        <use xlink:href="#reds" x="240"/>
    </g>
</svg>