<svg xmlns="http://www.w3.org/2000/svg" width="514.6874999935665" height="503.43749999370704" viewBox="0 0 915.0 895.0"
     xmlns:xlink="http://www.w3.org/1999/xlink" id="f5ce1628-83b9-4996-ba10-112b6ece5b1d" zoomAndPan="magnify"
     preserveAspectRatio="xMidYMid meet">
    <defs>
        <filter id="Bevel2" filterUnits="objectBoundingBox" x="-10%" y="-10%" width="150%" height="150%">
            <feGaussianBlur in="SourceAlpha" stdDeviation="0.5" result="blur"></feGaussianBlur>
            <feSpecularLighting in="blur" surfaceScale="5" specularConstant="0.5" specularExponent="10" result="specOut"
                                lighting-color="white">
                <fePointLight x="-5000" y="-10000" z="0000"></fePointLight>
            </feSpecularLighting>
            <feComposite in="specOut" in2="SourceAlpha" operator="in" result="specOut2"></feComposite>
            <feComposite in="SourceGraphic" in2="specOut2" operator="arithmetic" k1="0" k2="1" k3="1" k4="0"
                         result="litPaint"></feComposite>
        </filter>
        <filter id="buttonBlur">
            <feGaussianBlur in="SourceAlpha" stdDeviation="2" result="blur"></feGaussianBlur>
            <feOffset in="blur" dy="2" result="offsetBlur"></feOffset>
            <feMerge>
                <feMergeNode in="offsetBlur"></feMergeNode>
                <feMergeNode in="SourceGraphic"></feMergeNode>
            </feMerge>
        </filter>
        <linearGradient id="overlayGrad" gradientUnits="userSpaceOnUse" x1="95" y1="-20" x2="95" y2="70">
            <stop offset="0" stop-color="#000000" stop-opacity="0.5"></stop>
            <stop offset="1" stop-color="#000000" stop-opacity="0"></stop>
        </linearGradient>
        <filter id="topshineBlur">
            <feGaussianBlur stdDeviation="0.93"></feGaussianBlur>
        </filter>
        <linearGradient id="topshineGrad" gradientUnits="userSpaceOnUse" x1="95" y1="0" x2="95" y2="40">
            <stop offset="0" stop-color="#ffffff" stop-opacity="1"></stop>
            <stop offset="1" stop-color="#ffffff" stop-opacity="0"></stop>
        </linearGradient>
        <filter id="bottomshine">
            <feGaussianBlur stdDeviation="0.95"></feGaussianBlur>
        </filter>
        <filter id="Bevel2" filterUnits="objectBoundingBox" x="-10%" y="-10%" width="150%" height="150%">
            <feGaussianBlur in="SourceAlpha" stdDeviation="0.5" result="blur"></feGaussianBlur>
            <feSpecularLighting in="blur" surfaceScale="5" specularConstant="0.5" specularExponent="10" result="specOut"
                                lighting-color="white">
                <fePointLight x="-5000" y="-10000" z="0000"></fePointLight>
            </feSpecularLighting>
            <feComposite in="specOut" in2="SourceAlpha" operator="in" result="specOut2"></feComposite>
            <feComposite in="SourceGraphic" in2="specOut2" operator="arithmetic" k1="0" k2="1" k3="1" k4="0"
                         result="litPaint"></feComposite>
        </filter>
        <circle id="myCircle" cx="0" cy="0" r="60" class="card" stroke-width="1"></circle>
        <filter id="naturalShadow" x="0" y="0" width="2" height="2">
            <feOffset in="SourceGraphic" dx="3" dy="3"></feOffset>
            <feGaussianBlur stdDeviation="5" result="blur"></feGaussianBlur>
            <feMerge>
                <feMergeNode in="blur"></feMergeNode>
                <feMergeNode in="SourceGraphic"></feMergeNode>
            </feMerge>
        </filter>
        <linearGradient id="btn_eb780800-e542-40ad-8611-6ce53fa29127" x2="0%" y2="100%">
            <stop offset="0%" style="stop-color:#3f495a"></stop>
            <stop offset="50%" style="stop-color:#353d4b"></stop>
            <stop offset="100%" style="stop-color:#2a303c"></stop>
        </linearGradient>
        <linearGradient id="btn_958dca36-fe35-4a89-8aca-809a20b8d4d6" x2="0%" y2="100%">
            <stop offset="0%" style="stop-color:#3f495a"></stop>
            <stop offset="50%" style="stop-color:#353d4b"></stop>
            <stop offset="100%" style="stop-color:#2a303c"></stop>
        </linearGradient>
        <linearGradient id="btn_ccd1fecc-8740-4984-93bf-515fda7d4f9b" x2="0%" y2="100%">
            <stop offset="0%" style="stop-color:#3f495a"></stop>
            <stop offset="50%" style="stop-color:#353d4b"></stop>
            <stop offset="100%" style="stop-color:#2a303c"></stop>
        </linearGradient>
        <linearGradient id="btn_943f1a17-1081-45b5-8ae0-18fbb8a8302d" x2="0%" y2="100%">
            <stop offset="0%" style="stop-color:#4546ff"></stop>
            <stop offset="50%" style="stop-color:#3a3bf6"></stop>
            <stop offset="100%" style="stop-color:#2e2fc4"></stop>
        </linearGradient>
        <linearGradient id="btn_5441ac5a-1c72-468d-8e3c-e044f1dbbfca" x2="0%" y2="100%">
            <stop offset="0%" style="stop-color:#3f495a"></stop>
            <stop offset="50%" style="stop-color:#353d4b"></stop>
            <stop offset="100%" style="stop-color:#2a303c"></stop>
        </linearGradient>
        <linearGradient id="btn_8533a097-25b0-4823-8d4f-bc56dd4d3a83" x2="0%" y2="100%">
            <stop offset="0%" style="stop-color:#3f495a"></stop>
            <stop offset="50%" style="stop-color:#353d4b"></stop>
            <stop offset="100%" style="stop-color:#2a303c"></stop>
        </linearGradient>
        <linearGradient id="btn_f4b78807-1cbc-4c40-a0e3-91d7d3041b44" x2="0%" y2="100%">
            <stop offset="0%" style="stop-color:#069cb4"></stop>
            <stop offset="50%" style="stop-color:#058296"></stop>
            <stop offset="100%" style="stop-color:#046878"></stop>
        </linearGradient>
        <linearGradient id="btn_0b86460b-9dd9-4743-9ccc-6fa691da1f7a" x2="0%" y2="100%">
            <stop offset="0%" style="stop-color:#3f495a"></stop>
            <stop offset="50%" style="stop-color:#353d4b"></stop>
            <stop offset="100%" style="stop-color:#2a303c"></stop>
        </linearGradient>
        <path id="outerBox" fill="#ffffff"
              d="M 0 18.0 A 18.0 18.0 0 0 1 18.0 0 L 282.0 0 A 18.0 18.0 0 0 1 300.0 18.0 L 300.0 382.0 A 18.0 18.0 0 0 1 282.0 400.0 L 18.0 400.0 A 18.0 18.0 0 0 1 0 382.0 Z">
            <title>Title</title>
        </path>
        <g id="topTextBox">
            <path fill="#ffffff"
                  d="M 0 18.0 A 18.0 18.0 0 0 1 18.0 0 L 282.0 0 A 18.0 18.0 0 0 1 300.0 18.0 L 300.0 95.5 A 0.0 0.0 0 0 1 300.0 95.5 L 0.0 95.5 A 0.0 0.0 0 0 1 0 95.5 Z"></path>
        </g>
        <path id="bottomTextBox"
              d="M 0 0.0 A 0.0 0.0 0 0 1 0.0 0 L 300.0 0 A 0.0 0.0 0 0 1 300.0 0.0 L 300.0 95.5 A 0.0 0.0 0 0 1 300.0 95.5 L 0.0 95.5 A 0.0 0.0 0 0 1 0 95.5 Z"></path>
        <path id="singleBox"
              d="M 0 18.0 A 18.0 18.0 0 0 1 18.0 0 L 282.0 0 A 18.0 18.0 0 0 1 300.0 18.0 L 300.0 191.0 A 0.0 0.0 0 0 1 300.0 191.0 L 0.0 191.0 A 0.0 0.0 0 0 1 0 191.0 Z"></path>
        <style>.glass:after, .glass:before {
            content: "";
            display: block;
            position: absolute
        }

        .glass {
            overflow: hidden;
            color: #fff;
            text-shadow: 0 1px 2px rgba(0, 0, 0, .7);
            background-image: radial-gradient(circle at center, rgba(0, 167, 225, .25), rgba(0, 110, 149, .5));
            box-shadow: 0 5px 10px rgba(0, 0, 0, .75), inset 0 0 0 2px rgba(0, 0, 0, .3), inset 0 -6px 6px -3px rgba(0, 129, 174, .2);
            position: relative
        }

        .glass:after {
            background: rgba(0, 167, 225, .2);
            z-index: 0;
            height: 100%;
            width: 100%;
            top: 0;
            left: 0;
            backdrop-filter: blur(3px) saturate(400%);
            -webkit-backdrop-filter: blur(3px) saturate(400%)
        }

        .glass:before {
            width: calc(100% - 4px);
            height: 35px;
            background-image: linear-gradient(rgba(255, 255, 255, .7), rgba(255, 255, 255, 0));
            top: 2px;
            left: 2px;
            border-radius: 30px 30px 200px 200px;
            opacity: .7
        }

        .glass:hover {
            text-shadow: 0 1px 2px rgba(0, 0, 0, .9)
        }

        .glass:hover:before {
            opacity: 1
        }

        .glass:active {
            text-shadow: 0 0 2px rgba(0, 0, 0, .9);
            box-shadow: 0 3px 8px rgba(0, 0, 0, .75), inset 0 0 0 2px rgba(0, 0, 0, .3), inset 0 -6px 6px -3px rgba(0, 129, 174, .2)
        }

        .glass:active:before {
            height: 25px
        }

        .light-shadow {
            filter: drop-shadow(0px 3px 3px rgba(0, 0, 0, 0.4));
        }

        .raise {
            pointer-events: bounding-box;
            opacity: 1;
            filter: drop-shadow(3px 5px 2px rgb(0 0 0 / 0.4));
        }

        .raise:hover {
            stroke: #7695FF;
            stroke-width: 3px;
            opacity: 0.9;
        }

        .basecard {
            -webkit-filter: drop-shadow(3px 3px 2px rgba(0, 0, 0, .3));
            filter: drop-shadow(3px 3px 2px rgba(0, 0, 0, .3));
        }

        .basecard:hover {
            cursor: pointer;
            filter: grayscale(100%) sepia(100%);
        }

        .btn_eb780800-e542-40ad-8611-6ce53fa29127_cls {
            fill: url(#btn_eb780800-e542-40ad-8611-6ce53fa29127);
        }

        .btn_958dca36-fe35-4a89-8aca-809a20b8d4d6_cls {
            fill: url(#btn_958dca36-fe35-4a89-8aca-809a20b8d4d6);
        }

        .btn_ccd1fecc-8740-4984-93bf-515fda7d4f9b_cls {
            fill: url(#btn_ccd1fecc-8740-4984-93bf-515fda7d4f9b);
        }

        .btn_943f1a17-1081-45b5-8ae0-18fbb8a8302d_cls {
            fill: url(#btn_943f1a17-1081-45b5-8ae0-18fbb8a8302d);
        }

        .btn_5441ac5a-1c72-468d-8e3c-e044f1dbbfca_cls {
            fill: url(#btn_5441ac5a-1c72-468d-8e3c-e044f1dbbfca);
        }

        .btn_8533a097-25b0-4823-8d4f-bc56dd4d3a83_cls {
            fill: url(#btn_8533a097-25b0-4823-8d4f-bc56dd4d3a83);
        }

        .btn_f4b78807-1cbc-4c40-a0e3-91d7d3041b44_cls {
            fill: url(#btn_f4b78807-1cbc-4c40-a0e3-91d7d3041b44);
        }

        .btn_0b86460b-9dd9-4743-9ccc-6fa691da1f7a_cls {
            fill: url(#btn_0b86460b-9dd9-4743-9ccc-6fa691da1f7a);
        }

        .shape {
            stroke: black;
        }

        .mybox:hover {
            -webkit-animation: 0.5s draw linear forwards;
            animation: 0.5s draw linear forwards;
        }

        @keyframes draw {
            0% {
                stroke-dasharray: 140 540;
                stroke-dashoffset: -474;
                stroke-width: 3px;
            }
            100% {
                stroke-dasharray: 760;
                stroke-dashoffset: 0;
                stroke-width: 5px;
            }
        }

        .linkText {
            fill: #000000;
            font-size: 15px;
            font-family: "Inter var", system-ui, "Helvetica Neue", Helvetica, Arial, sans-serif;
            font-weight: normal;
            cursor: pointer;
        }

        .linkText:hover {
            fill: #ea0606;
            border: #d2ddec solid;
        }

        .linkTextDark {
            fill: #fcfcfc;
            font-size: 15px;
            font-family: "Inter var", system-ui, "Helvetica Neue", Helvetica, Arial, sans-serif;
            font-weight: normal;
            cursor: pointer;
        }

        .linkText:hover {
            fill: #ea0606;
            border: #d2ddec solid;
        }

        .bar:hover {
            filter: grayscale(100%) sepia(100%);
        }

        .shadowed {
            -webkit-filter: drop-shadow(3px 3px 2px rgba(0, 0, 0, .3));
            filter: drop-shadow(3px 3px 2px rgba(0, 0, 0, .3));
        }</style>
    </defs>
    <g transform="scale(1.0)">
        <g transform="translate(10,10)" cursor="pointer">
            <title>Amazon.com, Inc. is an American multinational technology company which focuses on e-commerce, cloud
                computing, digital streaming, and artificial intelligence
            </title>
            <a xlink:href="https://www.amazon.com" href="https://www.amazon.com" target="_top"
               style="text-decoration: none; font-family:Arial; fill: #fcfcfc;">
                <polygon stroke="#7695FF" stroke-width="7"
                         class="bar shadowed raise btn_eb780800-e542-40ad-8611-6ce53fa29127_cls"
                         fill="url(#btn_eb780800-e542-40ad-8611-6ce53fa29127)"
                         points="291.73148258233545,254.80624999999998 149.60588850376178,336.86249999999995 7.480294425188106,254.80624999999998 7.480294425188077,90.69375000000005 149.60588850376175,8.637500000000017 291.7314825823354,90.69374999999994"></polygon>
                <g transform="translate(125,50) scale(1.0)">
                    <svg width="128" height="128" viewBox="0 0 64 64" fill="none" xmlns="http://www.w3.org/2000/svg">
                        <path d="M.045 18.02c.072-.116.187-.124.348-.022 3.636 2.11 7.594 3.166 11.87 3.166 2.852 0 5.668-.533 8.447-1.595l.315-.14c.138-.06.234-.1.293-.13.226-.088.39-.046.525.13.12.174.09.336-.12.48-.256.19-.6.41-1.006.654-1.244.743-2.64 1.316-4.185 1.726a17.617 17.617 0 01-10.951-.577 17.88 17.88 0 01-5.43-3.35c-.1-.074-.151-.15-.151-.22 0-.047.021-.09.051-.13zm6.565-6.218c0-1.005.247-1.863.743-2.577.495-.71 1.17-1.25 2.04-1.615.796-.335 1.756-.575 2.912-.72.39-.046 1.033-.103 1.92-.174v-.37c0-.93-.105-1.558-.3-1.875-.302-.43-.78-.65-1.44-.65h-.182c-.48.046-.896.196-1.246.46-.35.27-.575.63-.675 1.096-.06.3-.206.465-.435.51l-2.52-.315c-.248-.06-.372-.18-.372-.39 0-.046.007-.09.022-.15.247-1.29.855-2.25 1.82-2.88.976-.616 2.1-.975 3.39-1.05h.54c1.65 0 2.957.434 3.888 1.29.135.15.27.3.405.48.12.165.224.314.283.45.075.134.15.33.195.57.06.254.105.42.135.51.03.104.062.3.076.615.01.313.02.493.02.553v5.28c0 .376.06.72.165 1.036.105.313.21.54.315.674l.51.674c.09.136.136.256.136.36 0 .12-.06.226-.18.314-1.2 1.05-1.86 1.62-1.963 1.71-.165.135-.375.15-.63.045a6.062 6.062 0 01-.526-.496l-.31-.347a9.391 9.391 0 01-.317-.42l-.3-.435c-.81.886-1.603 1.44-2.4 1.665-.494.15-1.093.227-1.83.227-1.11 0-2.04-.343-2.76-1.034-.72-.69-1.08-1.665-1.08-2.94l-.05-.076zm3.753-.438c0 .566.14 1.02.425 1.364.285.34.675.512 1.155.512.045 0 .106-.007.195-.02.09-.016.134-.023.166-.023.614-.16 1.08-.553 1.424-1.178.165-.28.285-.58.36-.91.09-.32.12-.59.135-.8.015-.195.015-.54.015-1.005v-.54c-.84 0-1.484.06-1.92.18-1.275.36-1.92 1.17-1.92 2.43l-.035-.02zm9.162 7.027c.03-.06.075-.11.132-.17.362-.243.714-.41 1.05-.5a8.094 8.094 0 011.612-.24c.14-.012.28 0 .41.03.65.06 1.05.168 1.172.33.063.09.099.228.099.39v.15c0 .51-.149 1.11-.424 1.8-.278.69-.664 1.248-1.156 1.68-.073.06-.14.09-.197.09-.03 0-.06 0-.09-.012-.09-.044-.107-.12-.064-.24.54-1.26.806-2.143.806-2.64 0-.15-.03-.27-.087-.344-.145-.166-.55-.257-1.224-.257-.243 0-.533.016-.87.046-.363.045-.7.09-1 .135-.09 0-.148-.014-.18-.044-.03-.03-.036-.047-.02-.077 0-.017.006-.03.02-.063v-.06z"
                              fill="#FF9900" filter="url(#Bevel2)"></path>
                    </svg>
                </g>
                <text x="149" y="175" text-anchor="middle"
                      style="fill: #FCFCFC; font-family: Arial, Helvetica, sans-serif; font-size: 48px; font-weight: 700; font-style: normal; font-variant: small-caps; text-decoration: none;">
                    <tspan x="149" text-anchor="middle" dy="0"
                           style="fill:#FCFCFC; font-family:Arial,Helvetica, sans-serif;">Amazon
                    </tspan>
                </text>
            </a>
            <line x1="40" y1="122" x2="265" y2="122" style="stroke:#fcfcfc;stroke-width:2"></line>
            <line x1="40" y1="190" x2="265" y2="190" style="stroke:#fcfcfc;stroke-width:2"></line>
            <text x="149" y="214" text-anchor="middle"
                  style="fill: #FCFCFC; null; font-weight: bold;letter-spacing: 3px;">STOREFRONT
            </text>
        </g>
        <g transform="translate(305,10)" cursor="pointer">
            <title>Apple Inc. is an American multinational technology company that specializes in consumer electronics,
                computer software and online services.
            </title>
            <a xlink:href="https://www.apple.com" href="https://www.apple.com" target="_top"
               style="text-decoration: none; font-family:Arial; fill: #fcfcfc;">
                <polygon stroke="#7695FF" stroke-width="7"
                         class="bar shadowed raise btn_958dca36-fe35-4a89-8aca-809a20b8d4d6_cls"
                         fill="url(#btn_958dca36-fe35-4a89-8aca-809a20b8d4d6)"
                         points="291.73148258233545,254.80624999999998 149.60588850376178,336.86249999999995 7.480294425188106,254.80624999999998 7.480294425188077,90.69375000000005 149.60588850376175,8.637500000000017 291.7314825823354,90.69374999999994"></polygon>
                <g transform="translate(125,50) scale(1.0)">
                    <svg width="128" height="128" viewBox="0 0 64 64" fill="none" xmlns="http://www.w3.org/2000/svg">
                        <path d="M12.152 6.896c-.948 0-2.415-1.078-3.96-1.04-2.04.027-3.91 1.183-4.961 3.014-2.117 3.675-.546 9.103 1.519 12.09 1.013 1.454 2.208 3.09 3.792 3.039 1.52-.065 2.09-.987 3.935-.987 1.831 0 2.35.987 3.96.948 1.637-.026 2.676-1.48 3.676-2.948 1.156-1.688 1.636-3.325 1.662-3.415-.039-.013-3.182-1.221-3.22-4.857-.026-3.04 2.48-4.494 2.597-4.559-1.429-2.09-3.623-2.324-4.39-2.376-2-.156-3.675 1.09-4.61 1.09zM15.53 3.83c.843-1.012 1.4-2.427 1.245-3.83-1.207.052-2.662.805-3.532 1.818-.78.896-1.454 2.338-1.273 3.714 1.338.104 2.715-.688 3.559-1.701"
                              fill="#000000" filter="url(#Bevel2)"></path>
                    </svg>
                </g>
                <text x="149" y="175" text-anchor="middle"
                      style="fill: #FCFCFC; font-family: Arial, Helvetica, sans-serif; font-size: 48px; font-weight: 700; font-style: normal; font-variant: small-caps; text-decoration: none;">
                    <tspan x="149" text-anchor="middle" dy="0"
                           style="fill:#FCFCFC; font-family:Arial,Helvetica, sans-serif;">Apple
                    </tspan>
                </text>
            </a>
            <line x1="40" y1="122" x2="265" y2="122" style="stroke:#fcfcfc;stroke-width:2"></line>
            <line x1="40" y1="190" x2="265" y2="190" style="stroke:#fcfcfc;stroke-width:2"></line>
            <text x="149" y="214" text-anchor="middle"
                  style="fill: #FCFCFC; null; font-weight: bold;letter-spacing: 3px;">HARDWARE
            </text>
        </g>
        <g transform="translate(600,10)" cursor="pointer">
            <title>Sharing documentation experience for developers to extend with AsciiDoctor</title>
            <a xlink:href="#[link-server]#[app]" href="#[link-server]#[app]" target="_top"
               style="text-decoration: none; font-family:Arial; fill: #fcfcfc;">
                <polygon stroke="#7695FF" stroke-width="7"
                         class="bar shadowed raise btn_ccd1fecc-8740-4984-93bf-515fda7d4f9b_cls"
                         fill="url(#btn_ccd1fecc-8740-4984-93bf-515fda7d4f9b)"
                         points="291.73148258233545,254.80624999999998 149.60588850376178,336.86249999999995 7.480294425188106,254.80624999999998 7.480294425188077,90.69375000000005 149.60588850376175,8.637500000000017 291.7314825823354,90.69374999999994"></polygon>
                <g transform="translate(125,50) scale(1.0)">
                    <svg width="64" height="64" viewBox="0 0 64 64" fill="none" xmlns="http://www.w3.org/2000/svg"
                         filter="url(#Bevel2)">
                        <image width="50" height="50" xlink:href="images/docops.svg" href="images/docops.svg"></image>
                    </svg>
                </g>
                <text x="149" y="175" text-anchor="middle"
                      style="fill: #FCFCFC; font-family: Arial, Helvetica, sans-serif; font-size: 48px; font-weight: 700; font-style: normal; font-variant: small-caps; text-decoration: none;">
                    <tspan x="149" text-anchor="middle" dy="0"
                           style="fill:#FCFCFC; font-family:Arial,Helvetica, sans-serif;">DocOps.io
                    </tspan>
                </text>
            </a>
            <line x1="40" y1="122" x2="265" y2="122" style="stroke:#fcfcfc;stroke-width:2"></line>
            <line x1="40" y1="190" x2="265" y2="190" style="stroke:#fcfcfc;stroke-width:2"></line>
            <text x="149" y="214" text-anchor="middle"
                  style="fill: #FCFCFC; null; font-weight: bold;letter-spacing: 3px;">DOCS
            </text>
        </g>
        <g transform="translate(155,265)" cursor="pointer">
            <title>Facebook is an American online social media and social networking service owned by Meta Platforms.
            </title>
            <a xlink:href="https://www.facebook.com" href="https://www.facebook.com" target="_top"
               style="text-decoration: none; font-family:Arial; fill: #fcfcfc;">
                <polygon stroke="#7695FF" stroke-width="7"
                         class="bar shadowed raise btn_943f1a17-1081-45b5-8ae0-18fbb8a8302d_cls"
                         fill="url(#btn_943f1a17-1081-45b5-8ae0-18fbb8a8302d)"
                         points="291.73148258233545,254.80624999999998 149.60588850376178,336.86249999999995 7.480294425188106,254.80624999999998 7.480294425188077,90.69375000000005 149.60588850376175,8.637500000000017 291.7314825823354,90.69374999999994"></polygon>
                <g transform="translate(125,50) scale(1.0)">
                    <svg width="128" height="128" viewBox="0 0 64 64" fill="none" xmlns="http://www.w3.org/2000/svg">
                        <path d="M24 12.073c0-6.627-5.373-12-12-12s-12 5.373-12 12c0 5.99 4.388 10.954 10.125 11.854v-8.385H7.078v-3.47h3.047V9.43c0-3.007 1.792-4.669 4.533-4.669 1.312 0 2.686.235 2.686.235v2.953H15.83c-1.491 0-1.956.925-1.956 1.874v2.25h3.328l-.532 3.47h-2.796v8.385C19.612 23.027 24 18.062 24 12.073z"
                              fill="#1877F2" filter="url(#Bevel2)"></path>
                    </svg>
                </g>
                <text x="149" y="175" text-anchor="middle"
                      style="fill: #FCFCFC; font-family: Arial, Helvetica, sans-serif; font-size: 48px; font-weight: 700; font-style: normal; font-variant: small-caps; text-decoration: none;">
                    <tspan x="149" text-anchor="middle" dy="0"
                           style="fill:#FCFCFC; font-family:Arial,Helvetica, sans-serif;">Facebook
                    </tspan>
                </text>
            </a>
            <line x1="40" y1="122" x2="265" y2="122" style="stroke:#fcfcfc;stroke-width:2"></line>
            <line x1="40" y1="190" x2="265" y2="190" style="stroke:#fcfcfc;stroke-width:2"></line>
            <text x="149" y="214" text-anchor="middle"
                  style="fill: #FCFCFC; null; font-weight: bold;letter-spacing: 3px;">SOCIAL
            </text>
        </g>
        <g transform="translate(450,265)" cursor="pointer">
            <title>Google is is an American multinational technology company that specializes in Internet-related
                services and products
            </title>
            <a xlink:href="https://www.google.com" href="https://www.google.com" target="_top"
               style="text-decoration: none; font-family:Arial; fill: #fcfcfc;">
                <polygon stroke="#7695FF" stroke-width="7"
                         class="bar shadowed raise btn_5441ac5a-1c72-468d-8e3c-e044f1dbbfca_cls"
                         fill="url(#btn_5441ac5a-1c72-468d-8e3c-e044f1dbbfca)"
                         points="291.73148258233545,254.80624999999998 149.60588850376178,336.86249999999995 7.480294425188106,254.80624999999998 7.480294425188077,90.69375000000005 149.60588850376175,8.637500000000017 291.7314825823354,90.69374999999994"></polygon>
                <g transform="translate(125,50) scale(1.0)">
                    <svg width="128" height="128" viewBox="0 0 64 64" fill="none" xmlns="http://www.w3.org/2000/svg">
                        <path d="M12.48 10.92v3.28h7.84c-.24 1.84-.853 3.187-1.787 4.133-1.147 1.147-2.933 2.4-6.053 2.4-4.827 0-8.6-3.893-8.6-8.72s3.773-8.72 8.6-8.72c2.6 0 4.507 1.027 5.907 2.347l2.307-2.307C18.747 1.44 16.133 0 12.48 0 5.867 0 .307 5.387.307 12s5.56 12 12.173 12c3.573 0 6.267-1.173 8.373-3.36 2.16-2.16 2.84-5.213 2.84-7.667 0-.76-.053-1.467-.173-2.053H12.48z"
                              fill="#4285F4" filter="url(#Bevel2)"></path>
                    </svg>
                </g>
                <text x="149" y="175" text-anchor="middle"
                      style="fill: #FCFCFC; font-family: Arial, Helvetica, sans-serif; font-size: 48px; font-weight: 700; font-style: normal; font-variant: small-caps; text-decoration: none;">
                    <tspan x="149" text-anchor="middle" dy="0"
                           style="fill:#FCFCFC; font-family:Arial,Helvetica, sans-serif;">Google
                    </tspan>
                </text>
            </a>
            <line x1="40" y1="122" x2="265" y2="122" style="stroke:#fcfcfc;stroke-width:2"></line>
            <line x1="40" y1="190" x2="265" y2="190" style="stroke:#fcfcfc;stroke-width:2"></line>
            <text x="149" y="214" text-anchor="middle"
                  style="fill: #FCFCFC; null; font-weight: bold;letter-spacing: 3px;">ADVERTISEMENT
            </text>
        </g>
        <g transform="translate(10,520)" cursor="pointer">
            <title>Instagram is an American photo and video sharing social networking service.</title>
            <a xlink:href="https://www.instagram.com" href="https://www.instagram.com" target="_top"
               style="text-decoration: none; font-family:Arial; fill: #fcfcfc;">
                <polygon stroke="#7695FF" stroke-width="7"
                         class="bar shadowed raise btn_8533a097-25b0-4823-8d4f-bc56dd4d3a83_cls"
                         fill="url(#btn_8533a097-25b0-4823-8d4f-bc56dd4d3a83)"
                         points="291.73148258233545,254.80624999999998 149.60588850376178,336.86249999999995 7.480294425188106,254.80624999999998 7.480294425188077,90.69375000000005 149.60588850376175,8.637500000000017 291.7314825823354,90.69374999999994"></polygon>
                <g transform="translate(125,50) scale(1.0)">
                    <svg width="128" height="128" viewBox="0 0 64 64" fill="none" xmlns="http://www.w3.org/2000/svg">
                        <path d="M12 0C8.74 0 8.333.015 7.053.072 5.775.132 4.905.333 4.14.63c-.789.306-1.459.717-2.126 1.384S.935 3.35.63 4.14C.333 4.905.131 5.775.072 7.053.012 8.333 0 8.74 0 12s.015 3.667.072 4.947c.06 1.277.261 2.148.558 2.913.306.788.717 1.459 1.384 2.126.667.666 1.336 1.079 2.126 1.384.766.296 1.636.499 2.913.558C8.333 23.988 8.74 24 12 24s3.667-.015 4.947-.072c1.277-.06 2.148-.262 2.913-.558.788-.306 1.459-.718 2.126-1.384.666-.667 1.079-1.335 1.384-2.126.296-.765.499-1.636.558-2.913.06-1.28.072-1.687.072-4.947s-.015-3.667-.072-4.947c-.06-1.277-.262-2.149-.558-2.913-.306-.789-.718-1.459-1.384-2.126C21.319 1.347 20.651.935 19.86.63c-.765-.297-1.636-.499-2.913-.558C15.667.012 15.26 0 12 0zm0 2.16c3.203 0 3.585.016 4.85.071 1.17.055 1.805.249 2.227.415.562.217.96.477 1.382.896.419.42.679.819.896 1.381.164.422.36 1.057.413 2.227.057 1.266.07 1.646.07 4.85s-.015 3.585-.074 4.85c-.061 1.17-.256 1.805-.421 2.227-.224.562-.479.96-.899 1.382-.419.419-.824.679-1.38.896-.42.164-1.065.36-2.235.413-1.274.057-1.649.07-4.859.07-3.211 0-3.586-.015-4.859-.074-1.171-.061-1.816-.256-2.236-.421-.569-.224-.96-.479-1.379-.899-.421-.419-.69-.824-.9-1.38-.165-.42-.359-1.065-.42-2.235-.045-1.26-.061-1.649-.061-4.844 0-3.196.016-3.586.061-4.861.061-1.17.255-1.814.42-2.234.21-.57.479-.96.9-1.381.419-.419.81-.689 1.379-.898.42-.166 1.051-.361 2.221-.421 1.275-.045 1.65-.06 4.859-.06l.045.03zm0 3.678c-3.405 0-6.162 2.76-6.162 6.162 0 3.405 2.76 6.162 6.162 6.162 3.405 0 6.162-2.76 6.162-6.162 0-3.405-2.76-6.162-6.162-6.162zM12 16c-2.21 0-4-1.79-4-4s1.79-4 4-4 4 1.79 4 4-1.79 4-4 4zm7.846-10.405c0 .795-.646 1.44-1.44 1.44-.795 0-1.44-.646-1.44-1.44 0-.794.646-1.439 1.44-1.439.793-.001 1.44.645 1.44 1.439z"
                              fill="#E4405F" filter="url(#Bevel2)"></path>
                    </svg>
                </g>
                <text x="149" y="175" text-anchor="middle"
                      style="fill: #FCFCFC; font-family: Arial, Helvetica, sans-serif; font-size: 48px; font-weight: 700; font-style: normal; font-variant: small-caps; text-decoration: none;">
                    <tspan x="149" text-anchor="middle" dy="0"
                           style="fill:#FCFCFC; font-family:Arial,Helvetica, sans-serif;">Instagram
                    </tspan>
                </text>
            </a>
            <line x1="40" y1="122" x2="265" y2="122" style="stroke:#fcfcfc;stroke-width:2"></line>
            <line x1="40" y1="190" x2="265" y2="190" style="stroke:#fcfcfc;stroke-width:2"></line>
            <text x="149" y="214" text-anchor="middle"
                  style="fill: #FCFCFC; null; font-weight: bold;letter-spacing: 3px;">PHOTO BOOTH
            </text>
        </g>
        <g transform="translate(305,520)" cursor="pointer">
            <title>Microsoft Corporation is an American multinational technology corporation which produces computer
                software, consumer electronics, personal computers, and related services.
            </title>
            <a xlink:href="https://www.microsoft.com" href="https://www.microsoft.com" target="_top"
               style="text-decoration: none; font-family:Arial; fill: #fcfcfc;">
                <polygon stroke="#7695FF" stroke-width="7"
                         class="bar shadowed raise btn_f4b78807-1cbc-4c40-a0e3-91d7d3041b44_cls"
                         fill="url(#btn_f4b78807-1cbc-4c40-a0e3-91d7d3041b44)"
                         points="291.73148258233545,254.80624999999998 149.60588850376178,336.86249999999995 7.480294425188106,254.80624999999998 7.480294425188077,90.69375000000005 149.60588850376175,8.637500000000017 291.7314825823354,90.69374999999994"></polygon>
                <g transform="translate(125,50) scale(1.0)">
                    <svg width="128" height="128" viewBox="0 0 64 64" fill="none" xmlns="http://www.w3.org/2000/svg">
                        <path d="M0 0v11.408h11.408V0zm12.594 0v11.408H24V0zM0 12.594V24h11.408V12.594zm12.594 0V24H24V12.594z"
                              fill="#5E5E5E" filter="url(#Bevel2)"></path>
                    </svg>
                </g>
                <text x="149" y="175" text-anchor="middle"
                      style="fill: #FCFCFC; font-family: Arial, Helvetica, sans-serif; font-size: 48px; font-weight: 700; font-style: normal; font-variant: small-caps; text-decoration: none;">
                    <tspan x="149" text-anchor="middle" dy="0"
                           style="fill:#FCFCFC; font-family:Arial,Helvetica, sans-serif;">Microsoft
                    </tspan>
                </text>
            </a>
            <line x1="40" y1="122" x2="265" y2="122" style="stroke:#fcfcfc;stroke-width:2"></line>
            <line x1="40" y1="190" x2="265" y2="190" style="stroke:#fcfcfc;stroke-width:2"></line>
            <text x="149" y="214" text-anchor="middle"
                  style="fill: #FCFCFC; null; font-weight: bold;letter-spacing: 3px;">SOFTWARE
            </text>
        </g>
        <g transform="translate(600,520)" cursor="pointer">
            <title>Netflix, Inc. is an American subscription streaming service and production company.</title>
            <a xlink:href="https://www.netflix.com" href="https://www.netflix.com" target="_top"
               style="text-decoration: none; font-family:Arial; fill: #fcfcfc;">
                <polygon stroke="#7695FF" stroke-width="7"
                         class="bar shadowed raise btn_0b86460b-9dd9-4743-9ccc-6fa691da1f7a_cls"
                         fill="url(#btn_0b86460b-9dd9-4743-9ccc-6fa691da1f7a)"
                         points="291.73148258233545,254.80624999999998 149.60588850376178,336.86249999999995 7.480294425188106,254.80624999999998 7.480294425188077,90.69375000000005 149.60588850376175,8.637500000000017 291.7314825823354,90.69374999999994"></polygon>
                <g transform="translate(125,50) scale(1.0)">
                    <svg width="128" height="128" viewBox="0 0 64 64" fill="none" xmlns="http://www.w3.org/2000/svg">
                        <path d="M5.398 0v.006c3.028 8.556 5.37 15.175 8.348 23.596 2.344.058 4.85.398 4.854.398-2.8-7.924-5.923-16.747-8.487-24zm8.489 0v9.63L18.6 22.951c-.043-7.86-.004-15.913.002-22.95zM5.398 1.05V24c1.873-.225 2.81-.312 4.715-.398v-9.22z"
                              fill="#E50914" filter="url(#Bevel2)"></path>
                    </svg>
                </g>
                <text x="149" y="163" text-anchor="middle"
                      style="fill: #FCFCFC; font-family: Arial, Helvetica, sans-serif; font-size: 48px; font-weight: 700; font-style: normal; font-variant: small-caps; text-decoration: none;">
                    <tspan x="149" text-anchor="middle" dy="0"
                           style="fill:#FCFCFC; font-family:Arial,Helvetica, sans-serif;">Netflix is a
                    </tspan>
                    <tspan x="149" text-anchor="middle" dy="48"
                           style="fill:#FCFCFC; font-family:Arial,Helvetica, sans-serif;">theater
                    </tspan>
                </text>
            </a>
            <line x1="40" y1="110" x2="265" y2="110" style="stroke:#fcfcfc;stroke-width:2"></line>
            <line x1="40" y1="226" x2="265" y2="226" style="stroke:#fcfcfc;stroke-width:2"></line>
            <text x="149" y="250" text-anchor="middle"
                  style="fill: #FCFCFC; null; font-weight: bold;letter-spacing: 3px;">MOVIES
            </text>
        </g>
    </g>
</svg>