<svg xmlns="http://www.w3.org/2000/svg" width="190" height="32" viewBox="0 0 190 32">
    <defs>
        <linearGradient id="grad1" x2="0%" y2="100%">
            <stop class="stop1" offset="0%" stop-color="#f8f9fa"/>
            <stop class="stop2" offset="50%" stop-color="#f1f3f5"/>
            <stop class="stop3" offset="100%" stop-color="#e9ecef"/>
        </linearGradient>
        <filter id="dropShadow" filterUnits="userSpaceOnUse" width="180" height="32">
            <feDropShadow dx="0.5" dy="0.5" stdDeviation="0.5" flood-color="#0003"/>
        </filter>
    </defs>
    <!-- Main container with shadow -->
    <rect x="1" y="0" width="99%" height="100%" fill="url(#grad1)" rx="6" ry="6" />

    <!-- Clock icon -->
    <g transform="translate(2,11) scale(0.018,0.018)">
        <path d="M512 256C512 397.4 397.4 512 256 512C114.6 512 0 397.4 0 256C0 114.6 114.6 0 256 0C397.4 0 512 114.6 512 256zM256 48C141.1 48 48 141.1 48 256C48 370.9 141.1 464 256 464C370.9 464 464 370.9 464 256C464 141.1 370.9 48 256 48zM256 352C247.2 352 240 344.8 240 336V272H176C167.2 272 160 264.8 160 256C160 247.2 167.2 240 176 240H256C264.8 240 272 247.2 272 256V336C272 344.8 264.8 352 256 352z" fill="#495057"/>
    </g>

    <!-- Reading time text -->
    <g transform="translate(18,16)">
        <text style="font-family: -apple-system, BlinkMacSystemFont, 'Segoe UI', Roboto, Oxygen, Ubuntu, Cantarell, 'Open Sans', 'Helvetica Neue', sans-serif; font-size: 14px; fill: #212529;">
            <tspan x="0" y="5">Reading time:</tspan>
            <tspan x="95" y="5" style="font-weight: 600; fill: #C70039;">39 min</tspan>
        </text>
    </g>
</svg>