<svg xmlns="http://www.w3.org/2000/svg"
     width="150" height="150" viewBox="0 0 74 108">
    <defs>
        <linearGradient id="grad1" x2="0%" y2="100%">
            <stop class="stop1" offset="0%" stop-color="#bd7ffe"/>
            <stop class="stop2" offset="50%" stop-color="#9c3ffe"/>
            <stop class="stop3" offset="100%" stop-color="#7C00FE"/>
        </linearGradient>
        <linearGradient id="grad2" x2="0%" y2="100%">
            stop class="stop1" offset="0%" stop-color="#9691b5"/>
            <stop class="stop2" offset="50%" stop-color="#625a90"/>
            <stop class="stop3" offset="100%" stop-color="#2E236C"/>
        </linearGradient>
    </defs>
    <g transform="translate(0,0)">
    <svg width="36" height="36"  style="display: block;margin: 10px auto; max-width: 80%; max-height: 250px;">
        <path
              d="M18 2.0845
          a 15.9155 15.9155 0 0 1 0 31.831
              a 15.9155 15.9155 0 0 1 0 -31.831" style="fill: none;stroke: #eee;stroke-width: 3.8;"
        />
        <path
              stroke-dasharray="50, 100"
              d="M18 2.0845
          a 15.9155 15.9155 0 0 1 0 31.831
          a 15.9155 15.9155 0 0 1 0 -31.831" stroke="url(#grad1)" style="fill: none;stroke-width: 2.8; stroke-linecap: round; animation: progress 1s ease-out forwards;"
        />
        <text x="18" y="20.35" style="font-family: Arial, Helvetica,sans-serif;font-size: 0.5em;text-anchor: middle;stroke: url(#grad1)">50%</text>
    </svg>
    </g>
    <g transform="translate(36,0)">
    <svg width="36" height="36">
        <path
              d="M18 2.0845
          a 15.9155 15.9155 0 0 1 0 31.831
              a 15.9155 15.9155 0 0 1 0 -31.831" style="fill: none;stroke: #eee;stroke-width: 3.8;"
        />
        <path
              stroke-dasharray="70, 100"
              d="M18 2.0845
          a 15.9155 15.9155 0 0 1 0 31.831
          a 15.9155 15.9155 0 0 1 0 -31.831" stroke="url(#grad2)" style="fill: none;stroke-width: 2.8; stroke-linecap: round; animation: progress 1s ease-out forwards;"
        />
        <text x="18" y="20.35" style="font-family: Arial, Helvetica,sans-serif;font-size: 0.5em;text-anchor: middle; stroke: url(#grad2)">70%</text>
    </svg>
    </g>
</svg>