<svg xmlns="http://www.w3.org/2000/svg"
     width="96" height="96" viewBox="0 0 144 40">
    <defs>
        <linearGradient id="grad1" x2="0%" y2="100%">
            <stop class="stop1" offset="0%" stop-color="#bd7ffe"/>
            <stop class="stop2" offset="50%" stop-color="#9c3ffe"/>
            <stop class="stop3" offset="100%" stop-color="#7C00FE"/>
        </linearGradient>
        <linearGradient id="grad2" x2="0%" y2="100%">
            <stop class="stop1" offset="0%" stop-color="#a5b7fa"/>
            <stop class="stop2" offset="50%" stop-color="#7893f7"/>
            <stop class="stop3" offset="100%" stop-color="#4B70F5"/>
        </linearGradient>
        <linearGradient id="grad3" x2="0%" y2="100%">
            <stop class="stop1" offset="0%" stop-color="#ffbef0"/>
            <stop class="stop2" offset="50%" stop-color="#ff9ee9"/>
            <stop class="stop3" offset="100%" stop-color="#FF7EE2"/>
        </linearGradient>
        <linearGradient id="grad4" x2="0%" y2="100%">
            <stop class="stop1" offset="0%" stop-color="#f17f9c"/>
            <stop class="stop2" offset="50%" stop-color="#ea3f6b"/>
            <stop class="stop3" offset="100%" stop-color="#E4003A"/>
        </linearGradient>
    </defs>
    <rect width="100%" height="100%" fill="#091E42"/>
    <g transform="translate(0,0)">
    <svg width="36" height="36"  style="display: block;margin: 10px auto; max-width: 80%; max-height: 250px;">
        <path
              d="M18 2.0845
          a 15.9155 15.9155 0 0 1 0 31.831
              a 15.9155 15.9155 0 0 1 0 -31.831" style="fill: none;stroke: #eee;stroke-width: 3.8;"
        />
        <path
              stroke-dasharray="50, 100"
              d="M18 2.0845
          a 15.9155 15.9155 0 0 1 0 31.831
          a 15.9155 15.9155 0 0 1 0 -31.831" stroke="url(#grad1)" style="fill: none;stroke-width: 2.8; stroke-linecap: round; animation: progress 1s ease-out forwards;"
        >
            <animate attributeName="stroke-dashoffset" values="50;0" dur="2s" repeatCount="1"/>
        </path>
        <text x="18" y="20.35" style="font-family: Arial, Helvetica,sans-serif;font-size: 0.5em;text-anchor: middle;stroke: url(#grad1)">50%</text>
    </svg>
        <text x="18" y="48"  style="font-family: Arial, Helvetica,sans-serif;font-size: 0.5em;text-anchor: middle;stroke: url(#grad1); font-variant: small-caps;">Rated</text>
    </g>
    <g transform="translate(36,0)">
    <svg width="36" height="36">
        <path
              d="M18 2.0845
          a 15.9155 15.9155 0 0 1 0 31.831
              a 15.9155 15.9155 0 0 1 0 -31.831" style="fill: none;stroke: #eee;stroke-width: 3.8;"
        />
        <path
              stroke-dasharray="25, 100"
              d="M18 2.0845
          a 15.9155 15.9155 0 0 1 0 31.831
          a 15.9155 15.9155 0 0 1 0 -31.831" stroke="url(#grad2)" style="fill: none;stroke-width: 2.8; stroke-linecap: round; animation: progress 1s ease-out forwards;"
        />
        <text x="18" y="20.35" style="font-family: Arial, Helvetica,sans-serif;font-size: 0.5em;text-anchor: middle; stroke: url(#grad2)">25%</text>
    </svg>
        <text x="18" y="48"  style="font-family: Arial, Helvetica,sans-serif;font-size: 0.5em;text-anchor: middle; stroke: url(#grad2); font-variant: small-caps;">Issued</text>
    </g>
    <g transform="translate(72,0)">
    <svg width="36" height="36">
        <path
                d="M18 2.0845
          a 15.9155 15.9155 0 0 1 0 31.831
              a 15.9155 15.9155 0 0 1 0 -31.831" style="fill: none;stroke: #eee;stroke-width: 3.8;"
        />
        <path
                stroke-dasharray="20, 100"
                d="M18 2.0845
          a 15.9155 15.9155 0 0 1 0 31.831
          a 15.9155 15.9155 0 0 1 0 -31.831" stroke="url(#grad3)" style="fill: none;stroke-width: 2.8; stroke-linecap: round; animation: progress 1s ease-out forwards;"
        />
        <text x="18" y="20.35" style="font-family: Arial, Helvetica,sans-serif;font-size: 0.5em;text-anchor: middle; stroke: url(#grad3)">20%</text>
    </svg>
    <text x="18" y="48"  style="font-family: Arial, Helvetica,sans-serif;font-size: 0.5em;text-anchor: middle; stroke: url(#grad3); font-variant: small-caps;">Sold</text>
    </g>
    <g transform="translate(108,0)">
        <svg width="36" height="36">
            <path
                    d="M18 2.0845
          a 15.9155 15.9155 0 0 1 0 31.831
              a 15.9155 15.9155 0 0 1 0 -31.831" style="fill: none;stroke: #eee;stroke-width: 3.8;"
            />
            <path
                    stroke-dasharray="5, 100"
                    d="M18 2.0845
          a 15.9155 15.9155 0 0 1 0 31.831
          a 15.9155 15.9155 0 0 1 0 -31.831" stroke="url(#grad4)" style="fill: none;stroke-width: 2.8; stroke-linecap: round; animation: progress 1s ease-out forwards;"
            ><animate attributeName="stroke-dashoffset" values="5;0" dur="2s" repeatCount="1"/>
            </path>
            <text x="18" y="20.35" style="font-family: Arial, Helvetica,sans-serif;font-size: 0.5em;text-anchor: middle; stroke: url(#grad4)">5%</text>
        </svg>
        <text x="18" y="48"  style="font-family: Arial, Helvetica,sans-serif;font-size: 0.5em;text-anchor: middle; stroke: url(#grad4); font-variant: small-caps;">Rejected</text>
    </g>
</svg>