<svg xmlns="http://www.w3.org/2000/svg" xmlns:xlink="http://www.w3.org/1999/xlink"
     width="850.5" height="268"
     viewBox="0 0 1701 537.1">
    <g transform="translate(10, 20)">
    <rect x="0" y="0" fill="#fcfcfc" height="360" width="552" rx="5" ry="5"
          style="fill: #fcfcfc; font-family: Arial, Helvetica, sans-serif; stroke: #0D9276;stroke-width: 2;"/>
        <path d="M 0 5.0 A 5.0 5.0 0 0 1 5.0 0 L 547.0 0 A 5.0 5.0 0 0 1 552.0 5.0 L 552.0 54.0 A 0.0 0.0 0 0 1 552.0 54.0 L 0.0 54.0 A 0.0 0.0 0 0 1 0 54.0 Z
" fill="#0D9276"/>
        <text x="20" y="36" style="font-family: Arial, Helvetica, sans-serif; fill: #fcfcfc; font-size: 36;">Form Property Service</text>
    </g>
    <g transform="translate(572, 20)">
        <rect x="0" y="0" fill="#fcfcfc" height="360" width="552" rx="5" ry="5"
              style="fill: #fcfcfc; font-family: Arial, Helvetica, sans-serif; stroke: #D63484;stroke-width: 2;"/>
        <path d="M 0 5.0 A 5.0 5.0 0 0 1 5.0 0 L 547.0 0 A 5.0 5.0 0 0 1 552.0 5.0 L 552.0 54.0 A 0.0 0.0 0 0 1 552.0 54.0 L 0.0 54.0 A 0.0 0.0 0 0 1 0 54.0 Z
" fill="#D63484"/>
        <text x="20" y="36" style="font-family: Arial, Helvetica, sans-serif; fill: #fcfcfc; font-size: 36;">Governance</text>
    </g>
    <g transform="translate(1134, 20)">
        <rect x="0" y="0" fill="#fcfcfc" height="360" width="552" rx="5" ry="5"
              style="fill: #fcfcfc; font-family: Arial, Helvetica, sans-serif; stroke: #FA1E0E;stroke-width: 2;"/>
        <path d="M 0 5.0 A 5.0 5.0 0 0 1 5.0 0 L 547.0 0 A 5.0 5.0 0 0 1 552.0 5.0 L 552.0 54.0 A 0.0 0.0 0 0 1 552.0 54.0 L 0.0 54.0 A 0.0 0.0 0 0 1 0 54.0 Z
" fill="#FA1E0E"/>
        <text x="20" y="36" style="font-family: Arial, Helvetica, sans-serif; fill: #fcfcfc; font-size: 36;">Docker</text>
    </g>
</svg>