<svg xmlns="http://www.w3.org/2000/svg" xmlns:xlink="http://www.w3.org/1999/xlink" width="662.0" height="801.0" viewBox="0 0 662.0 801.0">        <defs><linearGradient id="headerTitleBar" x2="0%" y2="100%"><stop class="stop1" offset="0%" stop-color="#f8d8c4"/><stop class="stop2" offset="50%" stop-color="#f5c5a7"/><stop class="stop3" offset="100%" stop-color="#f2b28a"/></linearGradient><linearGradient id="headerEight" x2="0%" y2="100%"><stop class="stop1" offset="0%" stop-color="#ffb79a"/><stop class="stop2" offset="50%" stop-color="#ff9368"/><stop class="stop3" offset="100%" stop-color="#FF6F36"/></linearGradient><linearGradient x1="62.342285" y1="8.8261719" x2="62.342281" y2="61.276535" id="linearGradient4619" gradientUnits="userSpaceOnUse"><stop id="stop4621" style="stop-color:#ffffff;stop-opacity:1" offset="0"/><stop id="stop4623" style="stop-color:#45a98f;stop-opacity:1" offset="1"/></linearGradient><linearGradient id="blackPurple" x1="62.342285" y1="8.8261719" x2="62.342281" y2="61.276535" gradientUnits="userSpaceOnUse"><stop class="stop1" stop-color="#ffffff" offset="0"/><stop class="stop3" offset="1" stop-color="#6b587d"/></linearGradient><linearGradient id="headerDark" x1="62.342285" y1="8.8261719" x2="62.342281" y2="61.276535"  gradientUnits="userSpaceOnUse"><stop class="stop1" offset="0%" stop-color="#8b9195"/><stop class="stop2" offset="50%" stop-color="#515a60"/><stop class="stop3" offset="100%" stop-color="#17242b"/></linearGradient><linearGradient id="headerLight" x2="0%" y2="100%" gradientUnits="userSpaceOnUse"><stop class="stop1" offset="0%" stop-color="#ddd1bf"/><stop class="stop2" offset="50%" stop-color="#ccba9f"/><stop class="stop3" offset="100%" stop-color="#BCA37F"/></linearGradient><filter id="dark-shadow" x="0" y="0" width="200%" height="200%"><feDropShadow dx="3" dy="3" stdDeviation="1" flood-color="#000000" flood-opacity="1" /></filter><filter id="shadow" x="0" y="0" width="200%" height="200%"><feDropShadow dx="3" dy="3" stdDeviation="1" flood-color="#000000" flood-opacity="1" /></filter><linearGradient id="grad26" x2="0%" y2="100%"><stop stop-color="#f8fafb" stop-opacity="0.5" offset="0%"/><stop stop-color="hsl(200.0,27.3%,97.8%)" stop-opacity="1" offset="100%"/></linearGradient><style>.now { fill: #0D9276; font-family: Arial, Helvetica, sans-serif; stroke: #0D9276; text-anchor: middle; font-weight: bold; filter: drop-shadow(3px 3px 2px rgba(0, 0, 0, .2));}.nowBox { fill: #fcfcfc; font-family: Arial, Helvetica, sans-serif; stroke: #0D9276;stroke-width: 2; }.next { fill: #D63484; font-family: Arial, Helvetica, sans-serif; stroke: #D63484; text-anchor: middle; font-weight: bold; filter: drop-shadow(3px 3px 2px rgba(0, 0, 0, .2));}.nextBox { fill: #fcfcfc; font-family: Arial, Helvetica, sans-serif; stroke: #D63484; stroke-width: 2; text-anchor: middle; font-weight: bold; }.later { fill: #5F0F40; font-family: Arial, Helvetica, sans-serif; stroke: #5F0F40; text-anchor: middle; font-weight: bold; filter: drop-shadow(3px 3px 2px rgba(0, 0, 0, .2));}.laterBox { fill: #fcfcfc; font-family: Arial, Helvetica, sans-serif; stroke: #5F0F40; stroke-width: 2; text-anchor: middle; font-weight: bold; }.doneBox { fill: #fcfcfc; font-family: Arial, Helvetica, sans-serif; stroke: #3559E0; stroke-width: 2; }.primaryRoad { font-family: Arial, Helvetica, sans-serif; font-size: 12px; fill: #0D9276; filter: drop-shadow(3px 3px 2px rgba(0, 0, 0, .2));}.secondaryRoad{ font-family: Arial, Helvetica, sans-serif; font-size: 12px; fill: #D63484; filter: drop-shadow(3px 3px 2px rgba(0, 0, 0, .2));}.tertiaryRoad { font-family: Arial, Helvetica, sans-serif; font-size: 12px; fill: #5F0F40; filter: drop-shadow(3px 3px 2px rgba(0, 0, 0, .2));}.doneRoad { font-family: Arial, Helvetica, sans-serif; font-size: 12px; fill: #3559E0; filter: drop-shadow(3px 3px 2px rgba(0, 0, 0, .2));}.doneTitle { fill: #4076ff; font-family: Arial, Helvetica, sans-serif; stroke: #4076ff;  font-weight: bold; filter: drop-shadow(3px 3px 2px rgba(0, 0, 0, .2));}.rmLink { fill: blue; text-decoration: underline; }.glass:after, .glass:before {content: "";display: block;position: absolute}.glass {overflow: hidden;color: #fff;text-shadow: 0 1px 2px rgba(0, 0, 0, .7);background-image: radial-gradient(circle at center, rgba(0, 167, 225, .25), rgba(0, 110, 149, .5));box-shadow: 0 5px 10px rgba(0, 0, 0, .75), inset 0 0 0 2px rgba(0, 0, 0, .3), inset 0 -6px 6px -3px rgba(0, 129, 174, .2);position: relative}.glass:after {background: rgba(0, 167, 225, .2);z-index: 0;height: 100%;width: 100%;top: 0;left: 0;backdrop-filter: blur(3px) saturate(400%);-webkit-backdrop-filter: blur(3px) saturate(400%)}.glass:before {width: calc(100% - 4px);height: 35px;background-image: linear-gradient(rgba(255, 255, 255, .7), rgba(255, 255, 255, 0));top: 2px;left: 2px;border-radius: 30px 30px 200px 200px;opacity: .7}.glass:hover {text-shadow: 0 1px 2px rgba(0, 0, 0, .9)}.glass:hover:before {opacity: 1}.glass:active {text-shadow: 0 0 2px rgba(0, 0, 0, .9);box-shadow: 0 3px 8px rgba(0, 0, 0, .75), inset 0 0 0 2px rgba(0, 0, 0, .3), inset 0 -6px 6px -3px rgba(0, 129, 174, .2)}.glass:active:before {height: 25px}.shadowed {-webkit-filter: drop-shadow( 3px 3px 2px rgba(0, 0, 0, .2));filter: drop-shadow(3px 3px 2px rgba(0, 0, 0, .2));}.dark-shadowed {-webkit-filter: drop-shadow( 0px 3px 2px rgba(0, 0, 0, .7));filter: drop-shadow(3px 3px 2px rgba(0, 0, 0, 1.0));}</style><polygon id="ppoint" points="0,5 1.6666666666666667,2.5 0,0 5,2.5" stroke-width="5"/></defs><rect width="100%" height="100%" fill="#f8fafb" opacity="1.0" class='dark-shadowed' stroke="#f8fafb" stroke-width="5"/><g transform='scale(1.0)' class='shadowed'><g transform="translate(26,105)"><rect x="0" y="0" fill="#fcfcfc" class="nowBox" height="120" width="184" rx="5" ry="5"/><path d="M 0 5.0 A 5.0 5.0 0 0 1 5.0 0 L 179.0 0 A 5.0 5.0 0 0 1 184.0 5.0 L 184.0 18.0 A 0.0 0.0 0 0 1 184.0 18.0 L 0.0 18.0 A 0.0 0.0 0 0 1 0 18.0 Z"  fill="#0D9276"/><text x="2" y="2" class="primaryRoad" fill="#421A56"><tspan x="2" dy="12" fill="#fcfcfc">Form Property Service</tspan><tspan x="2" dy="18" > Determine consuming</tspan><tspan x="2" dy="12" >applications for Form Property</tspan><tspan x="2" dy="12" >Service &amp; Customer inquiry</tspan><tspan x="2" dy="12" >Service</tspan></text><rect x="210" y="0" fill="#fcfcfc" class="nextBox" height="120" width="184" rx="5" ry="5"/><g transform="translate(210,0)"><path d="M 0 5.0 A 5.0 5.0 0 0 1 5.0 0 L 179.0 0 A 5.0 5.0 0 0 1 184.0 5.0 L 184.0 18.0 A 0.0 0.0 0 0 1 184.0 18.0 L 0.0 18.0 A 0.0 0.0 0 0 1 0 18.0 Z" fill="#D63484"/></g><text x="212" y="2" class="secondaryRoad"><tspan x="212" dy="12" fill="#fcfcfc">Governance</tspan><tspan x="212" dy="18" > take these Form Property</tspan><tspan x="212" dy="12" >Service feature and customer</tspan><tspan x="212" dy="12" >inquiry service to governance</tspan></text><g transform="translate(200,47)"><use xlink:href="#ppoint" stroke-width="5" stroke="#D63484"/></g><line x1="186" y1="50" x2="200" y2="50" stroke="#D63484" stroke-width="8" /><rect x="420" y="0" fill="#fcfcfc" class="laterBox" height="120" width="184" rx="5" ry="5"/><g transform="translate(420,0)"><path d="M 0 5.0 A 5.0 5.0 0 0 1 5.0 0 L 179.0 0 A 5.0 5.0 0 0 1 184.0 5.0 L 184.0 18.0 A 0.0 0.0 0 0 1 184.0 18.0 L 0.0 18.0 A 0.0 0.0 0 0 1 0 18.0 Z"  fill="#5F0F40"/></g><text x="422" y="2" class="tertiaryRoad"><tspan x="422" dy="12" fill="#fcfcfc">Docker</tspan><tspan x="422" dy="18" > Use common docker image to</tspan><tspan x="422" dy="12" >streamline the process.</tspan></text> <g transform="translate(410,47)"><use xlink:href="#ppoint" stroke-width="5" stroke="#5F0F40"/></g><line x1="396" y1="50" x2="410" y2="50" stroke="#5F0F40" stroke-width="8" /></g><g transform="translate(26,230)"><rect x="0" y="0" fill="#fcfcfc" class="nowBox" height="120" width="184" rx="5" ry="5"/><path d="M 0 5.0 A 5.0 5.0 0 0 1 5.0 0 L 179.0 0 A 5.0 5.0 0 0 1 184.0 5.0 L 184.0 18.0 A 0.0 0.0 0 0 1 184.0 18.0 L 0.0 18.0 A 0.0 0.0 0 0 1 0 18.0 Z"  fill="#0D9276"/><text x="2" y="2" class="primaryRoad" fill="#421A56"><tspan x="2" dy="12" fill="#fcfcfc">Form Property Service Dep</tspan><tspan x="2" dy="18" > analyze Form Property Service</tspan><tspan x="2" dy="12" >for their dependencies -</tspan><tspan x="2" dy="12" >Patrick analyze customer</tspan><tspan x="2" dy="12" >inquiry search for cloud</tspan><tspan x="2" dy="12" >dependencies.</tspan></text><rect x="210" y="0" fill="#fcfcfc" class="nextBox" height="120" width="184" rx="5" ry="5"/><g transform="translate(210,0)"><path d="M 0 5.0 A 5.0 5.0 0 0 1 5.0 0 L 179.0 0 A 5.0 5.0 0 0 1 184.0 5.0 L 184.0 18.0 A 0.0 0.0 0 0 1 184.0 18.0 L 0.0 18.0 A 0.0 0.0 0 0 1 0 18.0 Z" fill="#D63484"/></g><text x="212" y="2" class="secondaryRoad"><tspan x="212" dy="12" fill="#fcfcfc">&#xa0;</tspan><tspan x="212" dy="18" > start iBob process, Surekha</tspan><tspan x="212" dy="12" >for both application</tspan></text><rect x="420" y="0" fill="#fcfcfc" class="laterBox" height="120" width="184" rx="5" ry="5"/><g transform="translate(420,0)"><path d="M 0 5.0 A 5.0 5.0 0 0 1 5.0 0 L 179.0 0 A 5.0 5.0 0 0 1 184.0 5.0 L 184.0 18.0 A 0.0 0.0 0 0 1 184.0 18.0 L 0.0 18.0 A 0.0 0.0 0 0 1 0 18.0 Z"  fill="#5F0F40"/></g><text x="422" y="2" class="tertiaryRoad"><tspan x="422" dy="12" fill="#fcfcfc">&#xa0;</tspan><tspan x="422" dy="18" > refactor displayConfigUrl to</tspan><tspan x="422" dy="12" >displayTheme</tspan></text></g><g transform="translate(26,355)"><rect x="0" y="0" fill="#fcfcfc" class="nowBox" height="120" width="184" rx="5" ry="5"/><path d="M 0 5.0 A 5.0 5.0 0 0 1 5.0 0 L 179.0 0 A 5.0 5.0 0 0 1 184.0 5.0 L 184.0 18.0 A 0.0 0.0 0 0 1 184.0 18.0 L 0.0 18.0 A 0.0 0.0 0 0 1 0 18.0 Z"  fill="#0D9276"/><text x="2" y="2" class="primaryRoad" fill="#421A56"><tspan x="2" dy="12" fill="#fcfcfc">&#xa0;</tspan><tspan x="2" dy="18" > image embed slim</tspan></text><rect x="210" y="0" fill="#fcfcfc" class="nextBox" height="120" width="184" rx="5" ry="5"/><g transform="translate(210,0)"><path d="M 0 5.0 A 5.0 5.0 0 0 1 5.0 0 L 179.0 0 A 5.0 5.0 0 0 1 184.0 5.0 L 184.0 18.0 A 0.0 0.0 0 0 1 184.0 18.0 L 0.0 18.0 A 0.0 0.0 0 0 1 0 18.0 Z" fill="#D63484"/></g><text x="212" y="2" class="secondaryRoad"><tspan x="212" dy="12" fill="#fcfcfc">&#xa0;</tspan><tspan x="212" dy="18" > color background roadmap</tspan></text></g><text x="105" y="100" class="now">NOW</text><text x="324.5" y="100" class="next" text-anchor="middle">NEXT</text><text x="534.5" y="100" class="later" text-anchor="middle">LATER</text><rect x="0" y="0" stroke-width="0" fill="url(#grad26)"  height="80" width="662" opacity="1.0"/><text x="331" y="60" font-family=" Arial, Helvetica, sans-serif" font-size="24" class="glass shadowed" fill="#000000" text-anchor="middle" font-variant="small-caps">OKTA Progress</text> <text x="331" y="501" font-family=" Arial, Helvetica, sans-serif" font-size="20" class="doneTitle" fill="#000000" text-anchor="middle">COMPLETED</text> <g transform="translate(26,521)"><rect x="0" y="0" fill="#fcfcfc" class="doneBox" height="120" width="184" rx="5" ry="5"/><g transform="translate(0,0)"><path d="M 0 5.0 A 5.0 5.0 0 0 1 5.0 0 L 179.0 0 A 5.0 5.0 0 0 1 184.0 5.0 L 184.0 18.0 A 0.0 0.0 0 0 1 184.0 18.0 L 0.0 18.0 A 0.0 0.0 0 0 1 0 18.0 Z" fill="#3559E0"/></g><text x="2" y="2" class="doneRoad" fill="#421A56"><tspan x="2" dy="12" fill="#fcfcfc">&#xa0;</tspan><tspan x="2" dy="18" > dockerize Form property</tspan><tspan x="2" dy="12" >service build spring boot 3</tspan><tspan x="2" dy="12" >version of application analyze</tspan><tspan x="2" dy="12" >black duck results</tspan></text><rect x="210" y="0" fill="#fcfcfc" class="doneBox" height="120" width="184" rx="5" ry="5"/><g transform="translate(210,0)"><path d="M 0 5.0 A 5.0 5.0 0 0 1 5.0 0 L 179.0 0 A 5.0 5.0 0 0 1 184.0 5.0 L 184.0 18.0 A 0.0 0.0 0 0 1 184.0 18.0 L 0.0 18.0 A 0.0 0.0 0 0 1 0 18.0 Z" fill="#3559E0"/></g><text x="212" y="2" class="doneRoad" fill="#421A56"><tspan x="212" dy="12" fill="#fcfcfc">Image</tspan><tspan x="212" dy="18" > image embed rectangle</tspan></text><rect x="420" y="0" fill="#fcfcfc" class="doneBox" height="120" width="184" rx="5" ry="5"/><g transform="translate(420,0)"><path d="M 0 5.0 A 5.0 5.0 0 0 1 5.0 0 L 179.0 0 A 5.0 5.0 0 0 1 184.0 5.0 L 184.0 18.0 A 0.0 0.0 0 0 1 184.0 18.0 L 0.0 18.0 A 0.0 0.0 0 0 1 0 18.0 Z" fill="#3559E0"/></g><text x="422" y="2" class="doneRoad" fill="#421A56"><tspan x="422" dy="12" fill="#fcfcfc">Car</tspan><tspan x="422" dy="18" > remove car from release</tspan><tspan x="422" dy="12" >strategy</tspan></text></g><g transform="translate(26,647)"><rect x="0" y="0" fill="#fcfcfc" class="doneBox" height="120" width="184" rx="5" ry="5"/><g transform="translate(0,0)"><path d="M 0 5.0 A 5.0 5.0 0 0 1 5.0 0 L 179.0 0 A 5.0 5.0 0 0 1 184.0 5.0 L 184.0 18.0 A 0.0 0.0 0 0 1 184.0 18.0 L 0.0 18.0 A 0.0 0.0 0 0 1 0 18.0 Z" fill="#3559E0"/></g><text x="2" y="2" class="doneRoad" fill="#421A56"><tspan x="2" dy="12" fill="#fcfcfc">&#xa0;</tspan><tspan x="2" dy="18" > pass in theme (light,dark)</tspan></text></g></g></svg>