<svg xmlns="http://www.w3.org/2000/svg" xmlns:xlink="http://www.w3.org/1999/xlink" width="662.0" height="801.0" viewBox="0 0 662.0 801.0"><defs><polygon id="ppoint" points="0,5 1.6666666666666667,2.5 0,0 5,2.5" stroke-width="5"/></defs><rect width="100%" height="100%" fill="#f8fafb" opacity="1.0"  stroke="#f8fafb" stroke-width="0"/><g transform='scale(1.0)'><g transform="translate(26,105)"><rect x="0" y="0" fill="#fcfcfc" height="120" width="184" rx="5" ry="5" style="fill: #fcfcfc; font-family: Arial, Helvetica, sans-serif; stroke: #0D9276;stroke-width: 2;"/><path d="M 0 5.0 A 5.0 5.0 0 0 1 5.0 0 L 179.0 0 A 5.0 5.0 0 0 1 184.0 5.0 L 184.0 18.0 A 0.0 0.0 0 0 1 184.0 18.0 L 0.0 18.0 A 0.0 0.0 0 0 1 0 18.0 Z"  fill="#0D9276"/><text x="2" y="2" fill="#421A56" style="font-family: Arial, Helvetica, sans-serif; font-size: 12px; fill: #0D9276; "><tspan x="2" dy="12" fill="#fcfcfc">Form Property Service</tspan><tspan x="2" dy="18" > Determine consuming</tspan><tspan x="2" dy="12" >applications for Form Property</tspan><tspan x="2" dy="12" >Service &amp; Customer inquiry</tspan><tspan x="2" dy="12" >Service</tspan></text><rect x="210" y="0" fill="#fcfcfc" height="120" width="184" rx="5" ry="5" style="fill: #fcfcfc; font-family: Arial, Helvetica, sans-serif; stroke: #D63484; stroke-width: 2; text-anchor: middle; font-weight: bold; "/><g transform="translate(210,0)"><path d="M 0 5.0 A 5.0 5.0 0 0 1 5.0 0 L 179.0 0 A 5.0 5.0 0 0 1 184.0 5.0 L 184.0 18.0 A 0.0 0.0 0 0 1 184.0 18.0 L 0.0 18.0 A 0.0 0.0 0 0 1 0 18.0 Z" fill="#D63484"/></g><text x="212" y="2" style="font-family: Arial, Helvetica, sans-serif; font-size: 12px; fill: #D63484;"><tspan x="212" dy="12" fill="#fcfcfc">Governance</tspan><tspan x="212" dy="18" > take these Form Property</tspan><tspan x="212" dy="12" >Service feature and customer</tspan><tspan x="212" dy="12" >inquiry service to governance</tspan></text><g transform="translate(200,47)"><use xlink:href="#ppoint" stroke-width="5" stroke="#D63484"/></g><line x1="186" y1="50" x2="200" y2="50" stroke="#D63484" stroke-width="8" /><rect x="420" y="0" fill="#fcfcfc" height="120" width="184" rx="5" ry="5" style="fill: #fcfcfc; font-family: Arial, Helvetica, sans-serif; stroke: #FA1E0E; stroke-width: 2; text-anchor: middle; font-weight: bold; "/><g transform="translate(420,0)"><path d="M 0 5.0 A 5.0 5.0 0 0 1 5.0 0 L 179.0 0 A 5.0 5.0 0 0 1 184.0 5.0 L 184.0 18.0 A 0.0 0.0 0 0 1 184.0 18.0 L 0.0 18.0 A 0.0 0.0 0 0 1 0 18.0 Z"  fill="#FA1E0E"/></g><text x="422" y="2" style="font-family: Arial, Helvetica, sans-serif; font-size: 12px; fill: #FA1E0E;"><tspan x="422" dy="12" fill="#fcfcfc">Docker</tspan><tspan x="422" dy="18" > Use common docker image to</tspan><tspan x="422" dy="12" >streamline the process.</tspan></text> <g transform="translate(410,47)"><use xlink:href="#ppoint" stroke-width="5" stroke="#FA1E0E"/></g><line x1="396" y1="50" x2="410" y2="50" stroke="#FA1E0E" stroke-width="8" /></g><g transform="translate(26,230)"><rect x="0" y="0" fill="#fcfcfc" height="120" width="184" rx="5" ry="5" style="fill: #fcfcfc; font-family: Arial, Helvetica, sans-serif; stroke: #0D9276;stroke-width: 2;"/><path d="M 0 5.0 A 5.0 5.0 0 0 1 5.0 0 L 179.0 0 A 5.0 5.0 0 0 1 184.0 5.0 L 184.0 18.0 A 0.0 0.0 0 0 1 184.0 18.0 L 0.0 18.0 A 0.0 0.0 0 0 1 0 18.0 Z"  fill="#0D9276"/><text x="2" y="2" fill="#421A56" style="font-family: Arial, Helvetica, sans-serif; font-size: 12px; fill: #0D9276; "><tspan x="2" dy="12" fill="#fcfcfc">Form Property Service Dep</tspan><tspan x="2" dy="18" > analyze Form Property Service</tspan><tspan x="2" dy="12" >for their dependencies -</tspan><tspan x="2" dy="12" >Patrick analyze customer</tspan><tspan x="2" dy="12" >inquiry search for cloud</tspan><tspan x="2" dy="12" >dependencies.</tspan></text><rect x="210" y="0" fill="#fcfcfc" height="120" width="184" rx="5" ry="5" style="fill: #fcfcfc; font-family: Arial, Helvetica, sans-serif; stroke: #D63484; stroke-width: 2; text-anchor: middle; font-weight: bold; "/><g transform="translate(210,0)"><path d="M 0 5.0 A 5.0 5.0 0 0 1 5.0 0 L 179.0 0 A 5.0 5.0 0 0 1 184.0 5.0 L 184.0 18.0 A 0.0 0.0 0 0 1 184.0 18.0 L 0.0 18.0 A 0.0 0.0 0 0 1 0 18.0 Z" fill="#D63484"/></g><text x="212" y="2" style="font-family: Arial, Helvetica, sans-serif; font-size: 12px; fill: #D63484;"><tspan x="212" dy="12" fill="#fcfcfc">&#xa0;</tspan><tspan x="212" dy="18" > start iBob process, Surekha</tspan><tspan x="212" dy="12" >for both application</tspan></text><rect x="420" y="0" fill="#fcfcfc" height="120" width="184" rx="5" ry="5" style="fill: #fcfcfc; font-family: Arial, Helvetica, sans-serif; stroke: #FA1E0E; stroke-width: 2; text-anchor: middle; font-weight: bold; "/><g transform="translate(420,0)"><path d="M 0 5.0 A 5.0 5.0 0 0 1 5.0 0 L 179.0 0 A 5.0 5.0 0 0 1 184.0 5.0 L 184.0 18.0 A 0.0 0.0 0 0 1 184.0 18.0 L 0.0 18.0 A 0.0 0.0 0 0 1 0 18.0 Z"  fill="#FA1E0E"/></g><text x="422" y="2" style="font-family: Arial, Helvetica, sans-serif; font-size: 12px; fill: #FA1E0E;"><tspan x="422" dy="12" fill="#fcfcfc">&#xa0;</tspan><tspan x="422" dy="18" > refactor displayConfigUrl to</tspan><tspan x="422" dy="12" >displayTheme</tspan></text></g><g transform="translate(26,355)"><rect x="0" y="0" fill="#fcfcfc" height="120" width="184" rx="5" ry="5" style="fill: #fcfcfc; font-family: Arial, Helvetica, sans-serif; stroke: #0D9276;stroke-width: 2;"/><path d="M 0 5.0 A 5.0 5.0 0 0 1 5.0 0 L 179.0 0 A 5.0 5.0 0 0 1 184.0 5.0 L 184.0 18.0 A 0.0 0.0 0 0 1 184.0 18.0 L 0.0 18.0 A 0.0 0.0 0 0 1 0 18.0 Z"  fill="#0D9276"/><text x="2" y="2" fill="#421A56" style="font-family: Arial, Helvetica, sans-serif; font-size: 12px; fill: #0D9276; "><tspan x="2" dy="12" fill="#fcfcfc">&#xa0;</tspan><tspan x="2" dy="18" > image embed slim</tspan></text><rect x="210" y="0" fill="#fcfcfc" height="120" width="184" rx="5" ry="5" style="fill: #fcfcfc; font-family: Arial, Helvetica, sans-serif; stroke: #D63484; stroke-width: 2; text-anchor: middle; font-weight: bold; "/><g transform="translate(210,0)"><path d="M 0 5.0 A 5.0 5.0 0 0 1 5.0 0 L 179.0 0 A 5.0 5.0 0 0 1 184.0 5.0 L 184.0 18.0 A 0.0 0.0 0 0 1 184.0 18.0 L 0.0 18.0 A 0.0 0.0 0 0 1 0 18.0 Z" fill="#D63484"/></g><text x="212" y="2" style="font-family: Arial, Helvetica, sans-serif; font-size: 12px; fill: #D63484;"><tspan x="212" dy="12" fill="#fcfcfc">&#xa0;</tspan><tspan x="212" dy="18" > color background roadmap</tspan></text></g><text x="105" y="100"  style="fill: #0D9276; font-family: Arial, Helvetica, sans-serif; stroke: #0D9276; text-anchor: middle; font-weight: bold;">NOW</text><text x="324.5" y="100"  text-anchor="middle" style="fill: #D63484; font-family: Arial, Helvetica, sans-serif; stroke: #D63484; text-anchor: middle; font-weight: bold;">NEXT</text><text x="534.5" y="100"  text-anchor="middle" style="fill: #FA1E0E; font-family: Arial, Helvetica, sans-serif; stroke: #FA1E0E; text-anchor: middle; font-weight: bold;">LATER</text><rect x="0" y="0" stroke-width="0" fill="#f8fafb"  height="80" width="662" opacity="1.0"/><text x="331" y="60" style="font-family:Arial, Helvetica, sans-serif; font-size:24; fill:#000000; text-anchor:middle; font-variant:small-caps;">OKTA Progress</text> <text x="331" y="501" font-family=" Arial, Helvetica, sans-serif" font-size="20" fill="#000000" text-anchor="middle" style="fill: #4076ff; font-family: Arial, Helvetica, sans-serif; stroke: #4076ff;  font-weight: bold;">COMPLETED</text> <g transform="translate(26,521)"><rect x="0" y="0" fill="#fcfcfc" height="120" width="184" rx="5" ry="5" style="fill: #fcfcfc; font-family: Arial, Helvetica, sans-serif; stroke: #3559E0; stroke-width: 2;"/><g transform="translate(0,0)"><path d="M 0 5.0 A 5.0 5.0 0 0 1 5.0 0 L 179.0 0 A 5.0 5.0 0 0 1 184.0 5.0 L 184.0 18.0 A 0.0 0.0 0 0 1 184.0 18.0 L 0.0 18.0 A 0.0 0.0 0 0 1 0 18.0 Z" fill="#3559E0"/></g><text x="2" y="2" fill="#421A56" style="font-family: Arial, Helvetica, sans-serif; font-size: 12px; fill: #3559E0;"><tspan x="2" dy="12" fill="#fcfcfc">&#xa0;</tspan><tspan x="2" dy="18" > dockerize Form property</tspan><tspan x="2" dy="12" >service build spring boot 3</tspan><tspan x="2" dy="12" >version of application analyze</tspan><tspan x="2" dy="12" >black duck results</tspan></text><rect x="210" y="0" fill="#fcfcfc" height="120" width="184" rx="5" ry="5" style="fill: #fcfcfc; font-family: Arial, Helvetica, sans-serif; stroke: #3559E0; stroke-width: 2; "/><g transform="translate(210,0)"><path d="M 0 5.0 A 5.0 5.0 0 0 1 5.0 0 L 179.0 0 A 5.0 5.0 0 0 1 184.0 5.0 L 184.0 18.0 A 0.0 0.0 0 0 1 184.0 18.0 L 0.0 18.0 A 0.0 0.0 0 0 1 0 18.0 Z" fill="#3559E0"/></g><text x="212" y="2" fill="#421A56" style="font-family: Arial, Helvetica, sans-serif; font-size: 12px; fill: #3559E0;"><tspan x="212" dy="12" fill="#fcfcfc">Image</tspan><tspan x="212" dy="18" > image embed rectangle</tspan></text><rect x="420" y="0" fill="#fcfcfc"  height="120" width="184" rx="5" ry="5" style="fill: #fcfcfc; font-family: Arial, Helvetica, sans-serif; stroke: #3559E0; stroke-width: 2; "/><g transform="translate(420,0)"><path d="M 0 5.0 A 5.0 5.0 0 0 1 5.0 0 L 179.0 0 A 5.0 5.0 0 0 1 184.0 5.0 L 184.0 18.0 A 0.0 0.0 0 0 1 184.0 18.0 L 0.0 18.0 A 0.0 0.0 0 0 1 0 18.0 Z" fill="#3559E0"/></g><text x="422" y="2" fill="#421A56" style="font-family: Arial, Helvetica, sans-serif; font-size: 12px; fill: #3559E0;"><tspan x="422" dy="12" fill="#fcfcfc">Car</tspan><tspan x="422" dy="18" > remove car from release</tspan><tspan x="422" dy="12" >strategy</tspan></text></g><g transform="translate(26,647)"><rect x="0" y="0" fill="#fcfcfc" height="120" width="184" rx="5" ry="5" style="fill: #fcfcfc; font-family: Arial, Helvetica, sans-serif; stroke: #3559E0; stroke-width: 2;"/><g transform="translate(0,0)"><path d="M 0 5.0 A 5.0 5.0 0 0 1 5.0 0 L 179.0 0 A 5.0 5.0 0 0 1 184.0 5.0 L 184.0 18.0 A 0.0 0.0 0 0 1 184.0 18.0 L 0.0 18.0 A 0.0 0.0 0 0 1 0 18.0 Z" fill="#3559E0"/></g><text x="2" y="2" fill="#421A56" style="font-family: Arial, Helvetica, sans-serif; font-size: 12px; fill: #3559E0;"><tspan x="2" dy="12" fill="#fcfcfc">&#xa0;</tspan><tspan x="2" dy="18" > pass in theme (light,dark)</tspan></text></g></g></svg>