<svg xmlns="http://www.w3.org/2000/svg" width="685.39996" height="588.0"
     viewBox="0 0 685.39996 588.0" xmlns:xlink="http://www.w3.org/1999/xlink">

    <defs>
        <marker id="arrowhead1" markerWidth="2" markerHeight="5" refX="0" refY="1.5" orient="auto">
            <polygon points="0 0, 1 1.5, 0 3" fill="#e0349c"/>
        </marker>
        <style>
            .workitem {
                filter: drop-shadow(3px 5px 2px rgb(0 0 0 / 0.4));
            }
            .workitem :hover {
                opacity: 0.5;
                stroke-opacity: 1.7;
                stroke-width: 3;
                stroke: #bd5d5d;
            }
        </style>
    </defs>
    <rect width="100%" height="100%" fill="#2A1E36" opacity="1.0" ry="18" rx="18"/>
    <text x="340" y="20" font-family="Helvetica" text-anchor="middle" font-variant="small-caps" font-weight="bold" fill="#5f57ff">Digital Policy Service</text>
    <text x="150" y="40" font-family="Helvetica" text-anchor="middle" font-variant="small-caps" font-weight="bold" fill="#df1c41">PCF to EKS</text>
    <text x="500" y="40" font-family="Helvetica" text-anchor="middle" font-variant="small-caps" font-weight="bold" fill="#2563eb">TMVS++</text>
    <line x1="330" y1="35" x2="354" y2="35" stroke="#e0349c" stroke-width="8" marker-end="url(#arrowhead1)"/>
    <g transform="translate(10, 50)" cursor="pointer" class="workitem">
    <rect x="0" y="0" height="30" width="325" fill="#fcfcfc" stroke="gold"/>
    <rect x="5" y="5" height="20" width="20" fill="#fc4141"/>

    <text x="30" y="5" style="font-family: arial;  font-size: 12px;">
        <tspan x="30" dy="12" style="font-variant: small-caps;">Spring Boot 2.7 on Pcf Platform</tspan>
    </text>
    </g>
    <g transform="translate(10, 85)" cursor="pointer" class="workitem">
        <rect x="0" y="0" height="30" width="325" fill="#fcfcfc" stroke="gold" ry="5" rx="5"/>
        <rect x="5" y="5" height="20" width="20" fill="#fc4141"/>
        <text x="30" y="5" style="font-family: arial;  font-size: 12px;">
            <tspan x="30" dy="12" style="font-variant: small-caps;">Uses Redis for storing circuit breaker data</tspan>
        </text>
    </g>

    <g transform="translate(10, 120)" cursor="pointer">
        <rect x="0" y="0" height="30" width="325" fill="#fcfcfc" stroke="gold"/>
        <rect x="5" y="5" height="20" width="20" fill="#fc4141"/>
        <text x="30" y="5" style="font-family: arial;  font-size: 12px;">
            <tspan x="30" dy="12" style="font-variant: small-caps;">Uses RabbitMQ for sending data to zipkin server.</tspan>
        </text>
    </g>
    <g transform="translate(10, 155)" cursor="pointer">
        <rect x="0" y="0" height="30" width="325" fill="#fcfcfc" stroke="gold"/>
        <rect x="5" y="5" height="20" width="20" fill="#fc4141"/>
        <text x="30" y="5" style="font-family: arial;  font-size: 12px;">
            <tspan x="30" dy="12" style="font-variant: small-caps;">Use MySql for storing zipkin traces</tspan>
        </text>
    </g>
    <g transform="translate(10, 190)" cursor="pointer">
        <rect x="0" y="0" height="30" width="325" fill="#fcfcfc" stroke="gold"/>
        <rect x="5" y="5" height="20" width="20" fill="#fc4141"/>
        <text x="30" y="5" style="font-family: arial;  font-size: 12px;">
            <tspan x="30" dy="12" style="font-variant: small-caps;">Uses Viper for authentication</tspan>
        </text>
    </g>
    <g transform="translate(10, 225)" cursor="pointer">
        <rect x="0" y="0" height="30" width="325" fill="#fcfcfc" stroke="gold"/>
        <rect x="5" y="5" height="20" width="20" fill="#fc4141"/>
        <text x="30" y="5" style="font-family: arial;  font-size: 12px;">
            <tspan x="30" dy="12" style="font-variant: small-caps;">Runs in multiple Silos with no version support.</tspan>
        </text>
    </g>


    <g transform="translate(350, 50)" cursor="pointer">
        <rect x="0" y="0" height="30" width="325" fill="#fcfcfc" stroke="gold"/>
        <rect x="5" y="5" height="20" width="20" fill="#7149c6"/>
        <text x="30" y="5" style="font-family: arial;  font-size: 12px;">
            <tspan x="30" dy="12" style="font-variant: small-caps;">Docker Containerized Spring Boot 3.x on EKS</tspan>
        </text>
    </g>

    <g transform="translate(350, 85)" cursor="pointer">
        <rect x="0" y="0" height="30" width="325" fill="#fcfcfc" stroke="gold"/>
        <rect x="5" y="5" height="20" width="20" fill="#7149c6"/>
        <text x="30" y="5" style="font-family: arial;  font-size: 12px;">
            <tspan x="30" dy="12" style="font-variant: small-caps;">Uses Okta for Authentication</tspan>
        </text>
    </g>
    <g transform="translate(350, 120)" cursor="pointer">
        <rect x="0" y="0" height="30" width="325" fill="#fcfcfc" stroke="gold"/>
        <rect x="5" y="5" height="20" width="20" fill="#7149c6"/>
        <text x="30" y="5" style="font-family: arial;  font-size: 12px;">
            <tspan x="30" dy="12" style="font-variant: small-caps;">Uses PVC for storing circuit breaker data</tspan>
        </text>
    </g>
    <g transform="translate(350, 155)" cursor="pointer">
        <rect x="0" y="0" height="30" width="325" fill="#fcfcfc" stroke="gold"/>
        <rect x="5" y="5" height="20" width="20" fill="#7149c6"/>
        <text x="30" y="5" style="font-family: arial;  font-size: 12px;">
            <tspan x="30" dy="12" style="font-variant: small-caps;">Uses Open Search for storing zipkin traces</tspan>
        </text>
    </g>
    <g transform="translate(350, 190)" cursor="pointer">
        <rect x="0" y="0" height="30" width="325" fill="#fcfcfc" stroke="gold"/>
        <rect x="5" y="5" height="20" width="20" fill="#7149c6"/>
        <text x="30" y="5" style="font-family: arial;  font-size: 12px;">
            <tspan x="30" dy="12" style="font-variant: small-caps;">Supports API versioning using nginx API Gateway</tspan>
        </text>
    </g>
    <g transform="translate(350, 225)" cursor="pointer">
        <rect x="0" y="0" height="30" width="325" fill="#fcfcfc" stroke="gold"/>
        <rect x="5" y="5" height="20" width="20" fill="#7149c6"/>
        <text x="30" y="5" style="font-family: arial;  font-size: 12px;">
            <tspan x="30" dy="12" style="font-variant: small-caps;">Fully Compliant with IBOB guidelines</tspan>
        </text>
    </g>
    <g transform="translate(350, 260)" cursor="pointer">
        <rect x="0" y="0" height="30" width="325" fill="#fcfcfc" stroke="gold"/>
        <rect x="5" y="5" height="20" width="20" fill="#7149c6"/>
        <text x="30" y="5" style="font-family: arial;  font-size: 12px;">
            <tspan x="30" dy="12" style="font-variant: small-caps;">Flight Check approved</tspan>
        </text>
    </g>
    <g transform="translate(350, 295)" cursor="pointer">
        <rect x="0" y="0" height="30" width="325" fill="#fcfcfc" stroke="gold"/>
        <rect x="5" y="5" height="20" width="20" fill="#7149c6"/>
        <text x="30" y="5" style="font-family: arial;  font-size: 12px;">
            <tspan x="30" dy="12" style="font-variant: small-caps;">Supports Blue/Green/Canary Deployments</tspan>
        </text>
    </g>
    <g transform="translate(350, 330)" cursor="pointer">
        <rect x="0" y="0" height="30" width="325" fill="#fcfcfc" stroke="gold"/>
        <rect x="5" y="5" height="20" width="20" fill="#7149c6"/>
        <text x="30" y="5" style="font-family: arial;  font-size: 12px;">
            <tspan x="30" dy="12" style="font-variant: small-caps;">Fully Documented Local setup</tspan>
        </text>
    </g>
    <g transform="translate(350, 365)" cursor="pointer">
        <rect x="0" y="0" height="30" width="325" fill="#fcfcfc" stroke="gold"/>
        <rect x="5" y="5" height="20" width="20" fill="#7149c6"/>
        <text x="30" y="5" style="font-family: arial;  font-size: 12px;">
            <tspan x="30" dy="12" style="font-variant: small-caps;">Fully Documented Production Support guides</tspan>
        </text>
    </g>
    <g transform="translate(350, 365)">
        <rect />
    </g>
</svg>