<!--
  - Copyright (c) 2023. The DocOps Consortium
  -
  -   Licensed under the Apache License, Version 2.0 (the "License");
  -   you may not use this file except in compliance with the License.
  -   You may obtain a copy of the License at
  -
  -       http://www.apache.org/licenses/LICENSE-2.0
  -
  -   Unless required by applicable law or agreed to in writing, software
  -   distributed under the License is distributed on an "AS IS" BASIS,
  -   WITHOUT WARRANTIES OR CONDITIONS OF ANY KIND, either express or implied.
  -   See the License for the specific language governing permissions and
  -   limitations under the License.
  -->

<svg id="d00aab06-ba9f-449b-8c58-d32e67d17a70" xmlns="http://www.w3.org/2000/svg" width="1045.0" height="190.4"
     viewBox="0 0 1045.0 190.4" xmlns:xlink="http://www.w3.org/1999/xlink">
    <defs>
        <marker id="arrowhead1" markerWidth="2" markerHeight="5" refX="0" refY="1.5" orient="auto">
            <polygon points="0 0, 1 1.5, 0 3" fill="#ee00ee"/>
        </marker>

        <linearGradient id="backgroundScore" x2="0" y2="0" x1="0" y1="1">
            <stop class="stop1" offset="0%" stop-color="#a09fa0"/>
            <stop class="stop2" offset="50%" stop-color="#706f71"/>
            <stop class="stop3" offset="100%" stop-color="#413F42"/>
        </linearGradient>


        <linearGradient id="leftScoreBox" x2="0" y2="0" x1="0" y1="1">
            <stop class="stop1" offset="0%" stop-color="#fda0a0"/>
            <stop class="stop2" offset="50%" stop-color="#fc7070"/>
            <stop class="stop3" offset="100%" stop-color="#fc4141"/>
        </linearGradient>


        <linearGradient id="rightScoreBox" x2="0" y2="0" x1="0" y1="1">
            <stop class="stop1" offset="0%" stop-color="#b8a4e2"/>
            <stop class="stop2" offset="50%" stop-color="#9476d4"/>
            <stop class="stop3" offset="100%" stop-color="#7149c6"/>
        </linearGradient>


        <linearGradient id="rightItem" x2="0" y2="0" x1="0" y1="1">
            <stop class="stop1" offset="0%" stop-color="#8a7f9d"/>
            <stop class="stop2" offset="50%" stop-color="#503f6c"/>
            <stop class="stop3" offset="100%" stop-color="#16003B"/>
        </linearGradient>


        <linearGradient id="leftItem" x2="0" y2="0" x1="0" y1="1">
            <stop class="stop1" offset="0%" stop-color="#8a7f9d"/>
            <stop class="stop2" offset="50%" stop-color="#503f6c"/>
            <stop class="stop3" offset="100%" stop-color="#16003B"/>
        </linearGradient>

        <style>

            #d00aab06-ba9f-449b-8c58-d32e67d17a70 .workitem {
                filter: drop-shadow(3px 5px 2px rgb(0 0 0 / 0.4));
            }

            #d00aab06-ba9f-449b-8c58-d32e67d17a70 .workitem :hover {
                opacity: 0.5;
                stroke-opacity: 1.7;
                stroke-width: 3;
                stroke: #bd5d5d;
            }

            .glass:after, .glass:before {
                content: "";
                display: block;
                position: absolute
            }

            .glass {
                overflow: hidden;
                color: #fff;
                text-shadow: 0 1px 2px rgba(0, 0, 0, .7);
                background-image: radial-gradient(circle at center, rgba(0, 167, 225, .25), rgba(0, 110, 149, .5));
                box-shadow: 0 5px 10px rgba(0, 0, 0, .75), inset 0 0 0 2px rgba(0, 0, 0, .3), inset 0 -6px 6px -3px rgba(0, 129, 174, .2);
                position: relative
            }

            .glass:after {
                background: rgba(0, 167, 225, .2);
                z-index: 0;
                height: 100%;
                width: 100%;
                top: 0;
                left: 0;
                backdrop-filter: blur(3px) saturate(400%);
                -webkit-backdrop-filter: blur(3px) saturate(400%)
            }

            .glass:before {
                width: calc(100% - 4px);
                height: 35px;
                background-image: linear-gradient(rgba(255, 255, 255, .7), rgba(255, 255, 255, 0));
                top: 2px;
                left: 2px;
                border-radius: 30px 30px 200px 200px;
                opacity: .7
            }

            .glass:hover {
                text-shadow: 0 1px 2px rgba(0, 0, 0, .9)
            }

            .glass:hover:before {
                opacity: 1
            }

            .glass:active {
                text-shadow: 0 0 2px rgba(0, 0, 0, .9);
                box-shadow: 0 3px 8px rgba(0, 0, 0, .75), inset 0 0 0 2px rgba(0, 0, 0, .3), inset 0 -6px 6px -3px rgba(0, 129, 174, .2)
            }

            .glass:active:before {
                height: 25px
            }

            .raise {
                pointer-events: bounding-box;
                opacity: 1;
                filter: drop-shadow(3px 5px 2px rgb(0 0 0 / 0.4));
            }

            .raise:hover {
                stroke: gold;
                stroke-width: 3px;
                opacity: 0.9;
            }

            .raiseText {
                pointer-events: bounding-box;
                opacity: 1;
                filter: drop-shadow(3px 5px 2px rgb(0 0 0 / 0.4));
            }

            .left_d00aab06-ba9f-449b-8c58-d32e67d17a70 {
                fill: url(#leftItem);
            }

            .right_d00aab06-ba9f-449b-8c58-d32e67d17a70 {
                fill: url(#rightItem);
            }
        </style>
    </defs>
    <g transform="scale(1.0)">
        <path d="M 0 16.0 A 16.0 16.0 0 0 1 16.0 0 L 1029.0 0 A 16.0 16.0 0 0 1 1045.0 16.0 L 1045.0 174.4 A 16.0 16.0 0 0 1 1029.0 190.4 L 16.0 190.4 A 16.0 16.0 0 0 1 0 174.4 Z"
              fill="url(#backgroundScore)"/>
        <text x="522.5" y="20"
              style="font-family: Arial, Helvetica, sans-serif;  text-anchor:middle; font-size: 12px; fill: #fcfcfc; letter-spacing: normal;font-weight: bold;font-variant: small-caps;"
              class="raiseText">Initiative
        </text>
        <text x="255" y="40"
              style="font-family: Arial, Helvetica, sans-serif;  text-anchor:middle; font-size: 12px; fill: #fcfcfc; letter-spacing: normal;font-weight: bold;font-variant: small-caps;"
              class="raiseText">Journey Starts
        </text>
        <text x="755.5" y="40"
              style="font-family: Arial, Helvetica, sans-serif;  text-anchor:middle; font-size: 12px; fill: #fcfcfc; letter-spacing: normal;font-weight: bold;font-variant: small-caps;"
              class="raiseText" cursor="pointer" onclick="reveal('d00aab06-ba9f-449b-8c58-d32e67d17a70')">Outcomes Since
        </text>
        <line x1="490" y1="35" x2="539" y2="35" stroke="#ee00ee" stroke-width="8" marker-end="url(#arrowhead1)"/>
        <g transform="translate(10, 50)">
            <path d="M 0 12.0 A 12.0 12.0 0 0 1 12.0 0 L 488.0 0 A 12.0 12.0 0 0 1 500.0 12.0 L 500.0 18.0 A 12.0 12.0 0 0 1 488.0 30.0 L 12.0 30.0 A 12.0 12.0 0 0 1 0 18.0 Z"
                  class="left_d00aab06-ba9f-449b-8c58-d32e67d17a70" stroke="gold">
                <title>Host API versioning</title>
            </path>
            <rect x="5" y="5" height="20" width="20" fill="url(#leftScoreBox)" rx="5" ry="5"/>
            <text x="11" y="19" fill="#efefef" style="font-family: arial;  font-size: 12px; font-weight:bold;">A</text>
            <text x="30" y="7" style="font-family: arial;  font-size: 12px;" class="raiseText">
                <tspan x="30" dy="12" style="font-variant: small-caps;fill:#fcfcfc;">API Versioning</tspan>
            </text>
        </g>
        <g transform="translate(10, 85)">
            <path d="M 0 12.0 A 12.0 12.0 0 0 1 12.0 0 L 488.0 0 A 12.0 12.0 0 0 1 500.0 12.0 L 500.0 18.0 A 12.0 12.0 0 0 1 488.0 30.0 L 12.0 30.0 A 12.0 12.0 0 0 1 0 18.0 Z"
                  class="left_d00aab06-ba9f-449b-8c58-d32e67d17a70" stroke="gold">
                <title>Migrate IBM Websphere to Liberty Server with RHEL 8 and JSESSION ID fix with Application cache
                    busting and versioning
                </title>
            </path>
            <rect x="5" y="5" height="20" width="20" fill="url(#leftScoreBox)" rx="5" ry="5"/>
            <text x="11" y="19" fill="#efefef" style="font-family: arial;  font-size: 12px; font-weight:bold;">N</text>
            <text x="30" y="7" style="font-family: arial;  font-size: 12px;" class="raiseText">
                <tspan x="30" dy="12" style="font-variant: small-caps;fill:#fcfcfc;">Network Switch</tspan>
            </text>
        </g>
        <g transform="translate(10, 120)">
            <path d="M 0 12.0 A 12.0 12.0 0 0 1 12.0 0 L 488.0 0 A 12.0 12.0 0 0 1 500.0 12.0 L 500.0 18.0 A 12.0 12.0 0 0 1 488.0 30.0 L 12.0 30.0 A 12.0 12.0 0 0 1 0 18.0 Z"
                  class="left_d00aab06-ba9f-449b-8c58-d32e67d17a70" stroke="gold">
                <title>Enabling single signon from server sign-in page</title>
            </path>
            <rect x="5" y="5" height="20" width="20" fill="url(#leftScoreBox)" rx="5" ry="5"/>
            <text x="11" y="19" fill="#efefef" style="font-family: arial;  font-size: 12px; font-weight:bold;">M</text>
            <text x="30" y="7" style="font-family: arial;  font-size: 12px;" class="raiseText">
                <tspan x="30" dy="12" style="font-variant: small-caps;fill:#fcfcfc;">MFA</tspan>
            </text>
        </g>
        <g transform="translate(10, 155)">
            <path d="M 0 12.0 A 12.0 12.0 0 0 1 12.0 0 L 488.0 0 A 12.0 12.0 0 0 1 500.0 12.0 L 500.0 18.0 A 12.0 12.0 0 0 1 488.0 30.0 L 12.0 30.0 A 12.0 12.0 0 0 1 0 18.0 Z"
                  class="left_d00aab06-ba9f-449b-8c58-d32e67d17a70" stroke="gold">
            </path>
            <rect x="5" y="5" height="20" width="20" fill="url(#leftScoreBox)" rx="5" ry="5"/>
            <text x="11" y="19" fill="#efefef" style="font-family: arial;  font-size: 12px; font-weight:bold;">P</text>
            <text x="30" y="7" style="font-family: arial;  font-size: 12px;" class="raiseText">
                <tspan x="30" dy="12" style="font-variant: small-caps;fill:#fcfcfc;">Product Elimination - from system
                </tspan>
            </text>
        </g>
        <g transform="translate(525, 50)" display="none">
            <path d="M 0 12.0 A 12.0 12.0 0 0 1 12.0 0 L 488.0 0 A 12.0 12.0 0 0 1 500.0 12.0 L 500.0 18.0 A 12.0 12.0 0 0 1 488.0 30.0 L 12.0 30.0 A 12.0 12.0 0 0 1 0 18.0 Z"
                  class="right_d00aab06-ba9f-449b-8c58-d32e67d17a70" stroke="gold">
            </path>
            <rect x="5" y="5" height="20" width="20" fill="url(#rightScoreBox)" rx="5" ry="5"/>
            <text x="11" y="19" fill="#efefef" style="font-family: arial;  font-size: 12px; font-weight:bold;">A</text>
            <text x="30" y="7" style="font-family: arial;  font-size: 12px;" class="raiseText">
                <tspan x="30" dy="12" style="font-variant: small-caps; fill:#fcfcfc;">API Versioning changes with
                    backwards compatibility
                </tspan>
            </text>
        </g>
        <g transform="translate(525, 85)" display="none">
            <path d="M 0 12.0 A 12.0 12.0 0 0 1 12.0 0 L 488.0 0 A 12.0 12.0 0 0 1 500.0 12.0 L 500.0 18.0 A 12.0 12.0 0 0 1 488.0 30.0 L 12.0 30.0 A 12.0 12.0 0 0 1 0 18.0 Z"
                  class="right_d00aab06-ba9f-449b-8c58-d32e67d17a70" stroke="gold">
            </path>
            <rect x="5" y="5" height="20" width="20" fill="url(#rightScoreBox)" rx="5" ry="5"/>
            <text x="11" y="19" fill="#efefef" style="font-family: arial;  font-size: 12px; font-weight:bold;">N</text>
            <text x="30" y="7" style="font-family: arial;  font-size: 12px;" class="raiseText">
                <tspan x="30" dy="12" style="font-variant: small-caps; fill:#fcfcfc;">Network Mark-In/Mark-Out Servers
                </tspan>
            </text>
        </g>
        <g transform="translate(525, 120)" display="none">
            <path d="M 0 12.0 A 12.0 12.0 0 0 1 12.0 0 L 488.0 0 A 12.0 12.0 0 0 1 500.0 12.0 L 500.0 18.0 A 12.0 12.0 0 0 1 488.0 30.0 L 12.0 30.0 A 12.0 12.0 0 0 1 0 18.0 Z"
                  class="right_d00aab06-ba9f-449b-8c58-d32e67d17a70" stroke="gold">
            </path>
            <rect x="5" y="5" height="20" width="20" fill="url(#rightScoreBox)" rx="5" ry="5"/>
            <text x="11" y="19" fill="#efefef" style="font-family: arial;  font-size: 12px; font-weight:bold;">P</text>
            <text x="30" y="7" style="font-family: arial;  font-size: 12px;" class="raiseText">
                <tspan x="30" dy="12" style="font-variant: small-caps; fill:#fcfcfc;">Phased Rollout, Milestones and
                    Release Candidate
                </tspan>
            </text>
        </g>
        <g transform="translate(525, 155)" display="none">
            <path d="M 0 12.0 A 12.0 12.0 0 0 1 12.0 0 L 488.0 0 A 12.0 12.0 0 0 1 500.0 12.0 L 500.0 18.0 A 12.0 12.0 0 0 1 488.0 30.0 L 12.0 30.0 A 12.0 12.0 0 0 1 0 18.0 Z"
                  class="right_d00aab06-ba9f-449b-8c58-d32e67d17a70" stroke="gold">
            </path>
            <rect x="5" y="5" height="20" width="20" fill="url(#rightScoreBox)" rx="5" ry="5"/>
            <text x="11" y="19" fill="#efefef" style="font-family: arial;  font-size: 12px; font-weight:bold;">S</text>
            <text x="30" y="7" style="font-family: arial;  font-size: 12px;" class="raiseText">
                <tspan x="30" dy="12" style="font-variant: small-caps; fill:#fcfcfc;">Software toggle to Enable/Disable
                    OAuth Server
                </tspan>
            </text>
        </g>
    </g>
    <script>
        var reveal = function (id) {
            var elems = document.querySelectorAll('#d00aab06-ba9f-449b-8c58-d32e67d17a70 [display="none"]');
            if(elems.length > 0) {
                var item = elems[0];
                item.setAttribute("display", "block");
            }
        }
    </script>
</svg>