<svg xmlns="http://www.w3.org/2000/svg" width="357.0" height="234.0" viewBox="0 0 357.0 234.0"
     xmlns:xlink="http://www.w3.org/1999/xlink" id="373201fd-10b4-4bfd-bd7d-f4fb84929d88">
    <defs>
        <filter id="Bevel2" filterUnits="objectBoundingBox" x="-10%" y="-10%" width="150%" height="150%">
            <feGaussianBlur in="SourceAlpha" stdDeviation="0.5" result="blur"></feGaussianBlur>
            <feSpecularLighting in="blur" surfaceScale="5" specularConstant="0.5" specularExponent="10" result="specOut"
                                lighting-color="white">
                <fePointLight x="-5000" y="-10000" z="0000"></fePointLight>
            </feSpecularLighting>
            <feComposite in="specOut" in2="SourceAlpha" operator="in" result="specOut2"></feComposite>
            <feComposite in="SourceGraphic" in2="specOut2" operator="arithmetic" k1="0" k2="1" k3="1" k4="0"
                         result="litPaint"></feComposite>
        </filter>
        <filter id="buttonBlur">
            <feGaussianBlur in="SourceAlpha" stdDeviation="2" result="blur"></feGaussianBlur>
            <feOffset in="blur" dy="2" result="offsetBlur"></feOffset>
            <feMerge>
                <feMergeNode in="offsetBlur"></feMergeNode>
                <feMergeNode in="SourceGraphic"></feMergeNode>
            </feMerge>
        </filter>
        <linearGradient id="overlayGrad" gradientUnits="userSpaceOnUse" x1="95" y1="-20" x2="95" y2="70">
            <stop offset="0" stop-color="#000000" stop-opacity="0.5"></stop>
            <stop offset="1" stop-color="#000000" stop-opacity="0"></stop>
        </linearGradient>
        <filter id="topshineBlur">
            <feGaussianBlur stdDeviation="0.93"></feGaussianBlur>
        </filter>
        <linearGradient id="topshineGrad" gradientUnits="userSpaceOnUse" x1="95" y1="0" x2="95" y2="40">
            <stop offset="0" stop-color="#ffffff" stop-opacity="1"></stop>
            <stop offset="1" stop-color="#ffffff" stop-opacity="0"></stop>
        </linearGradient>
        <filter id="bottomshine">
            <feGaussianBlur stdDeviation="0.95"></feGaussianBlur>
        </filter>
        <filter id="Bevel2" filterUnits="objectBoundingBox" x="-10%" y="-10%" width="150%" height="150%">
            <feGaussianBlur in="SourceAlpha" stdDeviation="0.5" result="blur"></feGaussianBlur>
            <feSpecularLighting in="blur" surfaceScale="5" specularConstant="0.5" specularExponent="10" result="specOut"
                                lighting-color="white">
                <fePointLight x="-5000" y="-10000" z="0000"></fePointLight>
            </feSpecularLighting>
            <feComposite in="specOut" in2="SourceAlpha" operator="in" result="specOut2"></feComposite>
            <feComposite in="SourceGraphic" in2="specOut2" operator="arithmetic" k1="0" k2="1" k3="1" k4="0"
                         result="litPaint"></feComposite>
        </filter>
        <circle id="myCircle" cx="0" cy="0" r="60" class="card" stroke="black" stroke-width="1"></circle>
        <linearGradient id="btn_919e4cfc-b6f6-42e1-9be1-c61716900d68" x2="1" y2="1">
            <stop class="stop1" offset="0%" stop-color="#fbf2bc"></stop>
            <stop class="stop2" offset="50%" stop-color="#f9ec9b"></stop>
            <stop class="stop3" offset="100%" stop-color="#F7E67A"></stop>
        </linearGradient>
        <linearGradient id="btn_925f8948-0f9c-457b-9df7-88a04df1c7e1" x2="1" y2="1">
            <stop class="stop1" offset="0%" stop-color="#d19d9d"></stop>
            <stop class="stop2" offset="50%" stop-color="#ba6c6c"></stop>
            <stop class="stop3" offset="100%" stop-color="#A43B3B"></stop>
        </linearGradient>
        <linearGradient id="btn_a82589fd-d93c-41e8-9076-28b33726f745" x2="1" y2="1">
            <stop class="stop1" offset="0%" stop-color="#a2b0c6"></stop>
            <stop class="stop2" offset="50%" stop-color="#7388aa"></stop>
            <stop class="stop3" offset="100%" stop-color="#45618E"></stop>
        </linearGradient>
        <linearGradient id="btn_6fc54283-fe8a-4380-83fb-8cc85aed7804" x2="1" y2="1">
            <stop class="stop1" offset="0%" stop-color="#ffb79a"></stop>
            <stop class="stop2" offset="50%" stop-color="#ff9368"></stop>
            <stop class="stop3" offset="100%" stop-color="#FF6F36"></stop>
        </linearGradient>
        <linearGradient id="btn_b43aceef-7ef9-4eda-b0ef-d7ff38c26bc5" x2="1" y2="1">
            <stop class="stop1" offset="0%" stop-color="#ffe9b9"></stop>
            <stop class="stop2" offset="50%" stop-color="#ffde96"></stop>
            <stop class="stop3" offset="100%" stop-color="#FFD373"></stop>
        </linearGradient>
        <linearGradient id="btn_b75e3cfd-c5c1-4c0f-9b80-b8edc92301a0" x2="1" y2="1">
            <stop class="stop1" offset="0%" stop-color="#80ffc7"></stop>
            <stop class="stop2" offset="50%" stop-color="#40ffab"></stop>
            <stop class="stop3" offset="100%" stop-color="#01FF90"></stop>
        </linearGradient>
        <path id="outerBox" fill="#ffffff"
              d="M 0 18.0 A 18.0 18.0 0 0 1 18.0 0 L 282.0 0 A 18.0 18.0 0 0 1 300.0 18.0 L 300.0 382.0 A 18.0 18.0 0 0 1 282.0 400.0 L 18.0 400.0 A 18.0 18.0 0 0 1 0 382.0 Z">
            <title>Title</title>
        </path>
        <g id="topTextBox">
            <path fill="#ffffff"
                  d="M 0 18.0 A 18.0 18.0 0 0 1 18.0 0 L 282.0 0 A 18.0 18.0 0 0 1 300.0 18.0 L 300.0 95.5 A 0.0 0.0 0 0 1 300.0 95.5 L 0.0 95.5 A 0.0 0.0 0 0 1 0 95.5 Z"></path>
        </g>
        <path id="bottomTextBox"
              d="M 0 0.0 A 0.0 0.0 0 0 1 0.0 0 L 300.0 0 A 0.0 0.0 0 0 1 300.0 0.0 L 300.0 95.5 A 0.0 0.0 0 0 1 300.0 95.5 L 0.0 95.5 A 0.0 0.0 0 0 1 0 95.5 Z"></path>
        <path id="singleBox"
              d="M 0 18.0 A 18.0 18.0 0 0 1 18.0 0 L 282.0 0 A 18.0 18.0 0 0 1 300.0 18.0 L 300.0 191.0 A 0.0 0.0 0 0 1 300.0 191.0 L 0.0 191.0 A 0.0 0.0 0 0 1 0 191.0 Z"></path>
        <style>.glass:after, .glass:before {
            content: "";
            display: block;
            position: absolute
        }

        .glass {
            overflow: hidden;
            color: #fff;
            text-shadow: 0 1px 2px rgba(0, 0, 0, .7);
            background-image: radial-gradient(circle at center, rgba(0, 167, 225, .25), rgba(0, 110, 149, .5));
            box-shadow: 0 5px 10px rgba(0, 0, 0, .75), inset 0 0 0 2px rgba(0, 0, 0, .3), inset 0 -6px 6px -3px rgba(0, 129, 174, .2);
            position: relative
        }

        .glass:after {
            background: rgba(0, 167, 225, .2);
            z-index: 0;
            height: 100%;
            width: 100%;
            top: 0;
            left: 0;
            backdrop-filter: blur(3px) saturate(400%);
            -webkit-backdrop-filter: blur(3px) saturate(400%)
        }

        .glass:before {
            width: calc(100% - 4px);
            height: 35px;
            background-image: linear-gradient(rgba(255, 255, 255, .7), rgba(255, 255, 255, 0));
            top: 2px;
            left: 2px;
            border-radius: 30px 30px 200px 200px;
            opacity: .7
        }

        .glass:hover {
            text-shadow: 0 1px 2px rgba(0, 0, 0, .9)
        }

        .glass:hover:before {
            opacity: 1
        }

        .glass:active {
            text-shadow: 0 0 2px rgba(0, 0, 0, .9);
            box-shadow: 0 3px 8px rgba(0, 0, 0, .75), inset 0 0 0 2px rgba(0, 0, 0, .3), inset 0 -6px 6px -3px rgba(0, 129, 174, .2)
        }

        .glass:active:before {
            height: 25px
        }

        .raise {
            pointer-events: bounding-box;
            opacity: 1;
            filter: drop-shadow(3px 5px 2px rgb(0 0 0 / 0.4));
        }

        .raise:hover {
            stroke: gold;
            stroke-width: 3px;
            opacity: 0.9;
        }

        .basecard {
            -webkit-filter: drop-shadow(3px 3px 2px rgba(0, 0, 0, .3));
            filter: drop-shadow(3px 3px 2px rgba(0, 0, 0, .3));
        }

        .basecard:hover {
            cursor: pointer;
            stroke-width: 3;
            stroke-dasharray: 8;
        }

        .btn_919e4cfc-b6f6-42e1-9be1-c61716900d68_cls {
            fill: url(#btn_919e4cfc-b6f6-42e1-9be1-c61716900d68);
        }

        .btn_925f8948-0f9c-457b-9df7-88a04df1c7e1_cls {
            fill: url(#btn_925f8948-0f9c-457b-9df7-88a04df1c7e1);
        }

        .btn_a82589fd-d93c-41e8-9076-28b33726f745_cls {
            fill: url(#btn_a82589fd-d93c-41e8-9076-28b33726f745);
        }

        .btn_6fc54283-fe8a-4380-83fb-8cc85aed7804_cls {
            fill: url(#btn_6fc54283-fe8a-4380-83fb-8cc85aed7804);
        }

        .btn_b43aceef-7ef9-4eda-b0ef-d7ff38c26bc5_cls {
            fill: url(#btn_b43aceef-7ef9-4eda-b0ef-d7ff38c26bc5);
        }

        .btn_b75e3cfd-c5c1-4c0f-9b80-b8edc92301a0_cls {
            fill: url(#btn_b75e3cfd-c5c1-4c0f-9b80-b8edc92301a0);
        }

        .shape {
            stroke: black;
        }

        .mybox:hover {
            -webkit-animation: 0.5s draw linear forwards;
            animation: 0.5s draw linear forwards;
        }

        @keyframes draw {
            0% {
                stroke-dasharray: 140 540;
                stroke-dashoffset: -474;
                stroke-width: 3px;
            }
            100% {
                stroke-dasharray: 760;
                stroke-dashoffset: 0;
                stroke-width: 5px;
            }
        }

        .linkText {
            fill: #000000;
            font-size: 15px;
            font-family: "Inter var", system-ui, "Helvetica Neue", Helvetica, Arial, sans-serif;
            font-weight: normal;
            cursor: pointer;
        }

        .linkText:hover {
            fill: #ea0606;
            border: #d2ddec solid;
        }

        .linkTextDark {
            fill: #fcfcfc;
            font-size: 15px;
            font-family: "Inter var", system-ui, "Helvetica Neue", Helvetica, Arial, sans-serif;
            font-weight: normal;
            cursor: pointer;
        }

        .linkText:hover {
            fill: #ea0606;
            border: #d2ddec solid;
        }</style>
    </defs>
    <g transform="scale(0.7)">
        <g transform="translate(10,10)" cursor="pointer">
            <a xlink:href="https://www.amazon.com" target="_top"
               style="text-decoration: none; font-family:Arial; fill: #fcfcfc;">
                <rect x="0" y="0" fill="#fcfcfc" width="150" height="150" rx="5" ry="5" stroke="#000000"
                      class="btn_919e4cfc-b6f6-42e1-9be1-c61716900d68_cls raise">
                    <title>Amazon</title>
                </rect>
                <path filter="url(#buttonBlur)" class="btn_919e4cfc-b6f6-42e1-9be1-c61716900d68_cls"
                      d="M 0 5.0 A 5.0 5.0 0 0 1 5.0 0 L 145.0 0 A 5.0 5.0 0 0 1 150.0 5.0 L 150.0 35.0 A 0.0 0.0 0 0 1 150.0 35.0 L 0.0 35.0 A 0.0 0.0 0 0 1 0 35.0 Z"></path>
                <path fill="url(#overlayGrad)" class="btn_919e4cfc-b6f6-42e1-9be1-c61716900d68_cls"
                      d="M 0 5.0 A 5.0 5.0 0 0 1 5.0 0 L 145.0 0 A 5.0 5.0 0 0 1 150.0 5.0 L 150.0 35.0 A 0.0 0.0 0 0 1 150.0 35.0 L 0.0 35.0 A 0.0 0.0 0 0 1 0 35.0 Z"></path>
                <text text-anchor="middle" x="75" y="8" class="glass">
                    <tspan x="75" dy="12"
                           style="font-family: Arial, Helvetica, sans-serif; font-size: 12px; fill: #fcfcfc; letter-spacing: normal;font-weight: bold;">
                        Amazon
                    </tspan>
                </text>
                <text x="0" y="38">
                    <tspan x="2" dy="10"
                           style="font-family: Arial, Helvetica, sans-serif; font-size: 12px; fill: #000000; letter-spacing: normal;font-weight: normal;">
                        Amazon.com, Inc. is an
                    </tspan>
                    <tspan x="2" dy="10"
                           style="font-family: Arial, Helvetica, sans-serif; font-size: 12px; fill: #000000; letter-spacing: normal;font-weight: normal;">
                        American multinational
                    </tspan>
                    <tspan x="2" dy="10"
                           style="font-family: Arial, Helvetica, sans-serif; font-size: 12px; fill: #000000; letter-spacing: normal;font-weight: normal;">
                        technology company which
                    </tspan>
                    <tspan x="2" dy="10"
                           style="font-family: Arial, Helvetica, sans-serif; font-size: 12px; fill: #000000; letter-spacing: normal;font-weight: normal;">
                        focuses on e-commerce, cloud
                    </tspan>
                    <tspan x="2" dy="10"
                           style="font-family: Arial, Helvetica, sans-serif; font-size: 12px; fill: #000000; letter-spacing: normal;font-weight: normal;">
                        computing, digital streaming,
                    </tspan>
                    <tspan x="2" dy="10"
                           style="font-family: Arial, Helvetica, sans-serif; font-size: 12px; fill: #000000; letter-spacing: normal;font-weight: normal;">
                        and artificial intelligences
                    </tspan>
                </text>
                <path class="btn_919e4cfc-b6f6-42e1-9be1-c61716900d68_cls" transform="translate(0,125)"
                      d="M 0 0.0 A 0.0 0.0 0 0 1 0.0 0 L 150.0 0 A 0.0 0.0 0 0 1 150.0 0.0 L 150.0 20.0 A 5.0 5.0 0 0 1 144.0 25.0 L 5.0 25.0 A 5.0 5.0 0 0 1 0 20.0 Z"></path>
                <text x="145" y="135" text-anchor="end">
                    <tspan x="145" dy="-12"
                           style="font-family: Arial, Helvetica, sans-serif; font-size: 13px;  fill: #000000; letter-spacing: normal;font-weight: normal; font-style: italic;">
                        Jeff Bezos
                    </tspan>
                </text>
                <text x="145" y="145"
                      style="font-family: Arial, Helvetica, sans-serif; font-size: 12px; fill: #000000; letter-spacing: normal;font-weight: normal;"
                      text-anchor="end"></text>
            </a>
        </g>
        <g transform="translate(170,10)" cursor="pointer">
            <a xlink:href="https://www.apple.com" target="_top"
               style="text-decoration: none; font-family:Arial; fill: #fcfcfc;">
                <rect x="0" y="0" fill="#fcfcfc" width="150" height="150" rx="5" ry="5" stroke="#000000"
                      class="btn_925f8948-0f9c-457b-9df7-88a04df1c7e1_cls raise">
                    <title>Apple</title>
                </rect>
                <path filter="url(#buttonBlur)" class="btn_925f8948-0f9c-457b-9df7-88a04df1c7e1_cls"
                      d="M 0 5.0 A 5.0 5.0 0 0 1 5.0 0 L 145.0 0 A 5.0 5.0 0 0 1 150.0 5.0 L 150.0 35.0 A 0.0 0.0 0 0 1 150.0 35.0 L 0.0 35.0 A 0.0 0.0 0 0 1 0 35.0 Z"></path>
                <path fill="url(#overlayGrad)" class="btn_925f8948-0f9c-457b-9df7-88a04df1c7e1_cls"
                      d="M 0 5.0 A 5.0 5.0 0 0 1 5.0 0 L 145.0 0 A 5.0 5.0 0 0 1 150.0 5.0 L 150.0 35.0 A 0.0 0.0 0 0 1 150.0 35.0 L 0.0 35.0 A 0.0 0.0 0 0 1 0 35.0 Z"></path>
                <text text-anchor="middle" x="75" y="8" class="glass">
                    <tspan x="75" dy="12"
                           style="font-family: Arial, Helvetica, sans-serif; font-size: 12px; fill: #fcfcfc; letter-spacing: normal;font-weight: bold;">
                        Apple
                    </tspan>
                </text>
                <text x="0" y="38">
                    <tspan x="2" dy="10"
                           style="font-family: Arial, Helvetica, sans-serif; font-size: 12px; fill: #000000; letter-spacing: normal;font-weight: normal;">
                        Apple Inc. is an American
                    </tspan>
                    <tspan x="2" dy="10"
                           style="font-family: Arial, Helvetica, sans-serif; font-size: 12px; fill: #000000; letter-spacing: normal;font-weight: normal;">
                        multinational technology
                    </tspan>
                    <tspan x="2" dy="10"
                           style="font-family: Arial, Helvetica, sans-serif; font-size: 12px; fill: #000000; letter-spacing: normal;font-weight: normal;">
                        company that specializes in
                    </tspan>
                    <tspan x="2" dy="10"
                           style="font-family: Arial, Helvetica, sans-serif; font-size: 12px; fill: #000000; letter-spacing: normal;font-weight: normal;">
                        consumer electronics, computer
                    </tspan>
                    <tspan x="2" dy="10"
                           style="font-family: Arial, Helvetica, sans-serif; font-size: 12px; fill: #000000; letter-spacing: normal;font-weight: normal;">
                        software and online services.
                    </tspan>
                </text>
                <path class="btn_925f8948-0f9c-457b-9df7-88a04df1c7e1_cls" transform="translate(0,125)"
                      d="M 0 0.0 A 0.0 0.0 0 0 1 0.0 0 L 150.0 0 A 0.0 0.0 0 0 1 150.0 0.0 L 150.0 20.0 A 5.0 5.0 0 0 1 144.0 25.0 L 5.0 25.0 A 5.0 5.0 0 0 1 0 20.0 Z"></path>
                <text x="145" y="135" text-anchor="end">
                    <tspan x="145" dy="-12"
                           style="font-family: Arial, Helvetica, sans-serif; font-size: 13px;  fill: #000000; letter-spacing: normal;font-weight: normal; font-style: italic;">
                        Steve Jobs
                    </tspan>
                    <tspan x="145" dy="-12"
                           style="font-family: Arial, Helvetica, sans-serif; font-size: 13px;  fill: #000000; letter-spacing: normal;font-weight: normal; font-style: italic;">
                        Steve Wozniak
                    </tspan>
                </text>
                <text x="145" y="145"
                      style="font-family: Arial, Helvetica, sans-serif; font-size: 12px; fill: #000000; letter-spacing: normal;font-weight: normal;"
                      text-anchor="end"></text>
            </a>
        </g>
        <g transform="translate(330,10)" cursor="pointer">
            <a xlink:href="https://www.google.com" target="_top"
               style="text-decoration: none; font-family:Arial; fill: #fcfcfc;">
                <rect x="0" y="0" fill="#fcfcfc" width="150" height="150" rx="5" ry="5" stroke="#000000"
                      class="btn_a82589fd-d93c-41e8-9076-28b33726f745_cls raise">
                    <title>Google</title>
                </rect>
                <path filter="url(#buttonBlur)" class="btn_a82589fd-d93c-41e8-9076-28b33726f745_cls"
                      d="M 0 5.0 A 5.0 5.0 0 0 1 5.0 0 L 145.0 0 A 5.0 5.0 0 0 1 150.0 5.0 L 150.0 35.0 A 0.0 0.0 0 0 1 150.0 35.0 L 0.0 35.0 A 0.0 0.0 0 0 1 0 35.0 Z"></path>
                <path fill="url(#overlayGrad)" class="btn_a82589fd-d93c-41e8-9076-28b33726f745_cls"
                      d="M 0 5.0 A 5.0 5.0 0 0 1 5.0 0 L 145.0 0 A 5.0 5.0 0 0 1 150.0 5.0 L 150.0 35.0 A 0.0 0.0 0 0 1 150.0 35.0 L 0.0 35.0 A 0.0 0.0 0 0 1 0 35.0 Z"></path>
                <text text-anchor="middle" x="75" y="8" class="glass">
                    <tspan x="75" dy="12"
                           style="font-family: Arial, Helvetica, sans-serif; font-size: 12px; fill: #fcfcfc; letter-spacing: normal;font-weight: bold;">
                        Google
                    </tspan>
                </text>
                <text x="0" y="38">
                    <tspan x="2" dy="10"
                           style="font-family: Arial, Helvetica, sans-serif; font-size: 12px; fill: #000000; letter-spacing: normal;font-weight: normal;">
                        Google is is an American
                    </tspan>
                    <tspan x="2" dy="10"
                           style="font-family: Arial, Helvetica, sans-serif; font-size: 12px; fill: #000000; letter-spacing: normal;font-weight: normal;">
                        multinational technology
                    </tspan>
                    <tspan x="2" dy="10"
                           style="font-family: Arial, Helvetica, sans-serif; font-size: 12px; fill: #000000; letter-spacing: normal;font-weight: normal;">
                        company that specializes in
                    </tspan>
                    <tspan x="2" dy="10"
                           style="font-family: Arial, Helvetica, sans-serif; font-size: 12px; fill: #000000; letter-spacing: normal;font-weight: normal;">
                        Internet-related services and
                    </tspan>
                    <tspan x="2" dy="10"
                           style="font-family: Arial, Helvetica, sans-serif; font-size: 12px; fill: #000000; letter-spacing: normal;font-weight: normal;">
                        products
                    </tspan>
                </text>
                <path class="btn_a82589fd-d93c-41e8-9076-28b33726f745_cls" transform="translate(0,125)"
                      d="M 0 0.0 A 0.0 0.0 0 0 1 0.0 0 L 150.0 0 A 0.0 0.0 0 0 1 150.0 0.0 L 150.0 20.0 A 5.0 5.0 0 0 1 144.0 25.0 L 5.0 25.0 A 5.0 5.0 0 0 1 0 20.0 Z"></path>
                <text x="145" y="135" text-anchor="end">
                    <tspan x="145" dy="-12"
                           style="font-family: Arial, Helvetica, sans-serif; font-size: 13px;  fill: #000000; letter-spacing: normal;font-weight: normal; font-style: italic;">
                        Sergey Brin
                    </tspan>
                    <tspan x="145" dy="-12"
                           style="font-family: Arial, Helvetica, sans-serif; font-size: 13px;  fill: #000000; letter-spacing: normal;font-weight: normal; font-style: italic;">
                        Larry Page
                    </tspan>
                </text>
                <text x="145" y="145"
                      style="font-family: Arial, Helvetica, sans-serif; font-size: 12px; fill: #000000; letter-spacing: normal;font-weight: normal;"
                      text-anchor="end"></text>
            </a>
        </g>
        <g transform="translate(10,170)" cursor="pointer">
            <a xlink:href="https://www.instagram.com" target="_top"
               style="text-decoration: none; font-family:Arial; fill: #fcfcfc;">
                <rect x="0" y="0" fill="#fcfcfc" width="150" height="150" rx="5" ry="5" stroke="#000000"
                      class="btn_6fc54283-fe8a-4380-83fb-8cc85aed7804_cls raise">
                    <title>Instagram</title>
                </rect>
                <path filter="url(#buttonBlur)" class="btn_6fc54283-fe8a-4380-83fb-8cc85aed7804_cls"
                      d="M 0 5.0 A 5.0 5.0 0 0 1 5.0 0 L 145.0 0 A 5.0 5.0 0 0 1 150.0 5.0 L 150.0 35.0 A 0.0 0.0 0 0 1 150.0 35.0 L 0.0 35.0 A 0.0 0.0 0 0 1 0 35.0 Z"></path>
                <path fill="url(#overlayGrad)" class="btn_6fc54283-fe8a-4380-83fb-8cc85aed7804_cls"
                      d="M 0 5.0 A 5.0 5.0 0 0 1 5.0 0 L 145.0 0 A 5.0 5.0 0 0 1 150.0 5.0 L 150.0 35.0 A 0.0 0.0 0 0 1 150.0 35.0 L 0.0 35.0 A 0.0 0.0 0 0 1 0 35.0 Z"></path>
                <text text-anchor="middle" x="75" y="8" class="glass">
                    <tspan x="75" dy="12"
                           style="font-family: Arial, Helvetica, sans-serif; font-size: 12px; fill: #fcfcfc; letter-spacing: normal;font-weight: bold;">
                        Instagram
                    </tspan>
                </text>
                <rect x="0" y="35" height="90" width="150" fill="#ffb79a" opacity="0.9" cursor="glass"/>

                <image x="0" y="35" width="150" height="90" xlink:href="macaw.jpg"></image>
                <path class="btn_6fc54283-fe8a-4380-83fb-8cc85aed7804_cls" transform="translate(0,125)"
                      d="M 0 0.0 A 0.0 0.0 0 0 1 0.0 0 L 150.0 0 A 0.0 0.0 0 0 1 150.0 0.0 L 150.0 20.0 A 5.0 5.0 0 0 1 144.0 25.0 L 5.0 25.0 A 5.0 5.0 0 0 1 0 20.0 Z"></path>
                <text x="145" y="135" text-anchor="end">
                    <tspan x="145" dy="-12"
                           style="font-family: Arial, Helvetica, sans-serif; font-size: 13px;  fill: #000000; letter-spacing: normal;font-weight: normal; font-style: italic;">
                        Kevin
                    </tspan>
                    <tspan x="145" dy="-12"
                           style="font-family: Arial, Helvetica, sans-serif; font-size: 13px;  fill: #000000; letter-spacing: normal;font-weight: normal; font-style: italic;">
                        Mike
                    </tspan>
                </text>
                <text x="145" y="145"
                      style="font-family: Arial, Helvetica, sans-serif; font-size: 12px; fill: #000000; letter-spacing: normal;font-weight: normal;"
                      text-anchor="end"></text>
            </a>
        </g>
        <g transform="translate(170,170)" cursor="pointer">
            <a xlink:href="https://www.microsoft.com" target="_top"
               style="text-decoration: none; font-family:Arial; fill: #fcfcfc;">
                <rect x="0" y="0" fill="#fcfcfc" width="150" height="150" rx="5" ry="5" stroke="#000000"
                      class="btn_b43aceef-7ef9-4eda-b0ef-d7ff38c26bc5_cls raise">
                    <title>Microsoft</title>
                </rect>
                <path filter="url(#buttonBlur)" class="btn_b43aceef-7ef9-4eda-b0ef-d7ff38c26bc5_cls"
                      d="M 0 5.0 A 5.0 5.0 0 0 1 5.0 0 L 145.0 0 A 5.0 5.0 0 0 1 150.0 5.0 L 150.0 35.0 A 0.0 0.0 0 0 1 150.0 35.0 L 0.0 35.0 A 0.0 0.0 0 0 1 0 35.0 Z"></path>
                <path fill="url(#overlayGrad)" class="btn_b43aceef-7ef9-4eda-b0ef-d7ff38c26bc5_cls"
                      d="M 0 5.0 A 5.0 5.0 0 0 1 5.0 0 L 145.0 0 A 5.0 5.0 0 0 1 150.0 5.0 L 150.0 35.0 A 0.0 0.0 0 0 1 150.0 35.0 L 0.0 35.0 A 0.0 0.0 0 0 1 0 35.0 Z"></path>
                <text text-anchor="middle" x="75" y="8" class="glass">
                    <tspan x="75" dy="12"
                           style="font-family: Arial, Helvetica, sans-serif; font-size: 12px; fill: #fcfcfc; letter-spacing: normal;font-weight: bold;">
                        Microsoft
                    </tspan>
                </text>
                <text x="0" y="38">
                    <tspan x="2" dy="10"
                           style="font-family: Arial, Helvetica, sans-serif; font-size: 12px; fill: #000000; letter-spacing: normal;font-weight: normal;">
                        Microsoft Corporation is an
                    </tspan>
                    <tspan x="2" dy="10"
                           style="font-family: Arial, Helvetica, sans-serif; font-size: 12px; fill: #000000; letter-spacing: normal;font-weight: normal;">
                        American multinational
                    </tspan>
                    <tspan x="2" dy="10"
                           style="font-family: Arial, Helvetica, sans-serif; font-size: 12px; fill: #000000; letter-spacing: normal;font-weight: normal;">
                        technology corporation which
                    </tspan>
                    <tspan x="2" dy="10"
                           style="font-family: Arial, Helvetica, sans-serif; font-size: 12px; fill: #000000; letter-spacing: normal;font-weight: normal;">
                        produces computer software,
                    </tspan>
                    <tspan x="2" dy="10"
                           style="font-family: Arial, Helvetica, sans-serif; font-size: 12px; fill: #000000; letter-spacing: normal;font-weight: normal;">
                        consumer electronics, personal
                    </tspan>
                    <tspan x="2" dy="10"
                           style="font-family: Arial, Helvetica, sans-serif; font-size: 12px; fill: #000000; letter-spacing: normal;font-weight: normal;">
                        computers, and related
                    </tspan>
                    <tspan x="2" dy="10"
                           style="font-family: Arial, Helvetica, sans-serif; font-size: 12px; fill: #000000; letter-spacing: normal;font-weight: normal;">
                        services.
                    </tspan>
                </text>
                <path class="btn_b43aceef-7ef9-4eda-b0ef-d7ff38c26bc5_cls" transform="translate(0,125)"
                      d="M 0 0.0 A 0.0 0.0 0 0 1 0.0 0 L 150.0 0 A 0.0 0.0 0 0 1 150.0 0.0 L 150.0 20.0 A 5.0 5.0 0 0 1 144.0 25.0 L 5.0 25.0 A 5.0 5.0 0 0 1 0 20.0 Z"></path>
                <text x="145" y="135" text-anchor="end">
                    <tspan x="145" dy="-12"
                           style="font-family: Arial, Helvetica, sans-serif; font-size: 13px;  fill: #000000; letter-spacing: normal;font-weight: normal; font-style: italic;">
                        Bill Gates
                    </tspan>
                </text>
                <text x="145" y="145"
                      style="font-family: Arial, Helvetica, sans-serif; font-size: 12px; fill: #000000; letter-spacing: normal;font-weight: normal;"
                      text-anchor="end"></text>
            </a>
        </g>
        <g transform="translate(330,170)" cursor="pointer">
            <a xlink:href="https://www.netflix.com" target="_top"
               style="text-decoration: none; font-family:Arial; fill: #fcfcfc;">
                <rect x="0" y="0" fill="#fcfcfc" width="150" height="150" rx="5" ry="5" stroke="#000000"
                      class="btn_b75e3cfd-c5c1-4c0f-9b80-b8edc92301a0_cls raise">
                    <title>Netflix</title>
                </rect>
                <path filter="url(#buttonBlur)" class="btn_b75e3cfd-c5c1-4c0f-9b80-b8edc92301a0_cls"
                      d="M 0 5.0 A 5.0 5.0 0 0 1 5.0 0 L 145.0 0 A 5.0 5.0 0 0 1 150.0 5.0 L 150.0 35.0 A 0.0 0.0 0 0 1 150.0 35.0 L 0.0 35.0 A 0.0 0.0 0 0 1 0 35.0 Z"></path>
                <path fill="url(#overlayGrad)" class="btn_b75e3cfd-c5c1-4c0f-9b80-b8edc92301a0_cls"
                      d="M 0 5.0 A 5.0 5.0 0 0 1 5.0 0 L 145.0 0 A 5.0 5.0 0 0 1 150.0 5.0 L 150.0 35.0 A 0.0 0.0 0 0 1 150.0 35.0 L 0.0 35.0 A 0.0 0.0 0 0 1 0 35.0 Z"></path>
                <text text-anchor="middle" x="75" y="8" class="glass">
                    <tspan x="75" dy="12"
                           style="font-family: Arial, Helvetica, sans-serif; font-size: 12px; fill: #fcfcfc; letter-spacing: normal;font-weight: bold;">
                        Netflix
                    </tspan>
                </text>
                <text x="0" y="38">
                    <tspan x="2" dy="10"
                           style="font-family: Arial, Helvetica, sans-serif; font-size: 12px; fill: #000000; letter-spacing: normal;font-weight: normal;">
                        Netflix, Inc. is an American
                    </tspan>
                    <tspan x="2" dy="10"
                           style="font-family: Arial, Helvetica, sans-serif; font-size: 12px; fill: #000000; letter-spacing: normal;font-weight: normal;">
                        subscription streaming service
                    </tspan>
                    <tspan x="2" dy="10"
                           style="font-family: Arial, Helvetica, sans-serif; font-size: 12px; fill: #000000; letter-spacing: normal;font-weight: normal;">
                        and production company.
                    </tspan>
                </text>
                <path class="btn_b75e3cfd-c5c1-4c0f-9b80-b8edc92301a0_cls" transform="translate(0,125)"
                      d="M 0 0.0 A 0.0 0.0 0 0 1 0.0 0 L 150.0 0 A 0.0 0.0 0 0 1 150.0 0.0 L 150.0 20.0 A 5.0 5.0 0 0 1 144.0 25.0 L 5.0 25.0 A 5.0 5.0 0 0 1 0 20.0 Z"></path>
                <text x="145" y="135" text-anchor="end">
                    <tspan x="145" dy="-12"
                           style="font-family: Arial, Helvetica, sans-serif; font-size: 13px;  fill: #000000; letter-spacing: normal;font-weight: normal; font-style: italic;">
                        Reed
                    </tspan>
                    <tspan x="145" dy="-12"
                           style="font-family: Arial, Helvetica, sans-serif; font-size: 13px;  fill: #000000; letter-spacing: normal;font-weight: normal; font-style: italic;">
                        Marc
                    </tspan>
                </text>
                <text x="145" y="145"
                      style="font-family: Arial, Helvetica, sans-serif; font-size: 12px; fill: #000000; letter-spacing: normal;font-weight: normal;"
                      text-anchor="end"></text>
            </a>
        </g>
    </g>
</svg>