<?xml version="1.0" encoding="UTF-8"?>
<svg width="1024" height="768" viewBox="0 0 3456 2234" xmlns="http://www.w3.org/2000/svg">
    <linearGradient id="linearGradient1" x1="581" y1="1059" x2="581" y2="111" gradientUnits="userSpaceOnUse">
        <stop offset="0" stop-color="#1ec9ff" stop-opacity="1"/>
        <stop offset="1" stop-color="#00f3dd" stop-opacity="1"/>
    </linearGradient>
    <path id="Rectangle" fill="url(#linearGradient1)" fill-opacity="0.594241" fill-rule="evenodd" stroke="none"
          d="M 504 1059 L 658 1059 L 658 111 L 504 111 Z"/>
    <g id="Rectangle-copy-4">
        <linearGradient id="linearGradient2" x1="582" y1="2085" x2="582" y2="1180" gradientUnits="userSpaceOnUse">
            <stop offset="0" stop-color="#00cbff" stop-opacity="1"/>
            <stop offset="1" stop-color="#00ffdb" stop-opacity="1"/>
        </linearGradient>
        <path id="path1" fill="url(#linearGradient2)" fill-opacity="0.674128" fill-rule="evenodd"
              stroke-width="7" d="M 505 2085 L 659 2085 L 659 1180 L 505 1180 Z"/>
    </g>
    <text id="Client-side" transform="matrix(-0 -1 1 -0 0.5 1161.5)" xml:space="preserve" x="391.692" y="610"
          style="font-family: Arial, Helvetica, sans-serif" font-size="72" font-weight="500"
          fill="#351c75">Client-side</text>
    <text id="Server-side" transform="matrix(-0 -1 1 -0 -1051.5 2213.5)" xml:space="preserve" x="382.746" y="1662"
          style="font-family: Arial, Helvetica, sans-serif" font-size="72" font-weight="500"
          fill="#351c75">Server-side</text>
    <g id="Line">
        <linearGradient id="linearGradient3" x1="1881" y1="1174.999713" x2="1881" y2="1059.000287"
                        gradientUnits="userSpaceOnUse"
                        gradientTransform="matrix(0.999995 -0.003145 0.003145 0.999995 -3.503261 5.920588)">
            <stop offset="0" stop-color="#00cbff" stop-opacity="1"/>
            <stop offset="1" stop-color="#00ffdb" stop-opacity="1"/>
        </linearGradient>
        <path id="path2" fill="url(#linearGradient3)" fill-opacity="0.674128" fill-rule="evenodd" stroke="#674ea7"
              stroke-width="7" d="M 1881 1059 L 1881 1154"/>
        <path id="path3" fill="#674ea7" stroke="none" d="M 1860 1133 L 1881 1175 L 1902 1133 L 1881 1140 Z"/>
    </g>
    <g id="Line-copy-2">
        <linearGradient id="linearGradient4" x1="1955" y1="1176.999713" x2="1955" y2="1061.000287"
                        gradientUnits="userSpaceOnUse"
                        gradientTransform="matrix(0.999995 -0.003145 0.003145 0.999995 -3.509184 6.153301)">
            <stop offset="0" stop-color="#00cbff" stop-opacity="1"/>
            <stop offset="1" stop-color="#00ffdb" stop-opacity="1"/>
        </linearGradient>
        <path id="path4" fill="url(#linearGradient4)" fill-opacity="0.674128" fill-rule="evenodd" stroke="#674ea7"
              stroke-width="7" d="M 1955 1061 L 1955 1156"/>
        <path id="path5" fill="#674ea7" stroke="none" d="M 1934 1135 L 1955 1177 L 1976 1135 L 1955 1142 Z"/>
    </g>
    <g id="Line-copy">
        <linearGradient id="linearGradient5" x1="1814" y1="1174.999713" x2="1814" y2="1059.000287"
                        gradientUnits="userSpaceOnUse"
                        gradientTransform="matrix(0.999995 -0.003145 0.003145 0.999995 -3.503592 5.709897)">
            <stop offset="0" stop-color="#00cbff" stop-opacity="1"/>
            <stop offset="1" stop-color="#00ffdb" stop-opacity="1"/>
        </linearGradient>
        <path id="path6" fill="url(#linearGradient5)" fill-opacity="0.674128" fill-rule="evenodd" stroke="#674ea7"
              stroke-width="7" d="M 1814 1059 L 1814 1154"/>
        <path id="path7" fill="#674ea7" stroke="none" d="M 1793 1133 L 1814 1175 L 1835 1133 L 1814 1140 Z"/>
    </g>
    <text id="Domain-Services" xml:space="preserve" x="2763.681" y="2129"
          style="font-family: Arial, Helvetica, sans-serif" font-size="36"
          font-weight="500" fill="#351c75">Domain Services</text>
    <path id="Rounded-Rectangle" fill="#6fa8dc" fill-rule="evenodd" stroke="#6d9eeb" stroke-width="3" opacity="0.396595"
          d="M 709 994 C 709 1018.29187 709 1030.437866 714.100159 1039.5448 C 717.704651 1045.981201 723.01886 1051.295288 729.455139 1054.89978 C 738.562134 1060 750.708069 1060 775 1060 L 2986 1060 C 3010.291992 1060 3022.437744 1060 3031.544922 1054.89978 C 3037.981201 1051.295288 3043.29541 1045.981201 3046.899902 1039.5448 C 3052 1030.437866 3052 1018.29187 3052 994 L 3052 177 C 3052 152.708008 3052 140.562012 3046.899902 131.455078 C 3043.29541 125.018799 3037.981201 119.70459 3031.544922 116.100098 C 3022.437988 111 3010.291992 111 2986 111 L 775 111 C 750.708069 111 738.562134 111 729.455139 116.100098 C 723.01886 119.70459 717.704651 125.018799 714.100159 131.455078 C 709 140.562012 709 152.708008 709 177 Z"/>
    <path id="Rounded-Rectangle-copy" fill="#6fa8dc" fill-rule="evenodd" stroke="#6d9eeb" stroke-width="3"
          d="M 709 2019 C 709 2043.29187 709 2055.437988 714.100159 2064.544922 C 717.704651 2070.981201 723.01886 2076.29541 729.455139 2079.899902 C 738.562134 2085 750.708069 2085 775 2085 L 2986 2085 C 3010.291992 2085 3022.437744 2085 3031.544922 2079.899902 C 3037.981201 2076.29541 3043.29541 2070.981201 3046.899902 2064.544922 C 3052 2055.437988 3052 2043.29187 3052 2019 L 3052 1246 C 3052 1221.708008 3052 1209.562134 3046.899902 1200.455078 C 3043.29541 1194.018799 3037.981201 1188.70459 3031.544922 1185.100098 C 3022.437988 1180 3010.291992 1180 2986 1180 L 775 1180 C 750.708069 1180 738.562134 1180 729.455139 1185.100098 C 723.01886 1188.70459 717.704651 1194.018799 714.100159 1200.455078 C 709 1209.562134 709 1221.708008 709 1246 Z"/>
    <g id="Group">
        <linearGradient id="linearGradient6" x1="1151" y1="2006" x2="1151" y2="1548" gradientUnits="userSpaceOnUse">
            <stop offset="0" stop-color="#00cbff" stop-opacity="1"/>
            <stop offset="1" stop-color="#00ffdb" stop-opacity="1"/>
        </linearGradient>
        <path id="path8" fill="url(#linearGradient6)" fill-opacity="0.674128" fill-rule="evenodd" stroke="#b4a7d6"
              stroke-width="7" d="M 922 2006 L 1380 2006 L 1380 1548 L 922 1548 Z"/>
        <text id="Microservice" xml:space="preserve" x="1155" y="1807" text-anchor="middle"
              style="font-family: Arial, Helvetica, sans-serif" font-size="72"
              font-weight="500" fill="#351c75">Microservice</text>
    </g>
    <g id="Group-copy">
        <linearGradient id="linearGradient7" x1="1669" y1="2006" x2="1669" y2="1548" gradientUnits="userSpaceOnUse">
            <stop offset="0" stop-color="#00cbff" stop-opacity="1"/>
            <stop offset="1" stop-color="#00ffdb" stop-opacity="1"/>
        </linearGradient>
        <path id="path9" fill="url(#linearGradient7)" fill-opacity="0.674128" fill-rule="evenodd" stroke="#b4a7d6"
              stroke-width="7" d="M 1440 2006 L 1898 2006 L 1898 1548 L 1440 1548 Z"/>
        <text id="text1" xml:space="preserve" x="1675.46" y="1807" style="font-family: Arial, Helvetica, sans-serif"
              font-size="72" text-anchor="middle"
              font-weight="500" fill="#351c75">Microservice</text>
    </g>
    <g id="Group-copy-2">
        <linearGradient id="linearGradient8" x1="2194" y1="2006" x2="2194" y2="1548" gradientUnits="userSpaceOnUse">
            <stop offset="0" stop-color="#00cbff" stop-opacity="1"/>
            <stop offset="1" stop-color="#00ffdb" stop-opacity="1"/>
        </linearGradient>
        <path id="path10" fill="url(#linearGradient8)" fill-opacity="0.674128" fill-rule="evenodd" stroke="#b4a7d6"
              stroke-width="7" d="M 1965 2006 L 2423 2006 L 2423 1548 L 1965 1548 Z"/>
        <text id="text2" xml:space="preserve" x="2200.46" y="1807" style="font-family: Arial, Helvetica, sans-serif"
              font-size="72" text-anchor="middle"
              font-weight="500" fill="#351c75">Microservice</text>
    </g>
    <g id="Group-copy-3">
        <linearGradient id="linearGradient9" x1="2691" y1="2006" x2="2691" y2="1548" gradientUnits="userSpaceOnUse">
            <stop offset="0" stop-color="#00cbff" stop-opacity="1"/>
            <stop offset="1" stop-color="#00ffdb" stop-opacity="1"/>
        </linearGradient>
        <path id="path11" fill="url(#linearGradient9)" fill-opacity="0.674128" fill-rule="evenodd" stroke="#b4a7d6"
              stroke-width="7" d="M 2462 2006 L 2920 2006 L 2920 1548 L 2462 1548 Z"/>
        <text id="text3" xml:space="preserve" x="2698.46" y="1807" style="font-family: Arial, Helvetica, sans-serif"
              font-size="72" text-anchor="middle"
              font-weight="500" fill="#351c75">Microservice</text>
    </g>
    <linearGradient id="linearGradient10" x1="1921" y1="1498" x2="1921" y2="1277" gradientUnits="userSpaceOnUse">
        <stop offset="0" stop-color="#00cbff" stop-opacity="1"/>
        <stop offset="1" stop-color="#00ffdb" stop-opacity="1"/>
    </linearGradient>
    <path id="path12" fill="url(#linearGradient10)" fill-opacity="0.674128" fill-rule="evenodd" stroke="#b4a7d6"
          stroke-width="7" d="M 922 1498 L 2920 1498 L 2920 1277 L 922 1277 Z"/>
    <text id="API-Gateway" xml:space="preserve" x="1718.424" y="1417" style="font-family: Arial, Helvetica, sans-serif"
          font-size="72"
          font-weight="500" fill="#351c75">API Gateway</text>
    <linearGradient id="linearGradient11" x1="1151" y1="1016" x2="1151" y2="686" gradientUnits="userSpaceOnUse">
        <stop offset="0" stop-color="#ff8c01" stop-opacity="1"/>
        <stop offset="1" stop-color="#ffcc00" stop-opacity="1"/>
    </linearGradient>
    <path id="path13" fill="url(#linearGradient11)" fill-rule="evenodd" stroke="none"
          d="M 922 986.300049 C 922 997.231323 922 1002.697021 924.295044 1006.795166 C 925.917114 1009.691528 928.308472 1012.082886 931.204834 1013.704956 C 935.302979 1016 940.768616 1016 951.700012 1016 L 1350.300049 1016 C 1361.231323 1016 1366.697021 1016 1370.795166 1013.704956 C 1373.691528 1012.082886 1376.082886 1009.691528 1377.704956 1006.795166 C 1380 1002.697021 1380 997.231323 1380 986.300049 L 1380 715.699951 C 1380 704.768677 1380 699.302979 1377.704956 695.204834 C 1376.082886 692.308472 1373.691528 689.917114 1370.795166 688.295044 C 1366.697021 686 1361.231323 686 1350.300049 686 L 951.700012 686 C 940.768616 686 935.302979 686 931.204834 688.295044 C 928.308472 689.917114 925.917114 692.308472 924.295044 695.204834 C 922 699.302979 922 704.768677 922 715.699951 Z"/>
    <linearGradient id="linearGradient12" x1="1147" y1="593" x2="1147" y2="183" gradientUnits="userSpaceOnUse">
        <stop offset="0" stop-color="#ff8c01" stop-opacity="1"/>
        <stop offset="1" stop-color="#ffcc00" stop-opacity="1"/>
    </linearGradient>
    <path id="path14" fill="url(#linearGradient12)" fill-rule="evenodd" stroke="none" opacity="0.728626"
          d="M 922 563.300049 C 922 574.231323 922 579.697021 924.295044 583.795166 C 925.917114 586.691528 928.308472 589.082886 931.204834 590.704956 C 935.302979 593 940.768616 593 951.700012 593 L 1342.300049 593 C 1353.231323 593 1358.697021 593 1362.795166 590.704956 C 1365.691528 589.082886 1368.082886 586.691528 1369.704956 583.795166 C 1372 579.697021 1372 574.231323 1372 563.300049 L 1372 212.699951 C 1372 201.768677 1372 196.302979 1369.704956 192.204834 C 1368.082886 189.308472 1365.691528 186.917114 1362.795166 185.295166 C 1358.697021 183 1353.231323 183 1342.300049 183 L 951.700012 183 C 940.768616 183 935.302979 183 931.204834 185.295166 C 928.308472 186.917114 925.917114 189.308472 924.295044 192.204834 C 922 196.302979 922 201.768677 922 212.699951 Z"/>
    <linearGradient id="linearGradient13" x1="1656" y1="592" x2="1656" y2="182" gradientUnits="userSpaceOnUse">
        <stop offset="0" stop-color="#ff8c01" stop-opacity="1"/>
        <stop offset="1" stop-color="#ffcc00" stop-opacity="1"/>
    </linearGradient>
    <path id="Rectangle-copy" fill="url(#linearGradient13)" fill-rule="evenodd" stroke="none" opacity="0.728626"
          d="M 1431 562.300049 C 1431 573.231323 1431 578.697021 1433.295044 582.795166 C 1434.917114 585.691528 1437.308472 588.082886 1440.204834 589.704956 C 1444.302979 592 1449.768677 592 1460.699951 592 L 1851.300049 592 C 1862.231323 592 1867.697021 592 1871.795166 589.704956 C 1874.691528 588.082886 1877.082886 585.691528 1878.704956 582.795166 C 1881 578.697021 1881 573.231323 1881 562.300049 L 1881 211.699951 C 1881 200.768677 1881 195.302979 1878.704956 191.204834 C 1877.082886 188.308472 1874.691528 185.916992 1871.795166 184.295166 C 1867.697021 182 1862.231323 182 1851.300049 182 L 1460.699951 182 C 1449.768677 182 1444.302979 182 1440.204834 184.295166 C 1437.308472 185.916992 1434.917114 188.308472 1433.295044 191.204834 C 1431 195.302979 1431 200.768677 1431 211.699951 Z"/>
    <linearGradient id="linearGradient14" x1="2153" y1="1016" x2="2153" y2="182" gradientUnits="userSpaceOnUse">
        <stop offset="0" stop-color="#ff8c01" stop-opacity="1"/>
        <stop offset="1" stop-color="#ffcc00" stop-opacity="1"/>
    </linearGradient>
    <path id="Rectangle-copy-2" fill="url(#linearGradient14)" fill-rule="evenodd" stroke="none" opacity="0.728626"
          d="M 1928 986.300049 C 1928 997.231323 1928 1002.697021 1930.295044 1006.795166 C 1931.917114 1009.691528 1934.308472 1012.082886 1937.204834 1013.704956 C 1941.302979 1016 1946.768677 1016 1957.699951 1016 L 2348.300049 1016 C 2359.231445 1016 2364.697021 1016 2368.795166 1013.704956 C 2371.691406 1012.082886 2374.083008 1009.691528 2375.704834 1006.795166 C 2378 1002.697021 2378 997.231323 2378 986.300049 L 2378 211.699951 C 2378 200.768677 2378 195.302979 2375.704834 191.204834 C 2374.083008 188.308472 2371.691406 185.916992 2368.795166 184.295166 C 2364.697021 182 2359.231445 182 2348.300049 182 L 1957.699951 182 C 1946.768677 182 1941.302979 182 1937.204834 184.294922 C 1934.308472 185.916992 1931.917114 188.308472 1930.295044 191.204834 C 1928 195.302979 1928 200.768555 1928 211.699951 Z"/>
    <linearGradient id="linearGradient15" x1="2648" y1="1016" x2="2648" y2="686" gradientUnits="userSpaceOnUse">
        <stop offset="0" stop-color="#ff8c01" stop-opacity="1"/>
        <stop offset="1" stop-color="#ffcc00" stop-opacity="1"/>
    </linearGradient>
    <path id="Rectangle-copy-3" fill="url(#linearGradient15)" fill-rule="evenodd" stroke="none" opacity="0.728626"
          d="M 2423 986.300049 C 2423 997.231323 2423 1002.697021 2425.295166 1006.795166 C 2426.916992 1009.691528 2429.308594 1012.082886 2432.204834 1013.704956 C 2436.302979 1016 2441.768555 1016 2452.699951 1016 L 2843.300049 1016 C 2854.231445 1016 2859.697021 1016 2863.795166 1013.704956 C 2866.691406 1012.082886 2869.083008 1009.691528 2870.704834 1006.795166 C 2873 1002.697021 2873 997.231323 2873 986.300049 L 2873 715.699951 C 2873 704.768677 2873 699.302979 2870.704834 695.204834 C 2869.083008 692.308472 2866.691406 689.917114 2863.795166 688.295044 C 2859.697021 686 2854.231445 686 2843.300049 686 L 2452.699951 686 C 2441.768555 686 2436.302979 686 2432.204834 688.295044 C 2429.308594 689.917114 2426.916992 692.308472 2425.295166 695.204834 C 2423 699.302979 2423 704.768677 2423 715.699951 Z"/>
    <text id="Frontend--Module" xml:space="preserve"><tspan x="991.752" y="378" style="font-family: Arial, Helvetica, sans-serif" font-size="72" font-weight="500" fill="#351c75" xml:space="preserve">Frontend</tspan>
        <tspan x="1018.842" y="457.2" style="font-family: Arial, Helvetica, sans-serif" font-size="72" font-weight="500"
               fill="#351c75"
               xml:space="preserve">Module</tspan></text>
    <text id="text4" xml:space="preserve"><tspan x="1500.752" y="377" style="font-family: Arial, Helvetica, sans-serif" font-size="72" font-weight="500" fill="#351c75" xml:space="preserve">Frontend</tspan>
        <tspan x="1527.842" y="456.2" style="font-family: Arial, Helvetica, sans-serif" font-size="72" font-weight="500"
               fill="#351c75"
               xml:space="preserve">Module</tspan></text>
    <text id="Server-rendered--frontend" xml:space="preserve"><tspan x="2535.304" y="801" style="font-family: Arial, Helvetica, sans-serif" font-size="72" font-weight="500" fill="#351c75" xml:space="preserve">Server</tspan>
        <tspan x="2491.276" y="880.2" style="font-family: Arial, Helvetica, sans-serif" font-size="72" font-weight="500"
               fill="#351c75"
               xml:space="preserve">rendered</tspan>
        <tspan x="2498.062" y="959.4" style="font-family: Arial, Helvetica, sans-serif" font-size="72" font-weight="500"
               fill="#351c75"
               xml:space="preserve">frontend</tspan></text>
    <text id="Frontend--Module-with" xml:space="preserve"><tspan x="1998.252" y="298" style="font-family: Arial, Helvetica, sans-serif" font-size="72" font-weight="500" fill="#351c75" xml:space="preserve">Frontend</tspan>
        <tspan x="2025.342" y="377.2" style="font-family: Arial, Helvetica, sans-serif" font-size="72" font-weight="500"
               fill="#351c75"
               xml:space="preserve">Module</tspan>
        <tspan x="2061.756" y="456.4" style="font-family: Arial, Helvetica, sans-serif" font-size="72" font-weight="500"
               fill="#351c75"
               xml:space="preserve">(with</tspan>
        <tspan x="1970.478" y="535.6" style="font-family: Arial, Helvetica, sans-serif" font-size="72" font-weight="500"
               fill="#351c75"
               xml:space="preserve">Hydration)</tspan></text>
    <text id="BFF-" xml:space="preserve" x="1085.496" y="780" style="font-family: Arial, Helvetica, sans-serif"
          font-size="72" font-weight="500"
          fill="#351c75">BFF</text>
    <text id="Web-Application" xml:space="preserve" x="2771.065" y="1104"
          style="font-family: Arial, Helvetica, sans-serif" font-size="36"
          font-weight="500" fill="#351c75">Web Application</text>
    <path id="path15" fill="#b4a7d6" fill-rule="evenodd" stroke="#b4a7d6" stroke-width="7"
          d="M 1147 593 L 1147.000122 685.99939"/>
    <path id="Shape" fill="#b4a7d6" fill-rule="evenodd" stroke="#b4a7d6" stroke-width="3" stroke-dasharray="12 6"
          stroke-dashoffset="0" d="M 3052 639.996094 L 708.998474 652.009033"/>
</svg>
