<?xml version="1.0" encoding="UTF-8"?>
<svg width="512" height="512" viewBox="0 0 512 512" xmlns="http://www.w3.org/2000/svg">
  <defs>
    <style>
      @import url('https://fonts.googleapis.com/css2?family=Poppins:wght@600;700&amp;display=swap');
    </style>
    <linearGradient id="planner-bg" x1="0%" y1="0%" x2="100%" y2="100%">
      <stop offset="0%" style="stop-color:#ea580c;stop-opacity:1" />
      <stop offset="100%" style="stop-color:#fb923c;stop-opacity:1" />
    </linearGradient>
    <linearGradient id="accent-green" x1="0%" y1="0%" x2="100%" y2="0%">
      <stop offset="0%" style="stop-color:#22c55e;stop-opacity:1" />
      <stop offset="100%" style="stop-color:#16a34a;stop-opacity:1" />
    </linearGradient>
    <linearGradient id="accent-blue" x1="0%" y1="0%" x2="100%" y2="0%">
      <stop offset="0%" style="stop-color:#38bdf8;stop-opacity:1" />
      <stop offset="100%" style="stop-color:#0ea5e9;stop-opacity:1" />
    </linearGradient>
    <linearGradient id="accent-purple" x1="0%" y1="0%" x2="100%" y2="0%">
      <stop offset="0%" style="stop-color:#c4b5fd;stop-opacity:1" />
      <stop offset="100%" style="stop-color:#8b5cf6;stop-opacity:1" />
    </linearGradient>
    <clipPath id="circle-clip">
      <circle cx="256" cy="256" r="240"/>
    </clipPath>
    <filter id="card-shadow">
      <feGaussianBlur stdDeviation="4" result="coloredBlur"/>
      <feMerge>
        <feMergeNode in="coloredBlur"/>
        <feMergeNode in="SourceGraphic"/>
      </feMerge>
    </filter>
  </defs>

  <!-- Circular background -->
  <circle cx="256" cy="256" r="240" fill="url(#planner-bg)"/>

  <!-- Content clipped to circle -->
  <g clip-path="url(#circle-clip)">
    <!-- Subtle grid overlay -->
    <g opacity="0.08" stroke="#ffffff" stroke-width="2">
      <path d="M80,140 L432,140 M80,230 L432,230 M80,320 L432,320 M80,410 L432,410"/>
      <path d="M140,100 L140,412 M256,100 L256,412 M372,100 L372,412"/>
    </g>

    <!-- Calendar icon (top right) -->
    <g transform="translate(360, 90)">
      <rect x="0" y="10" width="80" height="70" rx="10" fill="#fff7ed" opacity="0.9"/>
      <rect x="0" y="10" width="80" height="18" rx="10" fill="#fed7aa"/>
      <circle cx="20" cy="14" r="4" fill="#ea580c"/>
      <circle cx="60" cy="14" r="4" fill="#ea580c"/>
      <rect x="14" y="36" width="14" height="12" rx="3" fill="#fdba74"/>
      <rect x="36" y="36" width="14" height="12" rx="3" fill="#fdba74"/>
      <rect x="58" y="36" width="14" height="12" rx="3" fill="#fdba74"/>
      <rect x="14" y="54" width="14" height="12" rx="3" fill="#fdba74"/>
      <rect x="36" y="54" width="14" height="12" rx="3" fill="#fdba74"/>
      <rect x="58" y="54" width="14" height="12" rx="3" fill="#fb923c"/>
    </g>

    <!-- Planner cards -->
    <g transform="translate(92, 140)">
      <rect x="0" y="0" width="320" height="70" rx="12" fill="#ffffff" opacity="0.96" filter="url(#card-shadow)"/>
      <rect x="0" y="12" width="6" height="46" rx="3" fill="url(#accent-green)"/>
      <rect x="18" y="16" width="18" height="18" rx="4" fill="#dcfce7" stroke="#16a34a" stroke-width="2"/>
      <path d="M 24 24 L 28 28 L 34 20" stroke="#16a34a" stroke-width="2.5" fill="none" stroke-linecap="round" stroke-linejoin="round"/>
      <rect x="46" y="18" width="180" height="8" rx="4" fill="#e2e8f0"/>
      <rect x="46" y="34" width="140" height="6" rx="3" fill="#e2e8f0" opacity="0.8"/>
      <rect x="46" y="48" width="200" height="6" rx="3" fill="#e2e8f0" opacity="0.6"/>
    </g>

    <g transform="translate(92, 230)">
      <rect x="0" y="0" width="320" height="70" rx="12" fill="#ffffff" opacity="0.96" filter="url(#card-shadow)"/>
      <rect x="0" y="12" width="6" height="46" rx="3" fill="url(#accent-blue)"/>
      <rect x="18" y="16" width="18" height="18" rx="4" fill="#e0f2fe" stroke="#0ea5e9" stroke-width="2"/>
      <circle cx="27" cy="25" r="4" fill="#0ea5e9"/>
      <rect x="46" y="18" width="200" height="8" rx="4" fill="#e2e8f0"/>
      <rect x="46" y="34" width="160" height="6" rx="3" fill="#e2e8f0" opacity="0.8"/>
      <rect x="46" y="48" width="120" height="6" rx="3" fill="#e2e8f0" opacity="0.6"/>
    </g>

    <g transform="translate(92, 320)">
      <rect x="0" y="0" width="320" height="70" rx="12" fill="#ffffff" opacity="0.96" filter="url(#card-shadow)"/>
      <rect x="0" y="12" width="6" height="46" rx="3" fill="url(#accent-purple)"/>
      <rect x="18" y="16" width="18" height="18" rx="4" fill="#ede9fe" stroke="#8b5cf6" stroke-width="2"/>
      <rect x="46" y="18" width="170" height="8" rx="4" fill="#e2e8f0"/>
      <rect x="46" y="34" width="120" height="6" rx="3" fill="#e2e8f0" opacity="0.8"/>
      <rect x="46" y="48" width="190" height="6" rx="3" fill="#e2e8f0" opacity="0.6"/>
    </g>

    <!-- Progress bar -->
    <g transform="translate(120, 410)">
      <rect x="0" y="0" width="260" height="12" rx="6" fill="#fed7aa" opacity="0.7"/>
      <rect x="0" y="0" width="170" height="12" rx="6" fill="#34d399"/>
      <circle cx="170" cy="6" r="8" fill="#22c55e" stroke="#ffffff" stroke-width="2"/>
    </g>

    <!-- Corner accents -->
    <path d="M 70,70 L 70,90 M 70,70 L 90,70" stroke="#fbbf24" stroke-width="4" stroke-linecap="round" opacity="0.7"/>
    <path d="M 442,70 L 442,90 M 442,70 L 422,70" stroke="#fbbf24" stroke-width="4" stroke-linecap="round" opacity="0.7"/>
  </g>

  <!-- Circular border -->
  <circle cx="256" cy="256" r="240" fill="none" stroke="#fdba74" stroke-width="3" opacity="0.6"/>
</svg>
