<svg id="adr" xmlns="http://www.w3.org/2000/svg" width="404.9999999949375" height="393.74999999507816" xmlns:xlink="http://www.w3.org/1999/xlink" font-family="arial" viewBox="0 0 720.0 700.0">            <defs>
    <filter id="dropShadow" x="-20%" y="-20%" width="140%" height="140%">
        <feGaussianBlur in="SourceAlpha" stdDeviation="2"></feGaussianBlur>
        <feOffset dx="2" dy="2" result="offsetblur"></feOffset>
        <feComponentTransfer>
            <feFuncA type="linear" slope="0.2"></feFuncA>
        </feComponentTransfer>
        <feMerge>
            <feMergeNode></feMergeNode>
            <feMergeNode in="SourceGraphic"></feMergeNode>
        </feMerge>
    </filter>
    <style>
        .adrlink { fill: #6366F1; text-decoration: underline; font-weight: 500; }
        .adrlink:hover, .adrlink:active { outline: dotted 1px #6366F1; fill: #4F46E5; }
    </style>

    <!-- Bullet point symbols -->
    <symbol id="bullet-dash" viewBox="0 0 24 24" width="12" height="12">
        <!-- Double right chevron -->
        <path d="M13.5 12L7.5 6L9 4.5L16.5 12L9 19.5L7.5 18L13.5 12Z M18.5 12L12.5 6L14 4.5L21.5 12L14 19.5L12.5 18L18.5 12Z" fill="#6B7280"></path>
    </symbol>

    <symbol id="bullet-star" viewBox="0 0 24 24" width="12" height="12">
        <!-- Star shape -->
        <path d="M12 17.27L18.18 21L16.54 13.97L22 9.24L14.81 8.63L12 2L9.19 8.63L2 9.24L7.46 13.97L5.82 21L12 17.27Z" fill="#6B7280"></path>
    </symbol>

    <symbol id="bullet-plus" viewBox="0 0 24 24" width="12" height="12">
        <!-- Circular bullet point -->
        <circle cx="12" cy="12" r="6" fill="#6B7280"></circle>
    </symbol>

    <linearGradient id="05b062fd-a4b5-459f-b46b-3290f2258435" x1="0%" y1="0%" x2="0%" y2="100%">
        <stop offset="0%" style="stop-color:#ffffff" stop-opacity="1.0"></stop>
        <stop offset="25%" style="stop-color:#ffffff" stop-opacity="0.975"></stop>
        <stop offset="50%" style="stop-color:#ffffff" stop-opacity="0.95"></stop>
        <stop offset="75%" style="stop-color:#d8d8d8" stop-opacity="0.925"></stop>
        <stop offset="100%" style="stop-color:#cccccc" stop-opacity="0.9"></stop>
    </linearGradient>
</defs><rect width="100%" height="100%" fill="#ffffff" stroke="#6B7280" stroke-width="2" rx="5" ry="5"></rect><pattern id="grid" width="20" height="20" patternUnits="userSpaceOnUse">
    <path d="M 20 0 L 0 0 0 20" fill="none" stroke="#6B7280" stroke-width="0.5" stroke-opacity="0.1"></path>
</pattern>
    <rect width="100%" height="100%" fill="url(#grid)"></rect><text x="50%" y="30" text-anchor="middle" fill="#4B5563" filter="url(#dropShadow)" style="font-weight: 700; font-size: 26px; font-family: Roboto,Helvetica Neue,Vazirmatn,Arial,Noto Sans,sans-serif,Apple Color Emoji,Segoe UI Emoji; letter-spacing: 0.5px;">
        Use Elasticsearch for Search Functionality
    </text><text x="5" y="50" fill="#10B981" style="font-size:0.9em; font-family: Roboto,Helvetica Neue,Vazirmatn,Arial,Noto Sans,sans-serif,Apple Color Emoji,Segoe UI Emoji; letter-spacing: 0.2px;">
        <tspan font-weight="600">Status:</tspan> Accepted <tspan font-weight="600" dx="50">Date:</tspan> 2024-05-15
    </text> <rect x="10" y="70.0" width="700" height="30.0" rx="4" ry="4" fill="#F3F4F6" filter="url(#dropShadow)"></rect>
    <text x="20" y="90.0" style="fill: #10B981;font-weight: 600; font-size: 14px;font-family: Roboto,Helvetica Neue,Vazirmatn,Arial,Noto Sans,sans-serif,Apple Color Emoji,Segoe UI Emoji;">Context
    </text><rect x="30" y="110.0" width="680" height="90.0" rx="4" ry="4" fill="#F9FAFB" filter="url(#dropShadow)"></rect>
    <text x="35" y="125.0" style="fill: #374151;font-weight: normal; font-size: 12px;font-family: Roboto,Helvetica Neue,Vazirmatn,Arial,Noto Sans,sans-serif,Apple Color Emoji,Segoe UI Emoji; line-height: 1.5;"><tspan x="35" dy="0.0">
        <use href="#bullet-dash" x="35" y="6"></use>
        <tspan dx="16">Our application needs robust search capabilities across multiple data types - We need to </tspan>
    </tspan><tspan x="35" dy="15.0">support full-text search with relevance ranking - The search functionality must scale </tspan><tspan x="35" dy="15.0">with growing data volumes - We need to support faceted search and filtering </tspan><tspan x="35" dy="15.0"></tspan></text> <rect x="10" y="210.0" width="700" height="30.0" rx="4" ry="4" fill="#F3F4F6" filter="url(#dropShadow)"></rect>
    <text x="20" y="230.0" style="fill: #10B981;font-weight: 600; font-size: 14px;font-family: Roboto,Helvetica Neue,Vazirmatn,Arial,Noto Sans,sans-serif,Apple Color Emoji,Segoe UI Emoji;">Decision
    </text><rect x="30" y="250.0" width="680" height="75.0" rx="4" ry="4" fill="#F9FAFB" filter="url(#dropShadow)"></rect>
    <text x="35" y="265.0" style="fill: #374151;font-weight: normal; font-size: 12px;font-family: Roboto,Helvetica Neue,Vazirmatn,Arial,Noto Sans,sans-serif,Apple Color Emoji,Segoe UI Emoji; line-height: 1.5;"><tspan x="35" dy="0.0">
        <use href="#bullet-dash" x="35" y="6"></use>
        <tspan dx="16">We will use Elasticsearch as our search engine - We will integrate it with our existing </tspan>
    </tspan><tspan x="35" dy="15.0">PostgreSQL database - We will implement a synchronization mechanism to keep data in sync </tspan><tspan x="35" dy="15.0"></tspan></text> <rect x="10" y="335.0" width="700" height="30.0" rx="4" ry="4" fill="#F3F4F6" filter="url(#dropShadow)"></rect>
    <text x="20" y="355.0" style="fill: #10B981;font-weight: 600; font-size: 14px;font-family: Roboto,Helvetica Neue,Vazirmatn,Arial,Noto Sans,sans-serif,Apple Color Emoji,Segoe UI Emoji;">Consequences
    </text><rect x="30" y="375.0" width="680" height="90.0" rx="4" ry="4" fill="#F9FAFB" filter="url(#dropShadow)"></rect>
    <text x="35" y="390.0" style="fill: #374151;font-weight: normal; font-size: 12px;font-family: Roboto,Helvetica Neue,Vazirmatn,Arial,Noto Sans,sans-serif,Apple Color Emoji,Segoe UI Emoji; line-height: 1.5;"><tspan x="35" dy="0.0">
        <use href="#bullet-dash" x="35" y="6"></use>
        <tspan dx="16">Improved search performance and capabilities - Additional infrastructure to maintain </tspan>
    </tspan><tspan x="35" dy="15.0">- Need for expertise in Elasticsearch configuration and optimization - Potential </tspan><tspan x="35" dy="15.0">complexity in keeping data synchronized </tspan><tspan x="35" dy="15.0"></tspan></text> <rect x="10" y="475.0" width="700" height="30.0" rx="4" ry="4" fill="#F3F4F6" filter="url(#dropShadow)"></rect>
    <text x="20" y="495.0" style="fill: #10B981;font-weight: 600; font-size: 14px;font-family: Roboto,Helvetica Neue,Vazirmatn,Arial,Noto Sans,sans-serif,Apple Color Emoji,Segoe UI Emoji;">Participants
    </text><rect x="30" y="515.0" width="680" height="150.0" rx="4" ry="4" fill="#F9FAFB" filter="url(#dropShadow)"></rect><!-- Person figure for Jane Smith (Architect) -->
    <g transform="translate(105.0, 555.0)">
        <!-- Font Awesome style person icon -->
        <g transform="scale(0.05) translate(-256, -256)">
            <path d="M256 288c79.5 0 144-64.5 144-144S335.5 0 256 0 112 64.5 112 144s64.5 144 144 144zm128 32h-55.1c-22.2 10.2-46.9 16-72.9 16s-50.6-5.8-72.9-16H128C57.3 320 0 377.3 0 448v16c0 26.5 21.5 48 48 48h416c26.5 0 48-21.5 48-48v-16c0-70.7-57.3-128-128-128z" fill="#10B981"></path>
        </g>

        <!-- Name with potential wrapping -->
        <text x="0" y="50.0" text-anchor="middle" fill="#10B981" style="font-size: 12px; font-family: Roboto,Helvetica Neue,Vazirmatn,Arial,Noto Sans,sans-serif,Apple Color Emoji,Segoe UI Emoji;">
            Jane Smith (Architect)
        </text>
    </g><!-- Person figure for John Doe (Developer) -->
    <g transform="translate(255.0, 555.0)">
        <!-- Font Awesome style person icon -->
        <g transform="scale(0.05) translate(-256, -256)">
            <path d="M256 288c79.5 0 144-64.5 144-144S335.5 0 256 0 112 64.5 112 144s64.5 144 144 144zm128 32h-55.1c-22.2 10.2-46.9 16-72.9 16s-50.6-5.8-72.9-16H128C57.3 320 0 377.3 0 448v16c0 26.5 21.5 48 48 48h416c26.5 0 48-21.5 48-48v-16c0-70.7-57.3-128-128-128z" fill="#10B981"></path>
        </g>

        <!-- Name with potential wrapping -->
        <text x="0" y="50.0" text-anchor="middle" fill="#10B981" style="font-size: 12px; font-family: Roboto,Helvetica Neue,Vazirmatn,Arial,Noto Sans,sans-serif,Apple Color Emoji,Segoe UI Emoji;">
            John Doe (Developer)
        </text>
    </g>            <!-- Person figure for Alice Johnson (Product Manager) -->
    <g transform="translate(405.0, 555.0)">
        <!-- Font Awesome style person icon -->
        <g transform="scale(0.05) translate(-256, -256)">
            <path d="M256 288c79.5 0 144-64.5 144-144S335.5 0 256 0 112 64.5 112 144s64.5 144 144 144zm128 32h-55.1c-22.2 10.2-46.9 16-72.9 16s-50.6-5.8-72.9-16H128C57.3 320 0 377.3 0 448v16c0 26.5 21.5 48 48 48h416c26.5 0 48-21.5 48-48v-16c0-70.7-57.3-128-128-128z" fill="#10B981"></path>
        </g>

        <!-- Name with potential wrapping -->
        <text x="0" y="50.0" text-anchor="middle" fill="#10B981" style="font-size: 12px; font-family: Roboto,Helvetica Neue,Vazirmatn,Arial,Noto Sans,sans-serif,Apple Color Emoji,Segoe UI Emoji;">
            Alice Johnson (Product
        </text>
        <text x="0" y="65.0" text-anchor="middle" fill="#10B981" style="font-size: 12px; font-family: Roboto,Helvetica Neue,Vazirmatn,Arial,Noto Sans,sans-serif,Apple Color Emoji,Segoe UI Emoji;">
            Manager)
        </text>
    </g></svg>