<svg xmlns="http://www.w3.org/2000/svg" width="700" height="720" viewBox="0 0 700 720" preserveAspectRatio="xMidYMid meet"><metadata><rdf:rdf xmlns:rdf="http://www.w3.org/1999/02/22-rdf-syntax-ns#" xmlns:dc="http://purl.org/dc/elements/1.1/" xmlns:cc="http://creativecommons.org/ns#"><cc:work rdf:about=""><dc:creator>DocOps.io</dc:creator><dc:rights>MIT License</dc:rights><dc:source>https://docops.io</dc:source><dc:date>2025-06-22</dc:date></cc:work></rdf:rdf></metadata><desc>Generated by DocOps.io - Licensed under MIT License</desc><defs><style type="text/css">.card { fill: #ffffff; stroke: #e1e1e1; stroke-width: 1; filter: drop-shadow(0px 2px 4px rgba(0, 0, 0, 0.1)); } .title { font-family: Arial, Helvetica,  sans-serif; font-weight: 600; font-size: 20px; fill: #000000; } .subtitle { font-family: Arial, Helvetica,  sans-serif; font-weight: 500; font-size: 16px; fill: #666666; } .status { font-family: Arial, Helvetica,  sans-serif; font-weight: 500; font-size: 14px; fill: #ffffff; } .content { font-family: Arial, Helvetica,  sans-serif; font-weight: 400; font-size: 14px; fill: #333333; } .section-title { font-family: Arial, Helvetica,  sans-serif; font-weight: 600; font-size: 16px; fill: #333333; } .participant-name { font-family: Arial, Helvetica,  sans-serif; font-weight: 400; font-size: 12px; fill: #333333; text-anchor: middle; } .participant-name-with-email { font-family: Arial, Helvetica, sans-serif; font-weight: 500; font-size: 12px; fill: #007AFF;  /* Use link blue to indicate clickability */ text-anchor: middle; border-bottom: 1px dotted #007AFF;  /* Subtle underline */ } .participant-name-with-email:hover { fill: #0056CC; font-weight: 600; } .participant-container { cursor: pointer; } .participant-container:hover .participant-icon { filter: drop-shadow(0px 0px 3px rgba(0, 122, 255, 0.5)); transition: filter 0.3s ease; } .participant-container:hover .participant-name { fill: #007AFF; transition: fill 0.3s ease; } .group-chat-link { font-family: Arial, Helvetica, sans-serif; font-weight: 400; font-size: 12px; fill: #007AFF; text-decoration: underline; cursor: pointer; } .reference-link { font-family: Arial, Helvetica, sans-serif; font-weight: 400; font-size: 14px; fill: #007AFF; text-decoration: underline; cursor: pointer; } .reference-link:hover { fill: #0056CC; font-weight: 500; } a { cursor: pointer; }</style><!-- Font Awesome style user icon --><symbol id="user-icon" viewBox="0 0 448 512"><path stroke="#34C759" stroke-width="1" d="M224 256c70.7 0 128-57.3 128-128S294.7 0 224 0 96 57.3 96 128s57.3 128 128 128zm89.6 32h-16.7c-22.2 10.2-46.9 16-72.9 16s-50.6-5.8-72.9-16h-16.7C60.2 288 0 348.2 0 422.4V464c0 26.5 21.5 48 48 48h352c26.5 0 48-21.5 48-48v-41.6c0-74.2-60.2-134.4-134.4-134.4z"></path></symbol></defs><rect x="0" y="0" width="100%" height="100%" class="card" rx="10" ry="10"></rect><rect x="20" y="20" width="660" height="60" class="card" rx="10" ry="10"></rect><text x="35" y="50" class="title">Adopt Cloud-Native CI/CD Pipeline</text><text x="35" y="70" class="subtitle">Date: 2024-07-01</text><rect x="235" y="55" width="80" height="20" rx="10" ry="10" fill="#34C759"></rect><text x="275" y="70" class="status" text-anchor="middle">Accepted</text><rect x="20" y="100" width="660" height="120" class="card" rx="10" ry="10"></rect><text x="35" y="125" class="section-title">Context</text><circle cx="40" cy="145" r="3" fill="#333333"></circle><text x="50" y="150" class="content">Our current CI/CD process is manual and error-prone</text><circle cx="40" cy="165" r="3" fill="#333333"></circle><text x="50" y="170" class="content">We need to improve deployment frequency and reliability</text><circle cx="40" cy="185" r="3" fill="#333333"></circle><text x="50" y="190" class="content">We want to standardize our deployment process across teams</text><circle cx="40" cy="205" r="3" fill="#333333"></circle><text x="50" y="210" class="content">We need better visibility into the deployment pipeline</text><rect x="20" y="240" width="660" height="120" class="card" rx="10" ry="10"></rect><text x="35" y="265" class="section-title">Decision</text><circle cx="40" cy="285" r="3" fill="#333333"></circle><text x="50" y="290" class="content">We will implement a cloud-native CI/CD pipeline</text><circle cx="40" cy="305" r="3" fill="#333333"></circle><text x="50" y="310" class="content">We will use GitOps principles for infrastructure and application deployments</text><circle cx="40" cy="325" r="3" fill="#333333"></circle><text x="50" y="330" class="content">We will implement automated testing at all stages</text><circle cx="40" cy="345" r="3" fill="#333333"></circle><text x="50" y="350" class="content">We will use containerization for consistent environments</text><rect x="20" y="380" width="660" height="120" class="card" rx="10" ry="10"></rect><text x="35" y="405" class="section-title">Consequences</text><circle cx="40" cy="425" r="3" fill="#333333"></circle><text x="50" y="430" class="content">Faster and more reliable deployments</text><circle cx="40" cy="445" r="3" fill="#333333"></circle><text x="50" y="450" class="content">Improved developer productivity</text><circle cx="40" cy="465" r="3" fill="#333333"></circle><text x="50" y="470" class="content">Better traceability of changes</text><circle cx="40" cy="485" r="3" fill="#333333"></circle><text x="50" y="490" class="content">Initial learning curve for teams</text><rect x="20" y="520" width="660" height="180" class="card" rx="10" ry="10"></rect><text x="35" y="545" class="section-title">Participants</text><a href="https://teams.microsoft.com/l/chat/0/0?users=jason.lee@example.com,emma.wilson@example.com,michael.brown@example.com,sophia.chen@example.com,sinclair.washington@example.com&amp;topicName=Adopt+Cloud-Native+CI%2FCD+Pipeline" target="_blank"><text x="545" y="545" class="group-chat-link">Start Group Chat</text></a><g class="participant-container"><circle cx="140" cy="570" r="15" fill="#3B82F6" class="participant-icon"></circle><text x="140" y="575" text-anchor="middle" font-size="16">🚀</text><a href="https://teams.microsoft.com/l/chat/0/0?users=jason.lee@example.com" target="_blank" title="Chat with jason.lee@example.com"><text x="140" y="600" class="participant-name-with-email">Jason Lee</text></a><text x="140" y="615" class="participant-title" text-anchor="middle">DevOps Engineer</text></g><g class="participant-container"><circle cx="350" cy="570" r="15" fill="#10B981" class="participant-icon"></circle><text x="350" y="575" text-anchor="middle" font-size="16">☁️</text><a href="https://teams.microsoft.com/l/chat/0/0?users=emma.wilson@example.com" target="_blank" title="Chat with emma.wilson@example.com"><text x="350" y="600" class="participant-name-with-email">Emma Wilson</text></a><text x="350" y="615" class="participant-title" text-anchor="middle">Cloud Architect</text></g><g class="participant-container"><circle cx="560" cy="570" r="15" fill="#F59E0B" class="participant-icon"></circle><text x="560" y="575" text-anchor="middle" font-size="16">👨‍💻</text><a href="https://teams.microsoft.com/l/chat/0/0?users=michael.brown@example.com" target="_blank" title="Chat with michael.brown@example.com"><text x="560" y="600" class="participant-name-with-email">Michael Brown</text></a><text x="560" y="615" class="participant-title" text-anchor="middle">Development Lead</text></g><g class="participant-container"><circle cx="140" cy="640" r="15" fill="#8B5CF6" class="participant-icon"></circle><text x="140" y="645" text-anchor="middle" font-size="16">🧪</text><a href="https://teams.microsoft.com/l/chat/0/0?users=sophia.chen@example.com" target="_blank" title="Chat with sophia.chen@example.com"><text x="140" y="670" class="participant-name-with-email">Sophia Chen</text></a><text x="140" y="685" class="participant-title" text-anchor="middle">QA Manager</text></g><g class="participant-container"><circle cx="350" cy="640" r="15" fill="#511D43" class="participant-icon"></circle><text x="350" y="645" text-anchor="middle" font-size="16">👩‍</text><a href="https://teams.microsoft.com/l/chat/0/0?users=sinclair.washington@example.com" target="_blank" title="Chat with sinclair.washington@example.com"><text x="350" y="670" class="participant-name-with-email">Sinclair Washington</text></a><text x="350" y="685" class="participant-title" text-anchor="middle">Ops Lead</text></g></svg>