<svg width="800" height="175.0" viewBox="0 0 800 175" xmlns="http://www.w3.org/2000/svg">            <defs><linearGradient id="backGrad_115d1562-8f2a-4da9-b8e1-191fe34c685e" x2="0%" y2="100%"><stop offset="0%" style="stop-color:#d84b4b"></stop><stop offset="50%" style="stop-color:#B43F3F"></stop><stop offset="100%" style="stop-color:#903232"></stop></linearGradient><style>.bar:hover {filter: grayscale(100%) sepia(100%);}.bar:hover {filter: grayscale(100%) sepia(100%);}.glass:after, .glass:before {content: "";display: block;position: absolute}.glass {overflow: hidden;color: #fff;text-shadow: 0 1px 2px rgba(0, 0, 0, .7);background-image: radial-gradient(circle at center, rgba(0, 167, 225, .25), rgba(0, 110, 149, .5));box-shadow: 0 5px 10px rgba(0, 0, 0, .75), inset 0 0 0 2px rgba(0, 0, 0, .3), inset 0 -6px 6px -3px rgba(0, 129, 174, .2);position: relative}.glass:after {background: rgba(0, 167, 225, .2);z-index: 0;height: 100%;width: 100%;top: 0;left: 0;backdrop-filter: blur(3px) saturate(400%);-webkit-backdrop-filter: blur(3px) saturate(400%)}.glass:before {width: calc(100% - 4px);height: 35px;background-image: linear-gradient(rgba(255, 255, 255, .7), rgba(255, 255, 255, 0));top: 2px;left: 2px;border-radius: 30px 30px 200px 200px;opacity: .7}.glass:hover {text-shadow: 0 1px 2px rgba(0, 0, 0, .9)}.glass:hover:before {opacity: 1}.glass:active {text-shadow: 0 0 2px rgba(0, 0, 0, .9);box-shadow: 0 3px 8px rgba(0, 0, 0, .75), inset 0 0 0 2px rgba(0, 0, 0, .3), inset 0 -6px 6px -3px rgba(0, 129, 174, .2)}.glass:active:before {height: 25px}.shadowed {-webkit-filter: drop-shadow(3px 3px 2px rgba(0, 0, 0, .3));filter: drop-shadow(3px 3px 2px rgba(0, 0, 0, .3));}</style></defs><rect width="100%" height="100%" fill="#f5f5f5" stroke="url(#backGrad_115d1562-8f2a-4da9-b8e1-191fe34c685e)"></rect>    <g><rect height="24" x="0" y="0" width="100%" fill="url(#backGrad_115d1562-8f2a-4da9-b8e1-191fe34c685e)"></rect><text x="400" y="20" text-anchor="middle" style="fill: #FCFCFC; font-family: Arial; Helvetica; sans-serif; font-size:20px;">Favorite Movie Types</text></g><line x1="240" x2="240" y1="30" y2="175" stroke="#B43F3F"></line> <g><text x="235" y="45" text-anchor="end" style="fill: #111111; font-family: Arial; Helvetica; sans-serif; font-size:12px; font-weight: bold;">Movie Type</text><text x="245" y="45" text-anchor="start" style="fill: #111111; font-family: Arial; Helvetica; sans-serif; font-size:12px; font-weight: bold;">People</text></g>   <g transform="translate(245, 60)"><path d="M 0 0.0  A 0.0 0.0 0 0 1 0.0 0 L 444.0 0 A 6.0 6.0 0 0 1 450.0 6.0 L 450.0 5.0 A 5.0 5.0 0 0 1 445.0 10.0 L 0.0 10.0 A 0.0 0.0 0 0 1 0 10.0 Z" fill="url(#backGrad_115d1562-8f2a-4da9-b8e1-191fe34c685e)" class="bar shadowed" stroke="url(#backGrad_115d1562-8f2a-4da9-b8e1-191fe34c685e)" stroke-width="1"></path><text x="-10" y="8" text-anchor="end" style="fill: #111111; font-family: Arial; Helvetica; sans-serif; font-size:12px;">Comedy</text><text x="460.0" y="8" text-anchor="start" style="fill: #111111; font-family: Arial; Helvetica; sans-serif; font-size:12px;">1.3 m</text></g>   <g transform="translate(245, 75)"><path d="M 0 0.0  A 0.0 0.0 0 0 1 0.0 0 L 236.3077 0 A 6.0 6.0 0 0 1 242.3077 6.0 L 242.3077 5.0 A 5.0 5.0 0 0 1 237.3077 10.0 L 0.0 10.0 A 0.0 0.0 0 0 1 0 10.0 Z" fill="url(#backGrad_115d1562-8f2a-4da9-b8e1-191fe34c685e)" class="bar shadowed" stroke="url(#backGrad_115d1562-8f2a-4da9-b8e1-191fe34c685e)" stroke-width="1"></path><text x="-10" y="8" text-anchor="end" style="fill: #111111; font-family: Arial; Helvetica; sans-serif; font-size:12px;">Action</text><text x="252.30769230769232" y="8" text-anchor="start" style="fill: #111111; font-family: Arial; Helvetica; sans-serif; font-size:12px;">700.0 k</text></g>   <g transform="translate(245, 90)"><path d="M 0 0.0  A 0.0 0.0 0 0 1 0.0 0 L 35.53846 0 A 6.0 6.0 0 0 1 41.53846 6.0 L 41.53846 5.0 A 5.0 5.0 0 0 1 36.53846 10.0 L 0.0 10.0 A 0.0 0.0 0 0 1 0 10.0 Z" fill="url(#backGrad_115d1562-8f2a-4da9-b8e1-191fe34c685e)" class="bar shadowed" stroke="url(#backGrad_115d1562-8f2a-4da9-b8e1-191fe34c685e)" stroke-width="1"></path><text x="-10" y="8" text-anchor="end" style="fill: #111111; font-family: Arial; Helvetica; sans-serif; font-size:12px;">Romance</text><text x="51.53846153846154" y="8" text-anchor="start" style="fill: #111111; font-family: Arial; Helvetica; sans-serif; font-size:12px;">120.0 k</text></g>   <g transform="translate(245, 105)"><path d="M 0 0.0  A 0.0 0.0 0 0 1 0.0 0 L 167.07692 0 A 6.0 6.0 0 0 1 173.07692 6.0 L 173.07692 5.0 A 5.0 5.0 0 0 1 168.07692 10.0 L 0.0 10.0 A 0.0 0.0 0 0 1 0 10.0 Z" fill="url(#backGrad_115d1562-8f2a-4da9-b8e1-191fe34c685e)" class="bar shadowed" stroke="url(#backGrad_115d1562-8f2a-4da9-b8e1-191fe34c685e)" stroke-width="1"></path><text x="-10" y="8" text-anchor="end" style="fill: #111111; font-family: Arial; Helvetica; sans-serif; font-size:12px;">Drama</text><text x="183.07692307692307" y="8" text-anchor="start" style="fill: #111111; font-family: Arial; Helvetica; sans-serif; font-size:12px;">500.0 k</text></g>   <g transform="translate(245, 120)"><path d="M 0 0.0  A 0.0 0.0 0 0 1 0.0 0 L 56.307693 0 A 6.0 6.0 0 0 1 62.307693 6.0 L 62.307693 5.0 A 5.0 5.0 0 0 1 57.307693 10.0 L 0.0 10.0 A 0.0 0.0 0 0 1 0 10.0 Z" fill="url(#backGrad_115d1562-8f2a-4da9-b8e1-191fe34c685e)" class="bar shadowed" stroke="url(#backGrad_115d1562-8f2a-4da9-b8e1-191fe34c685e)" stroke-width="1"></path><text x="-10" y="8" text-anchor="end" style="fill: #111111; font-family: Arial; Helvetica; sans-serif; font-size:12px;">SciFi</text><text x="72.3076923076923" y="8" text-anchor="start" style="fill: #111111; font-family: Arial; Helvetica; sans-serif; font-size:12px;">180.0 k</text></g></svg>