<svg width="600.0" height="265.0" viewBox="0 0 600.0 265.0" xmlns="http://www.w3.org/2000/svg" id="26b5023d-5ef6-4130-88b1-09b05ce703c8" zoomAndPan="magnify" preserveAspectRatio="none"><defs><linearGradient id="condensedLite" x1="0%" y1="0%" x2="100%" y2="0%"><stop class="stop1" offset="0%" stop-color="#ffffff"></stop><stop class="stop2" offset="50%" stop-color="#F8FAFC"></stop><stop class="stop3" offset="100%" stop-color="#c6c8c9"></stop></linearGradient><linearGradient id="condensedDark" x1="0%" y1="0%" x2="100%" y2="0%"><stop class="stop1" offset="0%" stop-color="#37084b"></stop><stop class="stop2" offset="50%" stop-color="#2E073F"></stop><stop class="stop3" offset="100%" stop-color="#240532"></stop></linearGradient><linearGradient id="svgGradientColor_0" x2="0%" y2="100%"><stop offset="0%" style="stop-color:#ff0057"></stop><stop offset="50%" style="stop-color:#e60049"></stop><stop offset="100%" style="stop-color:#b8003a"></stop></linearGradient><linearGradient id="svgGradientColor_1" x2="0%" y2="100%"><stop offset="0%" style="stop-color:#0dd8ff"></stop><stop offset="50%" style="stop-color:#0bb4ff"></stop><stop offset="100%" style="stop-color:#0890cc"></stop></linearGradient><linearGradient id="svgGradientColor_2" x2="0%" y2="100%"><stop offset="0%" style="stop-color:#60ffae"></stop><stop offset="50%" style="stop-color:#50e991"></stop><stop offset="100%" style="stop-color:#40ba74"></stop></linearGradient><linearGradient id="svgGradientColor_3" x2="0%" y2="100%"><stop offset="0%" style="stop-color:#ffff00"></stop><stop offset="50%" style="stop-color:#e6d800"></stop><stop offset="100%" style="stop-color:#b8ac00"></stop></linearGradient><style type="text/css">.shadowed {-webkit-filter: drop-shadow(3px 3px 2px rgba(0, 0, 0, .3));filter: drop-shadow(3px 3px 2px rgba(0, 0, 0, .3));}.bar:hover {filter: grayscale(100%) sepia(100%);}</style></defs><g transform="scale(1.0)"><rect width="100%" height="100%" fill="url(#condensedLite)"></rect><text x="300.0" text-anchor="middle" y="16" style="font-size: 16px; fill: #000000; font-family: Arial, Helvetica, sans-serif;">New Revenue</text><line x1="109" x2="109" y1="30" y2="210.0" class="light-shadow" stroke-width="2" stroke="#E4D0D0"></line><line x1="158.0" x2="158.0" y1="30" y2="210.0" class="light-shadow" stroke-width="1" stroke="#E4D0D0"></line><text x="158.0" y="218.0" text-anchor="middle" style="font-size: 8px; fill: #000000; font-family: Arial, Helvetica, sans-serif;">6.3k</text><line x1="208.0" x2="208.0" y1="30" y2="210.0" class="light-shadow" stroke-width="1" stroke="#E4D0D0"></line><text x="208.0" y="218.0" text-anchor="middle" style="font-size: 8px; fill: #000000; font-family: Arial, Helvetica, sans-serif;">12.6k</text><line x1="258.0" x2="258.0" y1="30" y2="210.0" class="light-shadow" stroke-width="1" stroke="#E4D0D0"></line><text x="258.0" y="218.0" text-anchor="middle" style="font-size: 8px; fill: #000000; font-family: Arial, Helvetica, sans-serif;">18.8k</text><line x1="308.0" x2="308.0" y1="30" y2="210.0" class="light-shadow" stroke-width="1" stroke="#E4D0D0"></line><text x="308.0" y="218.0" text-anchor="middle" style="font-size: 8px; fill: #000000; font-family: Arial, Helvetica, sans-serif;">25.1k</text><line x1="358.0" x2="358.0" y1="30" y2="210.0" class="light-shadow" stroke-width="1" stroke="#E4D0D0"></line><text x="358.0" y="218.0" text-anchor="middle" style="font-size: 8px; fill: #000000; font-family: Arial, Helvetica, sans-serif;">31.4k</text><line x1="408.0" x2="408.0" y1="30" y2="210.0" class="light-shadow" stroke-width="1" stroke="#E4D0D0"></line><text x="408.0" y="218.0" text-anchor="middle" style="font-size: 8px; fill: #000000; font-family: Arial, Helvetica, sans-serif;">37.7k</text><line x1="457.99999999999994" x2="457.99999999999994" y1="30" y2="210.0" class="light-shadow" stroke-width="1" stroke="#E4D0D0"></line><text x="457.99999999999994" y="218.0" text-anchor="middle" style="font-size: 8px; fill: #000000; font-family: Arial, Helvetica, sans-serif;">43.9k</text><line x1="508.0" x2="508.0" y1="30" y2="210.0" class="light-shadow" stroke-width="1" stroke="#E4D0D0"></line><text x="508.0" y="218.0" text-anchor="middle" style="font-size: 8px; fill: #000000; font-family: Arial, Helvetica, sans-serif;">50.2k</text><line x1="558.0" x2="558.0" y1="30" y2="210.0" class="light-shadow" stroke-width="1" stroke="#E4D0D0"></line><text x="558.0" y="218.0" text-anchor="middle" style="font-size: 8px; fill: #000000; font-family: Arial, Helvetica, sans-serif;">56.5k</text><line x1="0" x2="600.0" y1="210.0" y2="210.0" class="light-shadow" stroke-width="1" stroke="#E4D0D0"></line> <g><text x="107" y="25" text-anchor="end" style="fill: #000000; font-family: Arial; Helvetica; sans-serif; font-size:10px; font-weight: bold;">Quarter</text><text x="112" y="25" text-anchor="start" style="fill: #000000; font-family: Arial; Helvetica; sans-serif; font-size:10px; font-weight: bold;">Revenue</text></g><g transform="translate(100,20)"><g transform="translate(0,0)"><text x="0" y="34" text-anchor="end" style="fill: #000000; font-family: Arial; Helvetica; sans-serif; font-size:8px;">2020-Q1</text><g transform="translate(10, 10)"><path d="M 0 0.0  A 0.0 0.0 0 0 1 0.0 0 L 350.0177 0 A 6.0 6.0 0 0 1 356.0177 6.0 L 356.0177 5.0 A 5.0 5.0 0 0 1 351.0177 10.0 L 0.0 10.0 A 0.0 0.0 0 0 1 0 10.0 Z" fill="url(#svgGradientColor_0)" class="bar shadowed"></path><text x="361.01769911504425" y="8" style="font-size: 8px; fill: #000000; font-family: Arial, Helvetica, sans-serif;">44.7k</text></g><g transform="translate(10, 20)"><path d="M 0 0.0  A 0.0 0.0 0 0 1 0.0 0 L 414.53098 0 A 6.0 6.0 0 0 1 420.53098 6.0 L 420.53098 5.0 A 5.0 5.0 0 0 1 415.53098 10.0 L 0.0 10.0 A 0.0 0.0 0 0 1 0 10.0 Z" fill="url(#svgGradientColor_1)" class="bar shadowed"></path><text x="425.53097345132744" y="8" style="font-size: 8px; fill: #000000; font-family: Arial, Helvetica, sans-serif;">52.8k</text></g><g transform="translate(10, 30)"><path d="M 0 0.0  A 0.0 0.0 0 0 1 0.0 0 L 340.46017 0 A 6.0 6.0 0 0 1 346.46017 6.0 L 346.46017 5.0 A 5.0 5.0 0 0 1 341.46017 10.0 L 0.0 10.0 A 0.0 0.0 0 0 1 0 10.0 Z" fill="url(#svgGradientColor_2)" class="bar shadowed"></path><text x="351.46017699115043" y="8" style="font-size: 8px; fill: #000000; font-family: Arial, Helvetica, sans-serif;">43.5k</text></g><g transform="translate(10, 40)"><path d="M 0 0.0  A 0.0 0.0 0 0 1 0.0 0 L 303.02655 0 A 6.0 6.0 0 0 1 309.02655 6.0 L 309.02655 5.0 A 5.0 5.0 0 0 1 304.02655 10.0 L 0.0 10.0 A 0.0 0.0 0 0 1 0 10.0 Z" fill="url(#svgGradientColor_3)" class="bar shadowed"></path><text x="314.0265486725664" y="8" style="font-size: 8px; fill: #000000; font-family: Arial, Helvetica, sans-serif;">38.8k</text></g></g><g transform="translate(0,45)"><text x="0" y="34" text-anchor="end" style="fill: #000000; font-family: Arial; Helvetica; sans-serif; font-size:8px;">2020-Q2</text><g transform="translate(10, 10)"><path d="M 0 0.0  A 0.0 0.0 0 0 1 0.0 0 L 352.40707 0 A 6.0 6.0 0 0 1 358.40707 6.0 L 358.40707 5.0 A 5.0 5.0 0 0 1 353.40707 10.0 L 0.0 10.0 A 0.0 0.0 0 0 1 0 10.0 Z" fill="url(#svgGradientColor_0)" class="bar shadowed"></path><text x="363.4070796460177" y="8" style="font-size: 8px; fill: #000000; font-family: Arial, Helvetica, sans-serif;">45.0k</text></g><g transform="translate(10, 20)"><path d="M 0 0.0  A 0.0 0.0 0 0 1 0.0 0 L 284.70798 0 A 6.0 6.0 0 0 1 290.70798 6.0 L 290.70798 5.0 A 5.0 5.0 0 0 1 285.70798 10.0 L 0.0 10.0 A 0.0 0.0 0 0 1 0 10.0 Z" fill="url(#svgGradientColor_1)" class="bar shadowed"></path><text x="295.7079646017699" y="8" style="font-size: 8px; fill: #000000; font-family: Arial, Helvetica, sans-serif;">36.5k</text></g><g transform="translate(10, 30)"><path d="M 0 0.0  A 0.0 0.0 0 0 1 0.0 0 L 320.54868 0 A 6.0 6.0 0 0 1 326.54868 6.0 L 326.54868 5.0 A 5.0 5.0 0 0 1 321.54868 10.0 L 0.0 10.0 A 0.0 0.0 0 0 1 0 10.0 Z" fill="url(#svgGradientColor_2)" class="bar shadowed"></path><text x="331.5486725663717" y="8" style="font-size: 8px; fill: #000000; font-family: Arial, Helvetica, sans-serif;">41.0k</text></g><g transform="translate(10, 40)"><path d="M 0 0.0  A 0.0 0.0 0 0 1 0.0 0 L 265.59293 0 A 6.0 6.0 0 0 1 271.59293 6.0 L 271.59293 5.0 A 5.0 5.0 0 0 1 266.59293 10.0 L 0.0 10.0 A 0.0 0.0 0 0 1 0 10.0 Z" fill="url(#svgGradientColor_3)" class="bar shadowed"></path><text x="276.5929203539823" y="8" style="font-size: 8px; fill: #000000; font-family: Arial, Helvetica, sans-serif;">34.1k</text></g></g><g transform="translate(0,90)"><text x="0" y="34" text-anchor="end" style="fill: #000000; font-family: Arial; Helvetica; sans-serif; font-size:8px;">2020-Q3</text><g transform="translate(10, 10)"><path d="M 0 0.0  A 0.0 0.0 0 0 1 0.0 0 L 401.7876 0 A 6.0 6.0 0 0 1 407.7876 6.0 L 407.7876 5.0 A 5.0 5.0 0 0 1 402.7876 10.0 L 0.0 10.0 A 0.0 0.0 0 0 1 0 10.0 Z" fill="url(#svgGradientColor_0)" class="bar shadowed"></path><text x="412.78761061946904" y="8" style="font-size: 8px; fill: #000000; font-family: Arial, Helvetica, sans-serif;">51.2k</text></g><g transform="translate(10, 20)"><path d="M 0 0.0  A 0.0 0.0 0 0 1 0.0 0 L 346.0354 0 A 6.0 6.0 0 0 1 352.0354 6.0 L 352.0354 5.0 A 5.0 5.0 0 0 1 347.0354 10.0 L 0.0 10.0 A 0.0 0.0 0 0 1 0 10.0 Z" fill="url(#svgGradientColor_1)" class="bar shadowed"></path><text x="357.0353982300885" y="8" style="font-size: 8px; fill: #000000; font-family: Arial, Helvetica, sans-serif;">44.2k</text></g><g transform="translate(10, 30)"><path d="M 0 0.0  A 0.0 0.0 0 0 1 0.0 0 L 310.1947 0 A 6.0 6.0 0 0 1 316.1947 6.0 L 316.1947 5.0 A 5.0 5.0 0 0 1 311.1947 10.0 L 0.0 10.0 A 0.0 0.0 0 0 1 0 10.0 Z" fill="url(#svgGradientColor_2)" class="bar shadowed"></path><text x="321.1946902654867" y="8" style="font-size: 8px; fill: #000000; font-family: Arial, Helvetica, sans-serif;">39.7k</text></g><g transform="translate(10, 40)"><path d="M 0 0.0  A 0.0 0.0 0 0 1 0.0 0 L 209.04425 0 A 6.0 6.0 0 0 1 215.04425 6.0 L 215.04425 5.0 A 5.0 5.0 0 0 1 210.04425 10.0 L 0.0 10.0 A 0.0 0.0 0 0 1 0 10.0 Z" fill="url(#svgGradientColor_3)" class="bar shadowed"></path><text x="220.04424778761063" y="8" style="font-size: 8px; fill: #000000; font-family: Arial, Helvetica, sans-serif;">27.0k</text></g></g><g transform="translate(0,135)"><text x="0" y="34" text-anchor="end" style="fill: #000000; font-family: Arial; Helvetica; sans-serif; font-size:8px;">2020-Q4</text><g transform="translate(10, 10)"><path d="M 0 0.0  A 0.0 0.0 0 0 1 0.0 0 L 444.0 0 A 6.0 6.0 0 0 1 450.0 6.0 L 450.0 5.0 A 5.0 5.0 0 0 1 445.0 10.0 L 0.0 10.0 A 0.0 0.0 0 0 1 0 10.0 Z" fill="url(#svgGradientColor_0)" class="bar shadowed"></path><text x="455.0" y="8" style="font-size: 8px; fill: #000000; font-family: Arial, Helvetica, sans-serif;">56.5k</text></g><g transform="translate(10, 20)"><path d="M 0 0.0  A 0.0 0.0 0 0 1 0.0 0 L 354.79645 0 A 6.0 6.0 0 0 1 360.79645 6.0 L 360.79645 5.0 A 5.0 5.0 0 0 1 355.79645 10.0 L 0.0 10.0 A 0.0 0.0 0 0 1 0 10.0 Z" fill="url(#svgGradientColor_1)" class="bar shadowed"></path><text x="365.79646017699116" y="8" style="font-size: 8px; fill: #000000; font-family: Arial, Helvetica, sans-serif;">45.3k</text></g><g transform="translate(10, 30)"><path d="M 0 0.0  A 0.0 0.0 0 0 1 0.0 0 L 322.1416 0 A 6.0 6.0 0 0 1 328.1416 6.0 L 328.1416 5.0 A 5.0 5.0 0 0 1 323.1416 10.0 L 0.0 10.0 A 0.0 0.0 0 0 1 0 10.0 Z" fill="url(#svgGradientColor_2)" class="bar shadowed"></path><text x="333.14159292035396" y="8" style="font-size: 8px; fill: #000000; font-family: Arial, Helvetica, sans-serif;">41.2k</text></g><g transform="translate(10, 40)"><path d="M 0 0.0  A 0.0 0.0 0 0 1 0.0 0 L 383.46902 0 A 6.0 6.0 0 0 1 389.46902 6.0 L 389.46902 5.0 A 5.0 5.0 0 0 1 384.46902 10.0 L 0.0 10.0 A 0.0 0.0 0 0 1 0 10.0 Z" fill="url(#svgGradientColor_3)" class="bar shadowed"></path><text x="394.46902654867256" y="8" style="font-size: 8px; fill: #000000; font-family: Arial, Helvetica, sans-serif;">48.9k</text></g></g></g><g transform="translate(0, 220.0)"><text x="300.0" y="14" text-anchor="middle" style="font-family: Arial,Helvetica, sans-serif; fill: #000000; font-size:12px;">Legend</text> <rect x="120.0" y="18" width="8" height="8" fill="url(#svgGradientColor_0)"></rect><text x="130.0" y="26" style="font-family: Arial,Helvetica, sans-serif; fill: #000000; font-size:8px;"><tspan x="130.0" dy="0">Kent</tspan></text><rect x="158.0" y="18" width="8" height="8" fill="url(#svgGradientColor_1)"></rect><text x="168.0" y="26" style="font-family: Arial,Helvetica, sans-serif; fill: #000000; font-size:8px;"><tspan x="168.0" dy="0">Lincoln</tspan></text><rect x="207.0" y="18" width="8" height="8" fill="url(#svgGradientColor_2)"></rect><text x="217.0" y="26" style="font-family: Arial,Helvetica, sans-serif; fill: #000000; font-size:8px;"><tspan x="217.0" dy="0">Mersey</tspan></text><rect x="256.0" y="18" width="8" height="8" fill="url(#svgGradientColor_3)"></rect><text x="266.0" y="26" style="font-family: Arial,Helvetica, sans-serif; fill: #000000; font-size:8px;"><tspan x="266.0" dy="0">York</tspan></text></g></g></svg>