<svg xmlns="http://www.w3.org/2000/svg" width="514.6874999935665" height="205.3124999974336" viewBox="0 0 915.0 365.0"
     xmlns:xlink="http://www.w3.org/1999/xlink" id="e7ce8361-c647-4d04-978b-88bd5e54a3d0" zoomAndPan="magnify"
     preserveAspectRatio="xMidYMid meet">
    <defs>
        <filter id="Bevel2" filterUnits="objectBoundingBox" x="-10%" y="-10%" width="150%" height="150%">
            <feGaussianBlur in="SourceAlpha" stdDeviation="0.5" result="blur"></feGaussianBlur>
            <feSpecularLighting in="blur" surfaceScale="5" specularConstant="0.5" specularExponent="10" result="specOut"
                                lighting-color="white">
                <fePointLight x="-5000" y="-10000" z="0000"></fePointLight>
            </feSpecularLighting>
            <feComposite in="specOut" in2="SourceAlpha" operator="in" result="specOut2"></feComposite>
            <feComposite in="SourceGraphic" in2="specOut2" operator="arithmetic" k1="0" k2="1" k3="1" k4="0"
                         result="litPaint"></feComposite>
        </filter>
        <filter id="buttonBlur">
            <feGaussianBlur in="SourceAlpha" stdDeviation="2" result="blur"></feGaussianBlur>
            <feOffset in="blur" dy="2" result="offsetBlur"></feOffset>
            <feMerge>
                <feMergeNode in="offsetBlur"></feMergeNode>
                <feMergeNode in="SourceGraphic"></feMergeNode>
            </feMerge>
        </filter>
        <linearGradient id="overlayGrad" gradientUnits="userSpaceOnUse" x1="95" y1="-20" x2="95" y2="70">
            <stop offset="0" stop-color="#000000" stop-opacity="0.5"></stop>
            <stop offset="1" stop-color="#000000" stop-opacity="0"></stop>
        </linearGradient>
        <filter id="topshineBlur">
            <feGaussianBlur stdDeviation="0.93"></feGaussianBlur>
        </filter>
        <linearGradient id="topshineGrad" gradientUnits="userSpaceOnUse" x1="95" y1="0" x2="95" y2="40">
            <stop offset="0" stop-color="#ffffff" stop-opacity="1"></stop>
            <stop offset="1" stop-color="#ffffff" stop-opacity="0"></stop>
        </linearGradient>
        <filter id="bottomshine">
            <feGaussianBlur stdDeviation="0.95"></feGaussianBlur>
        </filter>
        <filter id="modernShadow" x="-10%" y="-10%" width="120%" height="120%">
            <feDropShadow dx="2" dy="2" stdDeviation="3" flood-color="rgba(0,0,0,0.3)"></feDropShadow>
            <feGaussianBlur stdDeviation="1" result="blur"></feGaussianBlur>
            <feFlood flood-color="rgba(255,255,255,0.1)" result="floodFill"></feFlood>
            <feComposite in="floodFill" in2="blur" operator="in" result="coloredBlur"></feComposite>
            <feComposite in="SourceGraphic" in2="coloredBlur" operator="over"></feComposite>
        </filter>
        <filter id="softGlow" x="-10%" y="-10%" width="120%" height="120%">
            <feGaussianBlur stdDeviation="2" result="blur"></feGaussianBlur>
            <feFlood flood-color="rgba(255,255,255,0.3)" result="glow"></feFlood>
            <feComposite in="glow" in2="blur" operator="in" result="softGlow"></feComposite>
            <feComposite in="SourceGraphic" in2="softGlow" operator="over"></feComposite>
        </filter>
        <filter id="Bevel2" filterUnits="objectBoundingBox" x="-10%" y="-10%" width="150%" height="150%">
            <feGaussianBlur in="SourceAlpha" stdDeviation="0.5" result="blur"></feGaussianBlur>
            <feSpecularLighting in="blur" surfaceScale="5" specularConstant="0.5" specularExponent="10" result="specOut"
                                lighting-color="white">
                <fePointLight x="-5000" y="-10000" z="0000"></fePointLight>
            </feSpecularLighting>
            <feComposite in="specOut" in2="SourceAlpha" operator="in" result="specOut2"></feComposite>
            <feComposite in="SourceGraphic" in2="specOut2" operator="arithmetic" k1="0" k2="1" k3="1" k4="0"
                         result="litPaint"></feComposite>
        </filter>
        <circle id="myCircle" cx="0" cy="0" r="60" class="card" stroke-width="1"></circle>
        <filter id="naturalShadow" x="0" y="0" width="2" height="2">
            <feOffset in="SourceGraphic" dx="3" dy="3"></feOffset>
            <feGaussianBlur stdDeviation="5" result="blur"></feGaussianBlur>
            <feMerge>
                <feMergeNode in="blur"></feMergeNode>
                <feMergeNode in="SourceGraphic"></feMergeNode>
            </feMerge>
        </filter>
        <linearGradient id="btn_bf592cad-ec0d-42c4-990c-f9832a8ccbb6" x1="0%" y1="0%" x2="0%" y2="100%">
            <stop offset="0%" style="stop-color:#ffffff" stop-opacity="1.0"></stop>
            <stop offset="25%" style="stop-color:#fcfcfc" stop-opacity="0.975"></stop>
            <stop offset="50%" style="stop-color:#fcfcfc" stop-opacity="0.95"></stop>
            <stop offset="75%" style="stop-color:#d5d5d5" stop-opacity="0.925"></stop>
            <stop offset="100%" style="stop-color:#c9c9c9" stop-opacity="0.9"></stop>
        </linearGradient>
        <linearGradient id="btn_bd5047e7-c0c1-4a5a-a091-d106ed10b0bd" x1="0%" y1="0%" x2="0%" y2="100%">
            <stop offset="0%" style="stop-color:#ffffff" stop-opacity="1.0"></stop>
            <stop offset="25%" style="stop-color:#fcfcfc" stop-opacity="0.975"></stop>
            <stop offset="50%" style="stop-color:#fcfcfc" stop-opacity="0.95"></stop>
            <stop offset="75%" style="stop-color:#d5d5d5" stop-opacity="0.925"></stop>
            <stop offset="100%" style="stop-color:#c9c9c9" stop-opacity="0.9"></stop>
        </linearGradient>
        <linearGradient id="btn_bb685db5-5e6c-4b18-b817-259960f55915" x1="0%" y1="0%" x2="0%" y2="100%">
            <stop offset="0%" style="stop-color:#ffffff" stop-opacity="1.0"></stop>
            <stop offset="25%" style="stop-color:#fcfcfc" stop-opacity="0.975"></stop>
            <stop offset="50%" style="stop-color:#fcfcfc" stop-opacity="0.95"></stop>
            <stop offset="75%" style="stop-color:#d5d5d5" stop-opacity="0.925"></stop>
            <stop offset="100%" style="stop-color:#c9c9c9" stop-opacity="0.9"></stop>
        </linearGradient>
        <linearGradient id="modernBlueGradient" x1="0%" y1="0%" x2="100%" y2="100%">
            <stop offset="0%" stop-color="#4facfe"></stop>
            <stop offset="100%" stop-color="#00f2fe"></stop>
        </linearGradient>
        <linearGradient id="modernPurpleGradient" x1="0%" y1="0%" x2="100%" y2="100%">
            <stop offset="0%" stop-color="#6a11cb"></stop>
            <stop offset="100%" stop-color="#2575fc"></stop>
        </linearGradient>
        <linearGradient id="modernGreenGradient" x1="0%" y1="0%" x2="100%" y2="100%">
            <stop offset="0%" stop-color="#11998e"></stop>
            <stop offset="100%" stop-color="#38ef7d"></stop>
        </linearGradient>
        <linearGradient id="modernOrangeGradient" x1="0%" y1="0%" x2="100%" y2="100%">
            <stop offset="0%" stop-color="#f6d365"></stop>
            <stop offset="100%" stop-color="#fda085"></stop>
        </linearGradient>
        <linearGradient id="modernRedGradient" x1="0%" y1="0%" x2="100%" y2="100%">
            <stop offset="0%" stop-color="#ff512f"></stop>
            <stop offset="100%" stop-color="#dd2476"></stop>
        </linearGradient>
        <path id="outerBox" fill="#ffffff"
              d="M 0 18.0 A 18.0 18.0 0 0 1 18.0 0 L 282.0 0 A 18.0 18.0 0 0 1 300.0 18.0 L 300.0 382.0 A 18.0 18.0 0 0 1 282.0 400.0 L 18.0 400.0 A 18.0 18.0 0 0 1 0 382.0 Z">
            <title>Title</title>
        </path>
        <g id="topTextBox">
            <path fill="#ffffff"
                  d="M 0 18.0 A 18.0 18.0 0 0 1 18.0 0 L 282.0 0 A 18.0 18.0 0 0 1 300.0 18.0 L 300.0 95.5 A 0.0 0.0 0 0 1 300.0 95.5 L 0.0 95.5 A 0.0 0.0 0 0 1 0 95.5 Z"></path>
        </g>
        <path id="bottomTextBox"
              d="M 0 0.0 A 0.0 0.0 0 0 1 0.0 0 L 300.0 0 A 0.0 0.0 0 0 1 300.0 0.0 L 300.0 95.5 A 0.0 0.0 0 0 1 300.0 95.5 L 0.0 95.5 A 0.0 0.0 0 0 1 0 95.5 Z"></path>
        <path id="singleBox"
              d="M 0 18.0 A 18.0 18.0 0 0 1 18.0 0 L 282.0 0 A 18.0 18.0 0 0 1 300.0 18.0 L 300.0 191.0 A 0.0 0.0 0 0 1 300.0 191.0 L 0.0 191.0 A 0.0 0.0 0 0 1 0 191.0 Z"></path>
        <style>.glass:after, .glass:before {
            content: "";
            display: block;
            position: absolute
        }

        .glass {
            overflow: hidden;
            color: #fff;
            text-shadow: 0 1px 2px rgba(0, 0, 0, .7);
            background-image: radial-gradient(circle at center, rgba(0, 167, 225, .25), rgba(0, 110, 149, .5));
            box-shadow: 0 5px 10px rgba(0, 0, 0, .75), inset 0 0 0 2px rgba(0, 0, 0, .3), inset 0 -6px 6px -3px rgba(0, 129, 174, .2);
            position: relative
        }

        .glass:after {
            background: rgba(0, 167, 225, .2);
            z-index: 0;
            height: 100%;
            width: 100%;
            top: 0;
            left: 0;
            backdrop-filter: blur(3px) saturate(400%);
            -webkit-backdrop-filter: blur(3px) saturate(400%)
        }

        .glass:before {
            width: calc(100% - 4px);
            height: 35px;
            background-image: linear-gradient(rgba(255, 255, 255, .7), rgba(255, 255, 255, 0));
            top: 2px;
            left: 2px;
            border-radius: 30px 30px 200px 200px;
            opacity: .7
        }

        .glass:hover {
            text-shadow: 0 1px 2px rgba(0, 0, 0, .9)
        }

        .glass:hover:before {
            opacity: 1
        }

        .glass:active {
            text-shadow: 0 0 2px rgba(0, 0, 0, .9);
            box-shadow: 0 3px 8px rgba(0, 0, 0, .75), inset 0 0 0 2px rgba(0, 0, 0, .3), inset 0 -6px 6px -3px rgba(0, 129, 174, .2)
        }

        .glass:active:before {
            height: 25px
        }

        .light-shadow {
            filter: drop-shadow(0px 3px 3px rgba(0, 0, 0, 0.4));
        }

        .raise {
            pointer-events: bounding-box;
            opacity: 1;
            filter: drop-shadow(3px 5px 2px rgb(0 0 0 / 0.4));
        }

        .raise:hover {
            stroke: #ffad00;
            stroke-width: 3px;
            opacity: 0.9;
        }

        .basecard {
            -webkit-filter: drop-shadow(3px 3px 2px rgba(0, 0, 0, .3));
            filter: drop-shadow(3px 3px 2px rgba(0, 0, 0, .3));
        }

        .basecard:hover {
            cursor: pointer;
            filter: grayscale(100%) sepia(100%);
        }

        .btn_bf592cad-ec0d-42c4-990c-f9832a8ccbb6_cls {
            fill: url(#btn_bf592cad-ec0d-42c4-990c-f9832a8ccbb6);
        }

        .btn_bd5047e7-c0c1-4a5a-a091-d106ed10b0bd_cls {
            fill: url(#btn_bd5047e7-c0c1-4a5a-a091-d106ed10b0bd);
        }

        .btn_bb685db5-5e6c-4b18-b817-259960f55915_cls {
            fill: url(#btn_bb685db5-5e6c-4b18-b817-259960f55915);
        }

        .shape {
            stroke: black;
        }

        .mybox:hover {
            -webkit-animation: 0.5s draw linear forwards;
            animation: 0.5s draw linear forwards;
        }

        @keyframes draw {
            0% {
                stroke-dasharray: 140 540;
                stroke-dashoffset: -474;
                stroke-width: 3px;
            }
            100% {
                stroke-dasharray: 760;
                stroke-dashoffset: 0;
                stroke-width: 5px;
            }
        }

        .linkText {
            fill: #000000;
            font-size: 15px;
            font-family: "Inter var", system-ui, "Helvetica Neue", Helvetica, Arial, sans-serif;
            font-weight: normal;
            cursor: pointer;
        }

        .linkText:hover {
            fill: #ea0606;
            border: #d2ddec solid;
        }

        .linkTextDark {
            fill: #fcfcfc;
            font-size: 15px;
            font-family: "Inter var", system-ui, "Helvetica Neue", Helvetica, Arial, sans-serif;
            font-weight: normal;
            cursor: pointer;
        }

        .linkText:hover {
            fill: #ea0606;
            border: #d2ddec solid;
        }

        .modern-text {
            filter: drop-shadow(0px 2px 2px rgba(0, 0, 0, 0.3));
            transition: all 0.3s ease;
        }

        .modern-text:hover {
            filter: drop-shadow(0px 3px 5px rgba(0, 0, 0, 0.5));
            transform: translateY(-1px);
        }

        .modern-card {
            transition: all 0.3s ease;
            transform-origin: center;
        }

        .modern-card:hover {
            transform: scale(1.02);
            filter: brightness(1.1);
            cursor: pointer;
        }

        #e7ce8361-c647-4d04-978b-88bd5e54a3d0 .bar:hover {
            filter: grayscale(100%) sepia(100%);
        }

        #e7ce8361-c647-4d04-978b-88bd5e54a3d0 .shadowed {
            -webkit-filter: drop-shadow(3px 3px 2px rgba(0, 0, 0, .3));
            filter: drop-shadow(3px 3px 2px rgba(0, 0, 0, .3));
        }</style>
    </defs>
    <g transform="scale(1.0)">
        <g transform="translate(10,10)" cursor="pointer">
            <title>E-commerce, cloud computing, digital streaming</title>
            <a xlink:href="https://www.amazon.com" href="https://www.amazon.com" target="_top"
               style="text-decoration: none; font-family:Arial; fill: #fcfcfc;">
                <polygon stroke="#ffad00" stroke-width="3"
                         class="bar shadowed raise btn_bf592cad-ec0d-42c4-990c-f9832a8ccbb6_cls"
                         fill="url(#btn_bf592cad-ec0d-42c4-990c-f9832a8ccbb6)"
                         points="291.73148258233545,254.80624999999998 149.60588850376178,336.86249999999995 7.480294425188106,254.80624999999998 7.480294425188077,90.69375000000005 149.60588850376175,8.637500000000017 291.7314825823354,90.69374999999994"
                         rx="5" ry="5" filter="drop-shadow(3px 3px 3px rgba(0,0,0,0.2))"></polygon>
                <g transform="translate(125,50) scale(1.0)">
                    <svg width="128" height="128" viewBox="0 0 64 64" fill="none" xmlns="http://www.w3.org/2000/svg">
                        <path d="M.045 18.02c.072-.116.187-.124.348-.022 3.636 2.11 7.594 3.166 11.87 3.166 2.852 0 5.668-.533 8.447-1.595l.315-.14c.138-.06.234-.1.293-.13.226-.088.39-.046.525.13.12.174.09.336-.12.48-.256.19-.6.41-1.006.654-1.244.743-2.64 1.316-4.185 1.726a17.617 17.617 0 01-10.951-.577 17.88 17.88 0 01-5.43-3.35c-.1-.074-.151-.15-.151-.22 0-.047.021-.09.051-.13zm6.565-6.218c0-1.005.247-1.863.743-2.577.495-.71 1.17-1.25 2.04-1.615.796-.335 1.756-.575 2.912-.72.39-.046 1.033-.103 1.92-.174v-.37c0-.93-.105-1.558-.3-1.875-.302-.43-.78-.65-1.44-.65h-.182c-.48.046-.896.196-1.246.46-.35.27-.575.63-.675 1.096-.06.3-.206.465-.435.51l-2.52-.315c-.248-.06-.372-.18-.372-.39 0-.046.007-.09.022-.15.247-1.29.855-2.25 1.82-2.88.976-.616 2.1-.975 3.39-1.05h.54c1.65 0 2.957.434 3.888 1.29.135.15.27.3.405.48.12.165.224.314.283.45.075.134.15.33.195.57.06.254.105.42.135.51.03.104.062.3.076.615.01.313.02.493.02.553v5.28c0 .376.06.72.165 1.036.105.313.21.54.315.674l.51.674c.09.136.136.256.136.36 0 .12-.06.226-.18.314-1.2 1.05-1.86 1.62-1.963 1.71-.165.135-.375.15-.63.045a6.062 6.062 0 01-.526-.496l-.31-.347a9.391 9.391 0 01-.317-.42l-.3-.435c-.81.886-1.603 1.44-2.4 1.665-.494.15-1.093.227-1.83.227-1.11 0-2.04-.343-2.76-1.034-.72-.69-1.08-1.665-1.08-2.94l-.05-.076zm3.753-.438c0 .566.14 1.02.425 1.364.285.34.675.512 1.155.512.045 0 .106-.007.195-.02.09-.016.134-.023.166-.023.614-.16 1.08-.553 1.424-1.178.165-.28.285-.58.36-.91.09-.32.12-.59.135-.8.015-.195.015-.54.015-1.005v-.54c-.84 0-1.484.06-1.92.18-1.275.36-1.92 1.17-1.92 2.43l-.035-.02zm9.162 7.027c.03-.06.075-.11.132-.17.362-.243.714-.41 1.05-.5a8.094 8.094 0 011.612-.24c.14-.012.28 0 .41.03.65.06 1.05.168 1.172.33.063.09.099.228.099.39v.15c0 .51-.149 1.11-.424 1.8-.278.69-.664 1.248-1.156 1.68-.073.06-.14.09-.197.09-.03 0-.06 0-.09-.012-.09-.044-.107-.12-.064-.24.54-1.26.806-2.143.806-2.64 0-.15-.03-.27-.087-.344-.145-.166-.55-.257-1.224-.257-.243 0-.533.016-.87.046-.363.045-.7.09-1 .135-.09 0-.148-.014-.18-.044-.03-.03-.036-.047-.02-.077 0-.017.006-.03.02-.063v-.06z"
                              fill="#FF9900" filter="url(#Bevel2)"></path>
                    </svg>
                </g>
                <text x="149" y="175" text-anchor="middle"
                      style="fill: #000000; font-family: Arial, Helvetica, sans-serif; font-size: 48px; font-weight: 700; font-style: normal; font-variant: small-caps; text-decoration: none;">
                    <tspan x="149" text-anchor="middle" dy="0"
                           style="fill:#000000; font-family:system-ui,-apple-system,BlinkMacSystemFont,'Segoe UI',Roboto,Oxygen,Ubuntu,Cantarell,'Open Sans','Helvetica Neue',sans-serif; font-weight:500;">
                        Amazon
                    </tspan>
                </text>
            </a>
            <line x1="40" y1="122" x2="265" y2="122" style="stroke:#000000;stroke-width:1;stroke-opacity:0.7"></line>
            <line x1="40" y1="190" x2="265" y2="190" style="stroke:#000000;stroke-width:1;stroke-opacity:0.7"></line>
            <text x="149" y="214" text-anchor="middle"
                  style="fill: #000000; null; font-family:system-ui,-apple-system,BlinkMacSystemFont,'Segoe UI',Roboto,Oxygen,Ubuntu,Cantarell,'Open Sans','Helvetica Neue',sans-serif; font-weight: 600; letter-spacing: 2px; font-size: 0.9em;"></text>
        </g>
        <g transform="translate(305,10)" cursor="pointer">
            <title>Consumer electronics, software and services</title>
            <a xlink:href="https://www.apple.com" href="https://www.apple.com" target="_top"
               style="text-decoration: none; font-family:Arial; fill: #fcfcfc;">
                <polygon stroke="#ffad00" stroke-width="3"
                         class="bar shadowed raise btn_bd5047e7-c0c1-4a5a-a091-d106ed10b0bd_cls"
                         fill="url(#btn_bd5047e7-c0c1-4a5a-a091-d106ed10b0bd)"
                         points="291.73148258233545,254.80624999999998 149.60588850376178,336.86249999999995 7.480294425188106,254.80624999999998 7.480294425188077,90.69375000000005 149.60588850376175,8.637500000000017 291.7314825823354,90.69374999999994"
                         rx="5" ry="5" filter="drop-shadow(3px 3px 3px rgba(0,0,0,0.2))"></polygon>
                <g transform="translate(125,50) scale(1.0)">
                    <svg width="128" height="128" viewBox="0 0 64 64" fill="none" xmlns="http://www.w3.org/2000/svg">
                        <path d="M12.152 6.896c-.948 0-2.415-1.078-3.96-1.04-2.04.027-3.91 1.183-4.961 3.014-2.117 3.675-.546 9.103 1.519 12.09 1.013 1.454 2.208 3.09 3.792 3.039 1.52-.065 2.09-.987 3.935-.987 1.831 0 2.35.987 3.96.948 1.637-.026 2.676-1.48 3.676-2.948 1.156-1.688 1.636-3.325 1.662-3.415-.039-.013-3.182-1.221-3.22-4.857-.026-3.04 2.48-4.494 2.597-4.559-1.429-2.09-3.623-2.324-4.39-2.376-2-.156-3.675 1.09-4.61 1.09zM15.53 3.83c.843-1.012 1.4-2.427 1.245-3.83-1.207.052-2.662.805-3.532 1.818-.78.896-1.454 2.338-1.273 3.714 1.338.104 2.715-.688 3.559-1.701"
                              fill="#000000" filter="url(#Bevel2)"></path>
                    </svg>
                </g>
                <text x="149" y="175" text-anchor="middle"
                      style="fill: #000000; font-family: Arial, Helvetica, sans-serif; font-size: 48px; font-weight: 700; font-style: normal; font-variant: small-caps; text-decoration: none;">
                    <tspan x="149" text-anchor="middle" dy="0"
                           style="fill:#000000; font-family:system-ui,-apple-system,BlinkMacSystemFont,'Segoe UI',Roboto,Oxygen,Ubuntu,Cantarell,'Open Sans','Helvetica Neue',sans-serif; font-weight:500;">
                        Apple
                    </tspan>
                </text>
            </a>
            <line x1="40" y1="122" x2="265" y2="122" style="stroke:#000000;stroke-width:1;stroke-opacity:0.7"></line>
            <line x1="40" y1="190" x2="265" y2="190" style="stroke:#000000;stroke-width:1;stroke-opacity:0.7"></line>
            <text x="149" y="214" text-anchor="middle"
                  style="fill: #000000; null; font-family:system-ui,-apple-system,BlinkMacSystemFont,'Segoe UI',Roboto,Oxygen,Ubuntu,Cantarell,'Open Sans','Helvetica Neue',sans-serif; font-weight: 600; letter-spacing: 2px; font-size: 0.9em;"></text>
        </g>
        <g transform="translate(600,10)" cursor="pointer">
            <title>Documentation experience for developers</title>
            <a xlink:href="https://docops.io" href="https://docops.io" target="_top"
               style="text-decoration: none; font-family:Arial; fill: #fcfcfc;">
                <polygon stroke="#ffad00" stroke-width="3"
                         class="bar shadowed raise btn_bb685db5-5e6c-4b18-b817-259960f55915_cls"
                         fill="url(#btn_bb685db5-5e6c-4b18-b817-259960f55915)"
                         points="291.73148258233545,254.80624999999998 149.60588850376178,336.86249999999995 7.480294425188106,254.80624999999998 7.480294425188077,90.69375000000005 149.60588850376175,8.637500000000017 291.7314825823354,90.69374999999994"
                         rx="5" ry="5" filter="drop-shadow(3px 3px 3px rgba(0,0,0,0.2))"></polygon>
                <g transform="translate(125,50) scale(1.0)">
                    <svg width="64" height="64" viewBox="0 0 64 64" fill="none" xmlns="http://www.w3.org/2000/svg"
                         filter="url(#Bevel2)">
                        <image width="50" height="50" xlink:href="images/docops.svg" href="images/docops.svg"></image>
                    </svg>
                </g>
                <text x="149" y="175" text-anchor="middle"
                      style="fill: #000000; font-family: Arial, Helvetica, sans-serif; font-size: 48px; font-weight: 700; font-style: normal; font-variant: small-caps; text-decoration: none;">
                    <tspan x="149" text-anchor="middle" dy="0"
                           style="fill:#000000; font-family:system-ui,-apple-system,BlinkMacSystemFont,'Segoe UI',Roboto,Oxygen,Ubuntu,Cantarell,'Open Sans','Helvetica Neue',sans-serif; font-weight:500;">
                        DocOps.io
                    </tspan>
                </text>
            </a>
            <line x1="40" y1="122" x2="265" y2="122" style="stroke:#000000;stroke-width:1;stroke-opacity:0.7"></line>
            <line x1="40" y1="190" x2="265" y2="190" style="stroke:#000000;stroke-width:1;stroke-opacity:0.7"></line>
            <text x="149" y="214" text-anchor="middle"
                  style="fill: #000000; null; font-family:system-ui,-apple-system,BlinkMacSystemFont,'Segoe UI',Roboto,Oxygen,Ubuntu,Cantarell,'Open Sans','Helvetica Neue',sans-serif; font-weight: 600; letter-spacing: 2px; font-size: 0.9em;"></text>
        </g>
    </g>
</svg>