<svg xmlns="http://www.w3.org/2000/svg" height="150.0" width="432.0" viewBox="0 0 144 50">
    <svg xmlns="http://www.w3.org/2000/svg" width="144" height="50" viewBox="0 0 144 50">
        <defs>
            <filter id="Bevel" filterUnits="objectBoundingBox" x="-10%" y="-10%" width="150%" height="150%">
                <feGaussianBlur in="SourceAlpha" stdDeviation="3" result="blur"/>
                <feSpecularLighting in="blur" surfaceScale="5" specularConstant="0.5" specularExponent="10"
                                    result="specOut" lighting-color="white">
                    <fePointLight x="-5000" y="-10000" z="20000"/>
                </feSpecularLighting>
                <feComposite in="specOut" in2="SourceAlpha" operator="in" result="specOut2"/>
                <feComposite in="SourceGraphic" in2="specOut2" operator="arithmetic" k1="0" k2="1" k3="1" k4="0"
                             result="litPaint"/>
            </filter>
            <filter id="Bevel3" filterUnits="objectBoundingBox" x="-10%" y="-10%" width="150%" height="150%">
                <feGaussianBlur in="SourceAlpha" stdDeviation="0.2" result="blur"/>
                <feSpecularLighting in="blur" surfaceScale="10" specularConstant="3.5" specularExponent="10"
                                    result="specOut" lighting-color="#ffffff">
                    <fePointLight x="-5000" y="-10000" z="0000"/>
                </feSpecularLighting>
                <feComposite in="specOut" in2="SourceAlpha" operator="in" result="specOut2"/>
                <feComposite in="SourceGraphic" in2="specOut2" operator="arithmetic" k1="0" k2="1" k3="1" k4="0"
                             result="litPaint"/>
            </filter>
        </defs>
        <g transform="translate(0,0)">
            <svg width="36" height="36" style="display: block;margin: 10px auto; max-width: 80%; max-height: 250px;">
                <path d="M18 2.0845 a 15.9155 15.9155 0 0 1 0 31.831 a 15.9155 15.9155 0 0 1 0 -31.831"
                      style="fill: none;stroke: #B9B4C7;stroke-width: 3.8; filter: url(#Bevel);"/>
                <path stroke-dasharray="40.0, 100"
                      d="M18 2.0845 a 15.9155 15.9155 0 0 1 0 31.831 a 15.9155 15.9155 0 0 1 0 -31.831" stroke="#DA0C81"
                      style="fill: none;stroke-width: 2.8; stroke-linecap: round; animation: progress 1s ease-out forwards; filter: url(#Bevel3);"/>
                <text x="18" y="20.35"
                      style="font-family: Arial, Helvetica,sans-serif;font-size: 7px;text-anchor: middle; fill: #DA0C81;">
                    40.0%
                </text>
            </svg>
            <text x="18" y="48" style="font-family: Arial, Helvetica,sans-serif;font-size: 6px;text-anchor: middle;">
                <tspan x="18" dy="0" style="font-family: Arial, Helvetica,sans-serif; fill: #111111;">Mathematics
                </tspan>
            </text>
        </g>
        <g transform="translate(36,0)">
            <svg width="36" height="36" style="display: block;margin: 10px auto; max-width: 80%; max-height: 250px;">
                <path d="M18 2.0845 a 15.9155 15.9155 0 0 1 0 31.831 a 15.9155 15.9155 0 0 1 0 -31.831"
                      style="fill: none;stroke: #B9B4C7;stroke-width: 3.8; filter: url(#Bevel);"/>
                <path stroke-dasharray="20.0, 100"
                      d="M18 2.0845 a 15.9155 15.9155 0 0 1 0 31.831 a 15.9155 15.9155 0 0 1 0 -31.831" stroke="#DA0C81"
                      style="fill: none;stroke-width: 2.8; stroke-linecap: round; animation: progress 1s ease-out forwards; filter: url(#Bevel3);"/>
                <text x="18" y="20.35"
                      style="font-family: Arial, Helvetica,sans-serif;font-size: 7px;text-anchor: middle; fill: #DA0C81;">
                    20.0%
                </text>
            </svg>
            <text x="18" y="48" style="font-family: Arial, Helvetica,sans-serif;font-size: 6px;text-anchor: middle;">
                <tspan x="18" dy="0" style="font-family: Arial, Helvetica,sans-serif; fill: #111111;">English</tspan>
            </text>
        </g>
        <g transform="translate(72,0)">
            <svg width="36" height="36" style="display: block;margin: 10px auto; max-width: 80%; max-height: 250px;">
                <path d="M18 2.0845 a 15.9155 15.9155 0 0 1 0 31.831 a 15.9155 15.9155 0 0 1 0 -31.831"
                      style="fill: none;stroke: #B9B4C7;stroke-width: 3.8; filter: url(#Bevel);"/>
                <path stroke-dasharray="30.0, 100"
                      d="M18 2.0845 a 15.9155 15.9155 0 0 1 0 31.831 a 15.9155 15.9155 0 0 1 0 -31.831" stroke="#DA0C81"
                      style="fill: none;stroke-width: 2.8; stroke-linecap: round; animation: progress 1s ease-out forwards; filter: url(#Bevel3);"/>
                <text x="18" y="20.35"
                      style="font-family: Arial, Helvetica,sans-serif;font-size: 7px;text-anchor: middle; fill: #DA0C81;">
                    30.0%
                </text>
            </svg>
            <text x="18" y="48" style="font-family: Arial, Helvetica,sans-serif;font-size: 6px;text-anchor: middle;">
                <tspan x="18" dy="0" style="font-family: Arial, Helvetica,sans-serif; fill: #111111;">French</tspan>
            </text>
        </g>
        <g transform="translate(108,0)">
            <svg width="36" height="36" style="display: block;margin: 10px auto; max-width: 80%; max-height: 250px;">
                <path d="M18 2.0845 a 15.9155 15.9155 0 0 1 0 31.831 a 15.9155 15.9155 0 0 1 0 -31.831"
                      style="fill: none;stroke: #B9B4C7;stroke-width: 3.8; filter: url(#Bevel);"/>
                <path stroke-dasharray="10.0, 100"
                      d="M18 2.0845 a 15.9155 15.9155 0 0 1 0 31.831 a 15.9155 15.9155 0 0 1 0 -31.831" stroke="#DA0C81"
                      style="fill: none;stroke-width: 2.8; stroke-linecap: round; animation: progress 1s ease-out forwards; filter: url(#Bevel3);"/>
                <text x="18" y="20.35"
                      style="font-family: Arial, Helvetica,sans-serif;font-size: 7px;text-anchor: middle; fill: #DA0C81;">
                    10.0%
                </text>
            </svg>
            <text x="18" y="48" style="font-family: Arial, Helvetica,sans-serif;font-size: 6px;text-anchor: middle;">
                <tspan x="18" dy="0" style="font-family: Arial, Helvetica,sans-serif; fill: #111111;">Science</tspan>
            </text>
        </g>
    </svg>
</svg>