<svg xmlns="http://www.w3.org/2000/svg" height="150.0" width="492.0" viewBox="0 0 164 50"><svg xmlns="http://www.w3.org/2000/svg" width="164" height="50" viewBox="0 0 164 50"><defs> <style>.shadowed {-webkit-filter: drop-shadow(3px 3px 2px rgba(0, 0, 0, .3));filter: drop-shadow(3px 3px 2px rgba(0, 0, 0, .3));}</style></defs><g transform="translate(0,0)">    <svg class="shadowed" width="36" height="36" style="display: block;margin: 10px auto; max-width: 80%; max-height: 250px;"><path d="M18 2.0845 a 15.9155 15.9155 0 0 1 0 31.831 a 15.9155 15.9155 0 0 1 0 -31.831" style="fill: #fcfcfc;stroke: #ff6361;stroke-width: 1;"></path><path stroke-dasharray="40.0, 100" d="M18 2.0845 a 15.9155 15.9155 0 0 1 0 31.831 a 15.9155 15.9155 0 0 1 0 -31.831" stroke="#58508d" style="fill: none;stroke-width: 1.2; stroke-linecap: round; animation: progress 1s ease-out forwards;"></path><text x="18" y="20.35" style="font-family: Arial, Helvetica,sans-serif;font-size: 7px;text-anchor: middle; fill: #58508d;">40.0%</text></svg><text x="18" y="48" style="font-family: Arial, Helvetica,sans-serif;font-size: 6px;text-anchor: middle;"><tspan x="18" dy="0" style="font-family: Arial, Helvetica,sans-serif; fill: #ff6361;">Mathematics</tspan></text></g><g transform="translate(36,0)">    <svg class="shadowed" width="36" height="36" style="display: block;margin: 10px auto; max-width: 80%; max-height: 250px;"><path d="M18 2.0845 a 15.9155 15.9155 0 0 1 0 31.831 a 15.9155 15.9155 0 0 1 0 -31.831" style="fill: #fcfcfc;stroke: #ff6361;stroke-width: 1;"></path><path stroke-dasharray="20.0, 100" d="M18 2.0845 a 15.9155 15.9155 0 0 1 0 31.831 a 15.9155 15.9155 0 0 1 0 -31.831" stroke="#58508d" style="fill: none;stroke-width: 1.2; stroke-linecap: round; animation: progress 1s ease-out forwards;"></path><text x="18" y="20.35" style="font-family: Arial, Helvetica,sans-serif;font-size: 7px;text-anchor: middle; fill: #58508d;">20.0%</text></svg><text x="18" y="48" style="font-family: Arial, Helvetica,sans-serif;font-size: 6px;text-anchor: middle;"><tspan x="18" dy="0" style="font-family: Arial, Helvetica,sans-serif; fill: #ff6361;">English</tspan></text></g><g transform="translate(72,0)">    <svg class="shadowed" width="36" height="36" style="display: block;margin: 10px auto; max-width: 80%; max-height: 250px;"><path d="M18 2.0845 a 15.9155 15.9155 0 0 1 0 31.831 a 15.9155 15.9155 0 0 1 0 -31.831" style="fill: #fcfcfc;stroke: #ff6361;stroke-width: 1;"></path><path stroke-dasharray="30.0, 100" d="M18 2.0845 a 15.9155 15.9155 0 0 1 0 31.831 a 15.9155 15.9155 0 0 1 0 -31.831" stroke="#58508d" style="fill: none;stroke-width: 1.2; stroke-linecap: round; animation: progress 1s ease-out forwards;"></path><text x="18" y="20.35" style="font-family: Arial, Helvetica,sans-serif;font-size: 7px;text-anchor: middle; fill: #58508d;">30.0%</text></svg><text x="18" y="48" style="font-family: Arial, Helvetica,sans-serif;font-size: 6px;text-anchor: middle;"><tspan x="18" dy="0" style="font-family: Arial, Helvetica,sans-serif; fill: #ff6361;">French</tspan></text></g><g transform="translate(108,0)">    <svg class="shadowed" width="36" height="36" style="display: block;margin: 10px auto; max-width: 80%; max-height: 250px;"><path d="M18 2.0845 a 15.9155 15.9155 0 0 1 0 31.831 a 15.9155 15.9155 0 0 1 0 -31.831" style="fill: #fcfcfc;stroke: #ff6361;stroke-width: 1;"></path><path stroke-dasharray="10.0, 100" d="M18 2.0845 a 15.9155 15.9155 0 0 1 0 31.831 a 15.9155 15.9155 0 0 1 0 -31.831" stroke="#58508d" style="fill: none;stroke-width: 1.2; stroke-linecap: round; animation: progress 1s ease-out forwards;"></path><text x="18" y="20.35" style="font-family: Arial, Helvetica,sans-serif;font-size: 7px;text-anchor: middle; fill: #58508d;">10.0%</text></svg><text x="18" y="48" style="font-family: Arial, Helvetica,sans-serif;font-size: 6px;text-anchor: middle;"><tspan x="18" dy="0" style="font-family: Arial, Helvetica,sans-serif; fill: #ff6361;">Science</tspan></text></g></svg></svg>