<svg xmlns="http://www.w3.org/2000/svg" xmlns:xlink="http://www.w3.org/1999/xlink" width="1129.0" height="430.0" viewBox="0 0 2258 860">
    <defs>
        <linearGradient id="planItem_0" x2="0%" y2="100%">
            <stop offset="0%" style="stop-color:#ff0057"></stop>
            <stop offset="50%" style="stop-color:#e60049"></stop>
            <stop offset="100%" style="stop-color:#b8003a"></stop>
        </linearGradient><linearGradient id="planItem_1" x2="0%" y2="100%">
        <stop offset="0%" style="stop-color:#0dd8ff"></stop>
        <stop offset="50%" style="stop-color:#0bb4ff"></stop>
        <stop offset="100%" style="stop-color:#0890cc"></stop>
    </linearGradient><linearGradient id="planItem_2" x2="0%" y2="100%">
        <stop offset="0%" style="stop-color:#60ffae"></stop>
        <stop offset="50%" style="stop-color:#50e991"></stop>
        <stop offset="100%" style="stop-color:#40ba74"></stop>
    </linearGradient><linearGradient id="planItem_3" x2="0%" y2="100%">
        <stop offset="0%" style="stop-color:#ffff00"></stop>
        <stop offset="50%" style="stop-color:#e6d800"></stop>
        <stop offset="100%" style="stop-color:#b8ac00"></stop>
    </linearGradient>

    </defs>
    <text x="1129" y="40" text-anchor="middle" style="font-family: Arial, Helvetica, sans-serif; font-size: 36px; font-weight: bold;">Planner Visualizer</text>
    <g transform="translate(0, 60)"><g transform="translate(10, 60)"><rect x="0" y="0" fill="#fcfcfc" height="360" width="552" rx="5" ry="5" style="fill: #fcfcfc; font-family: Arial, Helvetica, sans-serif; stroke: url(#planItem_0);stroke-width: 2;"></rect>
        <path d="M 0 5.0 A 5.0 5.0 0 0 1 5.0 0 L 547.0 0 A 5.0 5.0 0 0 1 552.0 5.0 L 552.0 54.0 A 0.0 0.0 0 0 1 552.0 54.0 L 0.0 54.0 A 0.0 0.0 0 0 1 0 54.0 Z
" fill="url(#planItem_0)"></path><text x="20" y="36" style="font-family: Arial, Helvetica, sans-serif; fill: #FCFCFC; font-size: 24px;">Audit</text><text x="20" y="62" style="font-family: Arial, Helvetica, sans-serif; fill: #111111; font-size: 24px;"><tspan x="20" dy="24" style="font-family: Arial, Helvetica, sans-serif; fill: #111111; font-size: 24px;">Audit Log Streaming</tspan></text></g><g transform="translate(10, 430)"><rect x="0" y="0" fill="#fcfcfc" height="360" width="552" rx="5" ry="5" style="fill: #fcfcfc; font-family: Arial, Helvetica, sans-serif; stroke: url(#planItem_0);stroke-width: 2;"></rect>
        <path d="M 0 5.0 A 5.0 5.0 0 0 1 5.0 0 L 547.0 0 A 5.0 5.0 0 0 1 552.0 5.0 L 552.0 54.0 A 0.0 0.0 0 0 1 552.0 54.0 L 0.0 54.0 A 0.0 0.0 0 0 1 0 54.0 Z
" fill="url(#planItem_0)"></path><text x="20" y="36" style="font-family: Arial, Helvetica, sans-serif; fill: #FCFCFC; font-size: 24px;">Repo</text><text x="20" y="62" style="font-family: Arial, Helvetica, sans-serif; fill: #111111; font-size: 24px;"><tspan x="20" dy="24" style="font-family: Arial, Helvetica, sans-serif; fill: #111111; font-size: 24px;">Fork the repository to Support Search</tspan></text></g><g transform="translate(10, 10)">
        <text x="281" y="26" text-anchor="middle" style="font-family: Arial, Helvetica, sans-serif; fill: ; font-size: 36px; stroke: ; font-weight: bold;">NOW</text>
    </g><g transform="translate(572, 60)"><rect x="0" y="0" fill="#fcfcfc" height="360" width="552" rx="5" ry="5" style="fill: #fcfcfc; font-family: Arial, Helvetica, sans-serif; stroke: url(#planItem_1);stroke-width: 2;"></rect>
        <path d="M 0 5.0 A 5.0 5.0 0 0 1 5.0 0 L 547.0 0 A 5.0 5.0 0 0 1 552.0 5.0 L 552.0 54.0 A 0.0 0.0 0 0 1 552.0 54.0 L 0.0 54.0 A 0.0 0.0 0 0 1 0 54.0 Z
" fill="url(#planItem_1)"></path><text x="20" y="36" style="font-family: Arial, Helvetica, sans-serif; fill: #000000; font-size: 24px;">Kotlin</text><text x="20" y="62" style="font-family: Arial, Helvetica, sans-serif; fill: #111111; font-size: 24px;"><tspan x="20" dy="24" style="font-family: Arial, Helvetica, sans-serif; fill: #111111; font-size: 24px;">Kotlin Coroutines support</tspan></text></g><g transform="translate(572, 10)">
        <text x="281" y="26" text-anchor="middle" style="font-family: Arial, Helvetica, sans-serif; fill: ; font-size: 36px; stroke: ; font-weight: bold;">NEXT</text>
    </g><g transform="translate(1134, 60)"><rect x="0" y="0" fill="#fcfcfc" height="360" width="552" rx="5" ry="5" style="fill: #fcfcfc; font-family: Arial, Helvetica, sans-serif; stroke: url(#planItem_2);stroke-width: 2;"></rect>
        <path d="M 0 5.0 A 5.0 5.0 0 0 1 5.0 0 L 547.0 0 A 5.0 5.0 0 0 1 552.0 5.0 L 552.0 54.0 A 0.0 0.0 0 0 1 552.0 54.0 L 0.0 54.0 A 0.0 0.0 0 0 1 0 54.0 Z
" fill="url(#planItem_2)"></path><text x="20" y="36" style="font-family: Arial, Helvetica, sans-serif; fill: #000000; font-size: 24px;">API</text><text x="20" y="62" style="font-family: Arial, Helvetica, sans-serif; fill: #111111; font-size: 24px;"><tspan x="20" dy="24" style="font-family: Arial, Helvetica, sans-serif; fill: #111111; font-size: 24px;">API versioning (GA)</tspan></text></g><g transform="translate(1134, 430)"><rect x="0" y="0" fill="#fcfcfc" height="360" width="552" rx="5" ry="5" style="fill: #fcfcfc; font-family: Arial, Helvetica, sans-serif; stroke: url(#planItem_2);stroke-width: 2;"></rect>
        <path d="M 0 5.0 A 5.0 5.0 0 0 1 5.0 0 L 547.0 0 A 5.0 5.0 0 0 1 552.0 5.0 L 552.0 54.0 A 0.0 0.0 0 0 1 552.0 54.0 L 0.0 54.0 A 0.0 0.0 0 0 1 0 54.0 Z
" fill="url(#planItem_2)"></path><text x="20" y="36" style="font-family: Arial, Helvetica, sans-serif; fill: #000000; font-size: 24px;">Vulnerability</text><text x="20" y="62" style="font-family: Arial, Helvetica, sans-serif; fill: #111111; font-size: 24px;"><tspan x="20" dy="24" style="font-family: Arial, Helvetica, sans-serif; fill: #111111; font-size: 24px;">code scanning and app scanning             </tspan></text></g><g transform="translate(1134, 10)">
        <text x="281" y="26" text-anchor="middle" style="font-family: Arial, Helvetica, sans-serif; fill: ; font-size: 36px; stroke: ; font-weight: bold;">LATER</text>
    </g><g transform="translate(1696, 60)"><rect x="0" y="0" fill="#fcfcfc" height="360" width="552" rx="5" ry="5" style="fill: #fcfcfc; font-family: Arial, Helvetica, sans-serif; stroke: url(#planItem_3);stroke-width: 2;"></rect>
        <path d="M 0 5.0 A 5.0 5.0 0 0 1 5.0 0 L 547.0 0 A 5.0 5.0 0 0 1 552.0 5.0 L 552.0 54.0 A 0.0 0.0 0 0 1 552.0 54.0 L 0.0 54.0 A 0.0 0.0 0 0 1 0 54.0 Z
" fill="url(#planItem_3)"></path><text x="20" y="36" style="font-family: Arial, Helvetica, sans-serif; fill: #000000; font-size: 24px;">Schema</text><text x="20" y="62" style="font-family: Arial, Helvetica, sans-serif; fill: #111111; font-size: 24px;"><tspan x="20" dy="24" style="font-family: Arial, Helvetica, sans-serif; fill: #111111; font-size: 24px;">JSON schema definition</tspan></text></g><g transform="translate(1696, 10)">
        <text x="281" y="26" text-anchor="middle" style="font-family: Arial, Helvetica, sans-serif; fill: ; font-size: 36px; stroke: ; font-weight: bold;">DONE</text>
    </g></g></svg>