       <svg xmlns="http://www.w3.org/2000/svg" xmlns:xlink="http://www.w3.org/1999/xlink"
width="1410.0" height="430.0"
viewBox="0 0 2820 860">
<text x="1410" y="40" text-anchor="middle" style="font-family: Arial, Helvetica, sans-serif; font-size: 36; font-weight: bold;">title</text>
    <g transform="translate(0, 60)"><g transform="translate(10, 60)"><rect x="0" y="0" fill="#fcfcfc" height="360" width="552" rx="5" ry="5"
          style="fill: #fcfcfc; font-family: Arial, Helvetica, sans-serif; stroke: #fd7f6f;stroke-width: 2;"/>
        <path d="M 0 5.0 A 5.0 5.0 0 0 1 5.0 0 L 547.0 0 A 5.0 5.0 0 0 1 552.0 5.0 L 552.0 54.0 A 0.0 0.0 0 0 1 552.0 54.0 L 0.0 54.0 A 0.0 0.0 0 0 1 0 54.0 Z
" fill="#fd7f6f"/><text x="20" y="36" style="font-family: Arial, Helvetica, sans-serif; fill: #fcfcfc; font-size: 36;">Docker</text><text x='20' y='62' style='font-family: Arial, Helvetica, sans-serif; fill: #111111; font-size: 24;'><tspan x="20" dy="24" style="font-family: Arial, Helvetica, sans-serif; fill: #111111; font-size: 24;">Use common docker image to streamline the </tspan><tspan x="20" dy="24" style="font-family: Arial, Helvetica, sans-serif; fill: #111111; font-size: 24;">process. </tspan></text></g><g transform="translate(10, 430)"><rect x="0" y="0" fill="#fcfcfc" height="360" width="552" rx="5" ry="5"
          style="fill: #fcfcfc; font-family: Arial, Helvetica, sans-serif; stroke: #fd7f6f;stroke-width: 2;"/>
        <path d="M 0 5.0 A 5.0 5.0 0 0 1 5.0 0 L 547.0 0 A 5.0 5.0 0 0 1 552.0 5.0 L 552.0 54.0 A 0.0 0.0 0 0 1 552.0 54.0 L 0.0 54.0 A 0.0 0.0 0 0 1 0 54.0 Z
" fill="#fd7f6f"/><text x='20' y='62' style='font-family: Arial, Helvetica, sans-serif; fill: #111111; font-size: 24;'><tspan x="20" dy="24" style="font-family: Arial, Helvetica, sans-serif; fill: #111111; font-size: 24;">image embed slim</tspan></text></g><g transform="translate(10, 10)">
<text x="281" y="26" text-anchor="middle" style="font-family: Arial, Helvetica, sans-serif; fill: #fd7f6f; font-size: 36; stroke: #fd7f6f; font-weight: bold;">NOW</text>
</g><g transform="translate(572, 60)"><rect x="0" y="0" fill="#fcfcfc" height="360" width="552" rx="5" ry="5"
          style="fill: #fcfcfc; font-family: Arial, Helvetica, sans-serif; stroke: #7eb0d5;stroke-width: 2;"/>
        <path d="M 0 5.0 A 5.0 5.0 0 0 1 5.0 0 L 547.0 0 A 5.0 5.0 0 0 1 552.0 5.0 L 552.0 54.0 A 0.0 0.0 0 0 1 552.0 54.0 L 0.0 54.0 A 0.0 0.0 0 0 1 0 54.0 Z
" fill="#7eb0d5"/><text x='20' y='62' style='font-family: Arial, Helvetica, sans-serif; fill: #111111; font-size: 24;'><tspan x="20" dy="24" style="font-family: Arial, Helvetica, sans-serif; fill: #111111; font-size: 24;">dockerize API service build spring boot 3 version </tspan><tspan x="20" dy="24" style="font-family: Arial, Helvetica, sans-serif; fill: #111111; font-size: 24;"><a xlink:href="https://www.google.com" target="_blank" style="fill: blue; text-decoration: underline;">google</a> of application analyze black duck results </tspan></text></g><g transform="translate(572, 430)"><rect x="0" y="0" fill="#fcfcfc" height="360" width="552" rx="5" ry="5"
          style="fill: #fcfcfc; font-family: Arial, Helvetica, sans-serif; stroke: #005400;stroke-width: 2;"/>
        <path d="M 0 5.0 A 5.0 5.0 0 0 1 5.0 0 L 547.0 0 A 5.0 5.0 0 0 1 552.0 5.0 L 552.0 54.0 A 0.0 0.0 0 0 1 552.0 54.0 L 0.0 54.0 A 0.0 0.0 0 0 1 0 54.0 Z
" fill="#005400"/><text x="20" y="36" style="font-family: Arial, Helvetica, sans-serif; fill: #fcfcfc; font-size: 36;">Another map</text><text x='20' y='62' style='font-family: Arial, Helvetica, sans-serif; fill: #111111; font-size: 24;'><tspan x="20" dy="24" style="font-family: Arial, Helvetica, sans-serif; fill: #111111; font-size: 24;">color background roadmap</tspan></text></g><g transform="translate(572, 10)">
<text x="281" y="26" text-anchor="middle" style="font-family: Arial, Helvetica, sans-serif; fill: #005400; font-size: 36; stroke: #005400; font-weight: bold;">NEXT</text>
</g><g transform="translate(1134, 60)"><rect x="0" y="0" fill="#fcfcfc" height="360" width="552" rx="5" ry="5"
          style="fill: #fcfcfc; font-family: Arial, Helvetica, sans-serif; stroke: #b2e061;stroke-width: 2;"/>
        <path d="M 0 5.0 A 5.0 5.0 0 0 1 5.0 0 L 547.0 0 A 5.0 5.0 0 0 1 552.0 5.0 L 552.0 54.0 A 0.0 0.0 0 0 1 552.0 54.0 L 0.0 54.0 A 0.0 0.0 0 0 1 0 54.0 Z
" fill="#b2e061"/><text x="20" y="36" style="font-family: Arial, Helvetica, sans-serif; fill: #fcfcfc; font-size: 36;">Image</text><text x='20' y='62' style='font-family: Arial, Helvetica, sans-serif; fill: #111111; font-size: 24;'><tspan x="20" dy="24" style="font-family: Arial, Helvetica, sans-serif; fill: #111111; font-size: 24;">image embed rectangle</tspan></text></g><g transform="translate(1134, 430)"><rect x="0" y="0" fill="#fcfcfc" height="360" width="552" rx="5" ry="5"
          style="fill: #fcfcfc; font-family: Arial, Helvetica, sans-serif; stroke: #b2e061;stroke-width: 2;"/>
        <path d="M 0 5.0 A 5.0 5.0 0 0 1 5.0 0 L 547.0 0 A 5.0 5.0 0 0 1 552.0 5.0 L 552.0 54.0 A 0.0 0.0 0 0 1 552.0 54.0 L 0.0 54.0 A 0.0 0.0 0 0 1 0 54.0 Z
" fill="#b2e061"/><text x="20" y="36" style="font-family: Arial, Helvetica, sans-serif; fill: #fcfcfc; font-size: 36;">url</text><text x='20' y='62' style='font-family: Arial, Helvetica, sans-serif; fill: #111111; font-size: 24;'><tspan x="20" dy="24" style="font-family: Arial, Helvetica, sans-serif; fill: #111111; font-size: 24;">refactor displayConfigUrl to displayTheme</tspan></text></g><g transform="translate(1134, 10)">
<text x="281" y="26" text-anchor="middle" style="font-family: Arial, Helvetica, sans-serif; fill: #b2e061; font-size: 36; stroke: #b2e061; font-weight: bold;">LATER</text>
</g><g transform="translate(1696, 60)"><rect x="0" y="0" fill="#fcfcfc" height="360" width="552" rx="5" ry="5"
          style="fill: #fcfcfc; font-family: Arial, Helvetica, sans-serif; stroke: #bd7ebe;stroke-width: 2;"/>
        <path d="M 0 5.0 A 5.0 5.0 0 0 1 5.0 0 L 547.0 0 A 5.0 5.0 0 0 1 552.0 5.0 L 552.0 54.0 A 0.0 0.0 0 0 1 552.0 54.0 L 0.0 54.0 A 0.0 0.0 0 0 1 0 54.0 Z
" fill="#bd7ebe"/><text x="20" y="36" style="font-family: Arial, Helvetica, sans-serif; fill: #fcfcfc; font-size: 36;">Car</text><text x='20' y='62' style='font-family: Arial, Helvetica, sans-serif; fill: #111111; font-size: 24;'><tspan x="20" dy="24" style="font-family: Arial, Helvetica, sans-serif; fill: #111111; font-size: 24;">remove car from release <a xlink:href="https://roach.gy" target="_blank" style="fill: blue; text-decoration: underline;">roach</a> strategy</tspan></text></g><g transform="translate(1696, 430)"><rect x="0" y="0" fill="#fcfcfc" height="360" width="552" rx="5" ry="5"
          style="fill: #fcfcfc; font-family: Arial, Helvetica, sans-serif; stroke: #bd7ebe;stroke-width: 2;"/>
        <path d="M 0 5.0 A 5.0 5.0 0 0 1 5.0 0 L 547.0 0 A 5.0 5.0 0 0 1 552.0 5.0 L 552.0 54.0 A 0.0 0.0 0 0 1 552.0 54.0 L 0.0 54.0 A 0.0 0.0 0 0 1 0 54.0 Z
" fill="#bd7ebe"/><text x='20' y='62' style='font-family: Arial, Helvetica, sans-serif; fill: #111111; font-size: 24;'><tspan x="20" dy="24" style="font-family: Arial, Helvetica, sans-serif; fill: #111111; font-size: 24;">pass in theme (light,dark)</tspan></text></g><g transform="translate(1696, 10)">
<text x="281" y="26" text-anchor="middle" style="font-family: Arial, Helvetica, sans-serif; fill: #bd7ebe; font-size: 36; stroke: #bd7ebe; font-weight: bold;">DONE</text>
</g><g transform="translate(2258, 60)"><rect x="0" y="0" fill="#fcfcfc" height="360" width="552" rx="5" ry="5"
          style="fill: #fcfcfc; font-family: Arial, Helvetica, sans-serif; stroke: #ffb55a;stroke-width: 2;"/>
        <path d="M 0 5.0 A 5.0 5.0 0 0 1 5.0 0 L 547.0 0 A 5.0 5.0 0 0 1 552.0 5.0 L 552.0 54.0 A 0.0 0.0 0 0 1 552.0 54.0 L 0.0 54.0 A 0.0 0.0 0 0 1 0 54.0 Z
" fill="#ffb55a"/><text x="20" y="36" style="font-family: Arial, Helvetica, sans-serif; fill: #fcfcfc; font-size: 36;">dependency</text><text x='20' y='62' style='font-family: Arial, Helvetica, sans-serif; fill: #111111; font-size: 24;'><tspan x="20" dy="24" style="font-family: Arial, Helvetica, sans-serif; fill: #111111; font-size: 24;">waiting on team to finish feature</tspan></text></g><g transform="translate(2258, 10)">
<text x="281" y="26" text-anchor="middle" style="font-family: Arial, Helvetica, sans-serif; fill: #ffb55a; font-size: 36; stroke: #ffb55a; font-weight: bold;">BLOCKED</text>
</g></g></svg>