<svg id="quad_12-abc" width="800" height="600" viewBox="0 0 800 600" xmlns="http://www.w3.org/2000/svg" preserveAspectRatio="xMidYMid meet">
    <!-- Background gradient -->
    <defs>
        <!-- Gradient definitions -->
        <linearGradient id="bgGradient" x1="0%" y1="0%" x2="100%" y2="100%">
            <stop offset="0%" style="stop-color:#f8fafc;stop-opacity:1" />
            <stop offset="100%" style="stop-color:#e2e8f0;stop-opacity:1" />
        </linearGradient>

        <!-- Quadrant gradients -->
        <linearGradient id="q1Gradient" x1="0%" y1="0%" x2="100%" y2="100%">
            <stop offset="0%" style="stop-color:#10b981;stop-opacity:0.15" />
            <stop offset="100%" style="stop-color:#059669;stop-opacity:0.25" />
        </linearGradient>

        <linearGradient id="q2Gradient" x1="0%" y1="0%" x2="100%" y2="100%">
            <stop offset="0%" style="stop-color:#3b82f6;stop-opacity:0.15" />
            <stop offset="100%" style="stop-color:#1d4ed8;stop-opacity:0.25" />
        </linearGradient>

        <linearGradient id="q3Gradient" x1="0%" y1="0%" x2="100%" y2="100%">
            <stop offset="0%" style="stop-color:#f59e0b;stop-opacity:0.15" />
            <stop offset="100%" style="stop-color:#d97706;stop-opacity:0.25" />
        </linearGradient>

        <linearGradient id="q4Gradient" x1="0%" y1="0%" x2="100%" y2="100%">
            <stop offset="0%" style="stop-color:#ef4444;stop-opacity:0.15" />
            <stop offset="100%" style="stop-color:#dc2626;stop-opacity:0.25" />
        </linearGradient>

        <!-- Shadow filter -->
        <filter id="shadow" x="-20%" y="-20%" width="140%" height="140%">
            <feDropShadow dx="0" dy="4" stdDeviation="8" flood-color="#64748b" flood-opacity="0.15"/>
        </filter>

        <!-- Glow filter for data points -->
        <filter id="glow">
            <feGaussianBlur stdDeviation="3" result="coloredBlur"/>
            <feMerge>
                <feMergeNode in="coloredBlur"/>
                <feMergeNode in="SourceGraphic"/>
            </feMerge>
        </filter>
    </defs>

    <!-- Background -->
    <rect width="800" height="600" fill="url(#bgGradient)"/>

    <!-- Chart container with shadow -->
    <rect x="80" y="80" width="640" height="440" fill="white" rx="12" filter="url(#shadow)"/>

    <!-- Quadrant backgrounds -->
    <!-- Top-right (Q1) -->
    <rect x="400" y="80" width="320" height="220" fill="url(#q1Gradient)" rx="12" ry="0"/>

    <!-- Top-left (Q2) -->
    <rect x="80" y="80" width="320" height="220" fill="url(#q2Gradient)" rx="12" ry="0"/>

    <!-- Bottom-left (Q3) -->
    <rect x="80" y="300" width="320" height="220" fill="url(#q3Gradient)" rx="12" ry="0"/>

    <!-- Bottom-right (Q4) -->
    <rect x="400" y="300" width="320" height="220" fill="url(#q4Gradient)" rx="12" ry="0"/>

    <!-- Grid lines -->
    <g stroke="#e2e8f0" stroke-width="1" opacity="0.6">
        <!-- Vertical grid lines -->
        <line x1="160" y1="80" x2="160" y2="520"/>
        <line x1="240" y1="80" x2="240" y2="520"/>
        <line x1="320" y1="80" x2="320" y2="520"/>
        <line x1="480" y1="80" x2="480" y2="520"/>
        <line x1="560" y1="80" x2="560" y2="520"/>
        <line x1="640" y1="80" x2="640" y2="520"/>

        <!-- Horizontal grid lines -->
        <line x1="80" y1="140" x2="720" y2="140"/>
        <line x1="80" y1="190" x2="720" y2="190"/>
        <line x1="80" y1="240" x2="720" y2="240"/>
        <line x1="80" y1="360" x2="720" y2="360"/>
        <line x1="80" y1="410" x2="720" y2="410"/>
        <line x1="80" y1="460" x2="720" y2="460"/>
    </g>

    <!-- Main axes -->
    <g stroke="#475569" stroke-width="3">
        <!-- Vertical axis -->
        <line x1="400" y1="80" x2="400" y2="520"/>
        <!-- Horizontal axis -->
        <line x1="80" y1="300" x2="720" y2="300"/>
    </g>

    <!-- Quadrant labels with modern styling -->
    <!-- Q1 Label -->
    <rect x="520" y="110" width="160" height="32" fill="#10b981" rx="16" opacity="0.9"/>
    <text x="600" y="130" text-anchor="middle" fill="white" font-family="Arial, sans-serif" font-size="14" font-weight="bold">HIGH IMPACT</text>
    <text x="600" y="160" text-anchor="middle" fill="#059669" font-family="Arial, sans-serif" font-size="12" font-weight="500">Low Effort</text>

    <!-- Q2 Label -->
    <rect x="120" y="110" width="160" height="32" fill="#3b82f6" rx="16" opacity="0.9"/>
    <text x="200" y="130" text-anchor="middle" fill="white" font-family="Arial, sans-serif" font-size="14" font-weight="bold">STRATEGIC</text>
    <text x="200" y="160" text-anchor="middle" fill="#1d4ed8" font-family="Arial, sans-serif" font-size="12" font-weight="500">High Effort</text>

    <!-- Q3 Label -->
    <rect x="120" y="470" width="160" height="32" fill="#f59e0b" rx="16" opacity="0.9"/>
    <text x="200" y="490" text-anchor="middle" fill="white" font-family="Arial, sans-serif" font-size="14" font-weight="bold">FILL-INS</text>
    <text x="200" y="360" text-anchor="middle" fill="#d97706" font-family="Arial, sans-serif" font-size="12" font-weight="500">Low Impact</text>

    <!-- Q4 Label -->
    <rect x="520" y="470" width="160" height="32" fill="#ef4444" rx="16" opacity="0.9"/>
    <text x="600" y="490" text-anchor="middle" fill="white" font-family="Arial, sans-serif" font-size="14" font-weight="bold">THANKLESS</text>
    <text x="600" y="360" text-anchor="middle" fill="#dc2626" font-family="Arial, sans-serif" font-size="12" font-weight="500">High Effort</text>

    <!-- Sample data points with modern design -->
    <!-- Q1 - High Impact, Low Effort -->
    <circle cx="550" cy="200" r="8" fill="#10b981" filter="url(#glow)"/>
    <circle cx="580" cy="180" r="6" fill="#059669" filter="url(#glow)"/>
    <circle cx="620" cy="220" r="7" fill="#047857" filter="url(#glow)"/>

    <!-- Q2 - High Impact, High Effort -->
    <circle cx="250" cy="150" r="10" fill="#3b82f6" filter="url(#glow)"/>
    <circle cx="180" cy="190" r="8" fill="#1d4ed8" filter="url(#glow)"/>
    <circle cx="300" cy="170" r="6" fill="#1e40af" filter="url(#glow)"/>

    <!-- Q3 - Low Impact, Low Effort -->
    <circle cx="150" cy="400" r="5" fill="#f59e0b" filter="url(#glow)"/>
    <circle cx="200" cy="420" r="6" fill="#d97706" filter="url(#glow)"/>
    <circle cx="280" cy="380" r="7" fill="#b45309" filter="url(#glow)"/>

    <!-- Q4 - Low Impact, High Effort -->
    <circle cx="500" cy="430" r="9" fill="#ef4444" filter="url(#glow)"/>
    <circle cx="640" cy="400" r="7" fill="#dc2626" filter="url(#glow)"/>
    <circle cx="580" cy="460" r="6" fill="#b91c1c" filter="url(#glow)"/>

    <!-- Axis labels -->
    <text x="400" y="555" text-anchor="middle" fill="#374151" font-family="Arial, sans-serif" font-size="16" font-weight="600">EFFORT REQUIRED</text>
    <text x="40" y="305" text-anchor="middle" fill="#374151" font-family="Arial, sans-serif" font-size="16" font-weight="600" transform="rotate(-90, 40, 305)">IMPACT LEVEL</text>

    <!-- Axis value labels -->
    <text x="160" y="545" text-anchor="middle" fill="#6b7280" font-family="Arial, sans-serif" font-size="12">Low</text>
    <text x="640" y="545" text-anchor="middle" fill="#6b7280" font-family="Arial, sans-serif" font-size="12">High</text>

    <text x="65" y="520" text-anchor="middle" fill="#6b7280" font-family="Arial, sans-serif" font-size="12">Low</text>
    <text x="65" y="95" text-anchor="middle" fill="#6b7280" font-family="Arial, sans-serif" font-size="12">High</text>

    <!-- Chart title -->
    <text x="400" y="40" text-anchor="middle" fill="#1f2937" font-family="Arial, sans-serif" font-size="24" font-weight="bold">Strategic Priority Matrix</text>
    <text x="400" y="60" text-anchor="middle" fill="#6b7280" font-family="Arial, sans-serif" font-size="14">Impact vs. Effort Analysis</text>

    <!-- Legend -->
    <g transform="translate(50, 350)">
        <rect x="0" y="0" width="20" height="60" fill="white" rx="4" stroke="#e5e7eb" stroke-width="1"/>
        <text x="30" y="15" fill="#374151" font-family="Arial, sans-serif" font-size="11" font-weight="600">Legend:</text>
        <circle cx="10" cy="25" r="3" fill="#10b981"/>
        <text x="25" y="29" fill="#374151" font-family="Arial, sans-serif" font-size="10">Quick Wins</text>
        <circle cx="10" cy="38" r="3" fill="#3b82f6"/>
        <text x="25" y="42" fill="#374151" font-family="Arial, sans-serif" font-size="10">Major Projects</text>
        <circle cx="10" cy="51" r="3" fill="#f59e0b"/>
        <text x="25" y="55" fill="#374151" font-family="Arial, sans-serif" font-size="10">Minor Tasks</text>
    </g>
</svg>