<svg id="d9c1707c4-3cb9-4f90-b955-b226539e2031" xmlns="http://www.w3.org/2000/svg" width="587.8124999926524" height="109.68749999862891" viewBox="0 0 1045.0 195.0" preserveAspectRatio="xMidYMin meet"
     xmlns:xlink="http://www.w3.org/1999/xlink">
    <defs>
        <linearGradient id="header_9c1707c4-3cb9-4f90-b955-b226539e2031" x1="0%" y1="0%" x2="100%" y2="0%">
            <stop class="stop1" offset="0%" stop-color="#2563eb" stop-opacity="1"></stop>
            <stop class="stop2" offset="100%" stop-color="#9333ea" stop-opacity="1"></stop>
        </linearGradient>

        <linearGradient id="bevelGradient9c1707c4-3cb9-4f90-b955-b226539e2031" x1="0%" y1="0%" x2="0%" y2="100%">
            <stop class="stop3" offset="0%" stop-color="#fafafa" stop-opacity="1"></stop>
            <stop class="stop2" offset="50%" stop-color="#f9fafb" stop-opacity="1"></stop>
            <stop class="stop1" offset="100%" stop-color="#f3f4f6" stop-opacity="1"></stop>
        </linearGradient>

        <filter id="shadowFilter" x="-10%" y="-10%" width="120%" height="120%">
            <feDropShadow dx="0" dy="2" stdDeviation="2" flood-color="#000000" flood-opacity="0.1"></feDropShadow>
        </filter>
        <marker id="arrowhead1" markerWidth="2" markerHeight="5" refX="0" refY="1.5" orient="auto">
            <polygon points="0 0, 1 1.5, 0 3" fill="#6366f1"></polygon>
        </marker>

        <linearGradient x2="0%" y2="100%" id="9c1707c4-3cb9-4f90-b955-b226539e2031_arrowColor">
            <stop stop-color="#ef99cd" stop-opacity="1" offset="0%"></stop>
            <stop stop-color="hsl(324.0,73.5%,54.1%)" stop-opacity="1" offset="100%"></stop>
        </linearGradient>
        <linearGradient id="leftBullet" x2="0%" y2="100%">
            <stop class="stop1" offset="0%" stop-color="#93c5fd"></stop>
            <stop class="stop2" offset="50%" stop-color="#3b82f6"></stop>
            <stop class="stop3" offset="100%" stop-color="#2563eb"></stop>
        </linearGradient>
        <linearGradient id="rightBullet" x2="0%" y2="100%">
            <stop class="stop1" offset="0%" stop-color="#d8b4fe"></stop>
            <stop class="stop2" offset="50%" stop-color="#a855f7"></stop>
            <stop class="stop3" offset="100%" stop-color="#9333ea"></stop>
        </linearGradient>

        <script>
            var reveal = function () {
                var elems = document.querySelectorAll('#d9c1707c4-3cb9-4f90-b955-b226539e2031 [display="none"]');
                if(elems.length &gt; 0) {
                    var item = elems[0];
                    item.setAttribute("display", "block");
                }
            }
        </script>
    </defs>
    <rect width="100%" height="100%" fill="url(#bevelGradient9c1707c4-3cb9-4f90-b955-b226539e2031)" filter="url(#shadowFilter)" rx="8" ry="8"></rect>
    <rect width="100%" height="50" fill="url(#header_9c1707c4-3cb9-4f90-b955-b226539e2031)" rx="8" ry="8"></rect>
    <g transform="scale(1.0)"><g transform="translate(490,25)">
        <line x1="10" x2="50" y1="10" y2="10" stroke="#f97316" stroke-width="5" stroke-linecap="round" stroke-linejoin="round"></line>
        <g transform="translate(50,7.5)">
            <linearGradient id="arrowGradient" x1="0%" y1="0%" x2="100%" y2="0%">
                <stop offset="0%" stop-color="#f97316"></stop>
                <stop offset="100%" stop-color="#ea580c"></stop>
            </linearGradient>
            <polygon points="0,5 1.6666666666666667,2.5 0,0 5,2.5" stroke="#ffffff" stroke-width="1" fill="url(#arrowGradient)"></polygon>
        </g>
    </g>

        <g transform="translate(10, 50.0)">

            <g transform="translate(0, 5)" display="block">
                <svg height="15" width="15" viewBox="0 0 45 45">
                    <polygon points="23 35 9 43 11 27 0 16 16 14 23 0 29 14 45 16 34 27 36 43" fill="url(#leftBullet)"></polygon>
                </svg>
            </g>

            <text x="15" y="7" style="font-family: Arial, Helvetica, sans-serif;  font-size: 12px;">
                <tspan x="20" dy="12" style="fill:#374151;font-family: 'Segoe UI', Arial, sans-serif;font-size: 12px;letter-spacing: 0.2px;">Limited scalability</tspan>
            </text>
            <line x1="10" x2="460" y1="24.0" y2="24.0" stroke="#e5e7eb" stroke-width="1" stroke-dasharray="2"></line>
        </g>
        <g transform="translate(10, 79.0)">

            <g transform="translate(0, 5)" display="block">
                <svg height="15" width="15" viewBox="0 0 45 45">
                    <polygon points="23 35 9 43 11 27 0 16 16 14 23 0 29 14 45 16 34 27 36 43" fill="url(#leftBullet)"></polygon>
                </svg>
            </g>

            <text x="15" y="7" style="font-family: Arial, Helvetica, sans-serif;  font-size: 12px;">
                <tspan x="20" dy="12" style="fill:#374151;font-family: 'Segoe UI', Arial, sans-serif;font-size: 12px;letter-spacing: 0.2px;">High maintenance costs</tspan>
            </text>
            <line x1="10" x2="460" y1="24.0" y2="24.0" stroke="#e5e7eb" stroke-width="1" stroke-dasharray="2"></line>
        </g>
        <g transform="translate(10, 108.0)">

            <g transform="translate(0, 5)" display="block">
                <svg height="15" width="15" viewBox="0 0 45 45">
                    <polygon points="23 35 9 43 11 27 0 16 16 14 23 0 29 14 45 16 34 27 36 43" fill="url(#leftBullet)"></polygon>
                </svg>
            </g>

            <text x="15" y="7" style="font-family: Arial, Helvetica, sans-serif;  font-size: 12px;">
                <tspan x="20" dy="12" style="fill:#374151;font-family: 'Segoe UI', Arial, sans-serif;font-size: 12px;letter-spacing: 0.2px;">Manual deployment process</tspan>
            </text>
            <line x1="10" x2="460" y1="24.0" y2="24.0" stroke="#e5e7eb" stroke-width="1" stroke-dasharray="2"></line>
        </g>
        <g transform="translate(10, 137.0)">

            <g transform="translate(0, 5)" display="block">
                <svg height="15" width="15" viewBox="0 0 45 45">
                    <polygon points="23 35 9 43 11 27 0 16 16 14 23 0 29 14 45 16 34 27 36 43" fill="url(#leftBullet)"></polygon>
                </svg>
            </g>

            <text x="15" y="7" style="font-family: Arial, Helvetica, sans-serif;  font-size: 12px;">
                <tspan x="20" dy="12" style="fill:#374151;font-family: 'Segoe UI', Arial, sans-serif;font-size: 12px;letter-spacing: 0.2px;">Minimal monitoring capabilities</tspan>
            </text>
            <line x1="10" x2="460" y1="24.0" y2="24.0" stroke="#e5e7eb" stroke-width="1" stroke-dasharray="2"></line>
        </g>
        <g transform="translate(10, 166.0)">

            <g transform="translate(0, 5)" display="block">
                <svg height="15" width="15" viewBox="0 0 45 45">
                    <polygon points="23 35 9 43 11 27 0 16 16 14 23 0 29 14 45 16 34 27 36 43" fill="url(#leftBullet)"></polygon>
                </svg>
            </g>

            <text x="15" y="7" style="font-family: Arial, Helvetica, sans-serif;  font-size: 12px;">
                <tspan x="20" dy="12" style="fill:#374151;font-family: 'Segoe UI', Arial, sans-serif;font-size: 12px;letter-spacing: 0.2px;">Difficult to extend</tspan>
            </text>
            <line x1="10" x2="460" y1="24.0" y2="24.0" stroke="#e5e7eb" stroke-width="1" stroke-dasharray="2"></line>
        </g><g transform="translate(530, 50.0)" display="block">

            <g transform="translate(0, 5)" display="block">
                <svg height="15" width="15" viewBox="0 0 45 45">
                    <polygon points="23 35 9 43 11 27 0 16 16 14 23 0 29 14 45 16 34 27 36 43" fill="url(#rightBullet)"></polygon>
                </svg>
            </g>

            <text x="30" y="7" style="font-family: Arial, Helvetica, sans-serif;  font-size: 12px;">
                <tspan x="25" dy="12" style="fill:#374151;font-family: 'Segoe UI', Arial, sans-serif;font-size: 12px;letter-spacing: 0.2px;">Highly scalable architecture</tspan>
            </text>
            <line x1="10" x2="460" y1="24.0" y2="24.0" stroke="#e5e7eb" stroke-width="1" stroke-dasharray="2"></line>
        </g><g transform="translate(530, 79.0)" display="block">

            <g transform="translate(0, 5)" display="block">
                <svg height="15" width="15" viewBox="0 0 45 45">
                    <polygon points="23 35 9 43 11 27 0 16 16 14 23 0 29 14 45 16 34 27 36 43" fill="url(#rightBullet)"></polygon>
                </svg>
            </g>

            <text x="30" y="7" style="font-family: Arial, Helvetica, sans-serif;  font-size: 12px;">
                <tspan x="25" dy="12" style="fill:#374151;font-family: 'Segoe UI', Arial, sans-serif;font-size: 12px;letter-spacing: 0.2px;">Reduced operational costs</tspan>
            </text>
            <line x1="10" x2="460" y1="24.0" y2="24.0" stroke="#e5e7eb" stroke-width="1" stroke-dasharray="2"></line>
        </g><g transform="translate(530, 108.0)" display="block">

            <g transform="translate(0, 5)" display="block">
                <svg height="15" width="15" viewBox="0 0 45 45">
                    <polygon points="23 35 9 43 11 27 0 16 16 14 23 0 29 14 45 16 34 27 36 43" fill="url(#rightBullet)"></polygon>
                </svg>
            </g>

            <text x="30" y="7" style="font-family: Arial, Helvetica, sans-serif;  font-size: 12px;">
                <tspan x="25" dy="12" style="fill:#374151;font-family: 'Segoe UI', Arial, sans-serif;font-size: 12px;letter-spacing: 0.2px;">Automated CI/CD pipeline</tspan>
            </text>
            <line x1="10" x2="460" y1="24.0" y2="24.0" stroke="#e5e7eb" stroke-width="1" stroke-dasharray="2"></line>
        </g><g transform="translate(530, 137.0)" display="block">

            <g transform="translate(0, 5)" display="block">
                <svg height="15" width="15" viewBox="0 0 45 45">
                    <polygon points="23 35 9 43 11 27 0 16 16 14 23 0 29 14 45 16 34 27 36 43" fill="url(#rightBullet)"></polygon>
                </svg>
            </g>

            <text x="30" y="7" style="font-family: Arial, Helvetica, sans-serif;  font-size: 12px;">
                <tspan x="25" dy="12" style="fill:#374151;font-family: 'Segoe UI', Arial, sans-serif;font-size: 12px;letter-spacing: 0.2px;">Comprehensive monitoring</tspan>
            </text>
            <line x1="10" x2="460" y1="24.0" y2="24.0" stroke="#e5e7eb" stroke-width="1" stroke-dasharray="2"></line>
        </g><g transform="translate(530, 166.0)" display="block">

            <g transform="translate(0, 5)" display="block">
                <svg height="15" width="15" viewBox="0 0 45 45">
                    <polygon points="23 35 9 43 11 27 0 16 16 14 23 0 29 14 45 16 34 27 36 43" fill="url(#rightBullet)"></polygon>
                </svg>
            </g>

            <text x="30" y="7" style="font-family: Arial, Helvetica, sans-serif;  font-size: 12px;">
                <tspan x="25" dy="12" style="fill:#374151;font-family: 'Segoe UI', Arial, sans-serif;font-size: 12px;letter-spacing: 0.2px;">Modular and extensible design</tspan>
            </text>
            <line x1="10" x2="460" y1="24.0" y2="24.0" stroke="#e5e7eb" stroke-width="1" stroke-dasharray="2"></line>
        </g> <text x="522.5" y="20" style="font-family: 'Segoe UI', Arial, sans-serif; text-anchor:middle; font-size: 16px; fill: white; letter-spacing: 0.5px; font-weight: bold;">Technology Comparison</text>
        <text x="255" y="40" style="font-family: 'Segoe UI', Arial, sans-serif; text-anchor:middle; font-size: 14px; fill: white; letter-spacing: 0.5px; font-weight: 600;">Current Solution</text>
        <text x="755.5" y="40" style="font-family: 'Segoe UI', Arial, sans-serif; text-anchor:middle; font-size: 14px; fill: white; letter-spacing: 0.5px; font-weight: 600;">Proposed Solution</text>
        <line x1="522.5" x2="522.5" y1="50" y2="185.0" stroke="#e5e7eb" stroke-dasharray="2"></line></g></svg>